<svg width="60" height="60" viewBox="0 0 60 60" fill="none" xmlns="http://www.w3.org/2000/svg">
<path d="M59.5317 11.8562L46.1945 0.340257C45.9953 0.163873 45.7485 0.0500948 45.485 0.0131307C45.2215 -0.0238334 44.9529 0.0176551 44.7128 0.132415C44.4776 0.234348 44.2777 0.403349 44.138 0.618289C43.9984 0.83323 43.9251 1.08457 43.9275 1.3409V4.28711C43.9275 4.57125 43.8147 4.84375 43.6138 5.04467C43.4128 5.24558 43.1403 5.35846 42.8562 5.35846H6.43032C6.14618 5.35846 5.87368 5.47133 5.67276 5.67225C5.47184 5.87317 5.35897 6.14567 5.35897 6.42981V19.286C5.35897 19.5701 5.47184 19.8426 5.67276 20.0436C5.87368 20.2445 6.14618 20.3573 6.43032 20.3573H8.57302V13.9293C8.57472 12.5091 9.13963 11.1476 10.1439 10.1433C11.1481 9.13912 12.5096 8.57421 13.9298 8.5725H46.0702C47.4904 8.57421 48.8519 9.13912 49.8561 10.1433C50.8604 11.1476 51.4253 12.5091 51.427 13.9293V20.8534L59.5328 13.8585C59.6787 13.7357 59.7959 13.5824 59.8763 13.4094C59.9568 13.2365 59.9984 13.0481 59.9984 12.8574C59.9984 12.6666 59.9568 12.4782 59.8763 12.3053C59.7959 12.1324 59.6787 11.9791 59.5328 11.8562H59.5317Z" fill="#FD8A02"/>
<path d="M13.8055 59.6588C14.0044 59.8358 14.2512 59.95 14.5149 59.9869C14.7785 60.0239 15.0473 59.9821 15.2872 59.8666C15.5224 59.7647 15.7223 59.5957 15.862 59.3807C16.0016 59.1658 16.0749 58.9144 16.0725 58.6581V55.7119C16.0725 55.4278 16.1853 55.1553 16.3863 54.9543C16.5872 54.7534 16.8597 54.6406 17.1438 54.6406H53.5697C53.8538 54.6406 54.1263 54.5277 54.3272 54.3268C54.5282 54.1259 54.641 53.8533 54.641 53.5692V40.713C54.641 40.4289 54.5282 40.1564 54.3272 39.9555C54.1263 39.7545 53.8538 39.6417 53.5697 39.6417H51.427V46.0698C51.4253 47.4899 50.8604 48.8515 49.8562 49.8557C48.8519 50.8599 47.4904 51.4248 46.0702 51.4265H13.9298C12.5096 51.4248 11.1481 50.8599 10.1439 49.8557C9.13964 48.8515 8.57472 47.4899 8.57302 46.0698V39.1456L0.467189 46.1405C0.321339 46.2634 0.2041 46.4166 0.123674 46.5896C0.0432478 46.7625 0.00157738 46.9509 0.00157738 47.1416C0.00157738 47.3324 0.0432478 47.5208 0.123674 47.6937C0.2041 47.8667 0.321339 48.0199 0.467189 48.1428L13.8055 59.6588Z" fill="#FD8A02"/>
<path d="M34.1365 29.9804H38.273V42.6029H34.1365V29.9804ZM28.6212 29.9804H31.3788V42.6029H28.6212V29.9804ZM45.1671 45.408H14.8329C14.4672 45.408 14.1165 45.5557 13.8579 45.8187C13.5993 46.0818 13.4541 46.4385 13.4541 46.8105V48.213H46.5459V46.8105C46.5459 46.4385 46.4007 46.0818 46.1421 45.8187C45.8835 45.5557 45.5328 45.408 45.1671 45.408ZM14.8329 24.3704H45.1671V27.1754H14.8329V24.3704ZM41.0306 29.9804H43.7883V42.6029H41.0306V29.9804Z" fill="#FD8A02"/>
<path d="M12.8584 21.5654H47.1416L30 11.7871L12.8584 21.5654ZM16.2117 29.9804H18.9694V42.603H16.2117V29.9804Z" fill="#FD8A02"/>
<path d="M21.727 29.9803H25.8635V42.6029H21.727V29.9803Z" fill="#FD8A02"/>
</svg>
