<svg width="60" height="60" viewBox="0 0 60 60" fill="none" xmlns="http://www.w3.org/2000/svg">
<path d="M13.3166 28.8838C13.3165 28.8838 13.3165 28.8838 13.3165 28.8837C13.3165 20.4266 19.6508 13.4222 27.8238 12.3643C28.0782 12.3314 28.2733 12.1172 28.2733 11.8607V2.65007C28.2733 2.28679 27.8981 2.04477 27.5672 2.19453L7.79387 11.1422C7.61496 11.2231 7.5 11.4013 7.5 11.5977V29.6992C7.5 33.4706 8.67211 37.3612 10.983 41.263C12.7848 44.3045 15.2839 47.3649 18.4101 50.3587C21.9868 53.7838 25.5308 56.3135 27.5091 57.6268C27.8382 57.8453 28.2734 57.6071 28.2734 57.2121V45.9067C28.2734 45.6501 28.0783 45.436 27.8239 45.403C19.6509 44.3448 13.3166 37.3404 13.3166 28.8839C13.3166 28.8839 13.3166 28.8838 13.3166 28.8838Z" fill="#FD8A02"/>
<path fill-rule="evenodd" clip-rule="evenodd" d="M29.9738 15.6279C37.2831 15.6279 43.2301 21.5743 43.2301 28.8839C43.2301 36.1932 37.2831 42.1399 29.9738 42.1399C22.6645 42.1399 16.7178 36.1932 16.7178 28.8839C16.7178 21.5743 22.6645 15.6279 29.9738 15.6279ZM25.6093 28.5313V30.025H26.6855V31.7227H25.6093V33.2164H26.6855V35.5357H28.8378V33.2164H32.6786V31.7227H28.8378V30.025H30.4799C31.1293 30.025 31.7509 29.9569 32.3447 29.8209C32.9384 29.6786 33.4579 29.4498 33.9033 29.1343C34.3548 28.8189 34.7135 28.4107 34.9794 27.9097C35.2516 27.4088 35.3876 26.7964 35.3876 26.0728C35.3876 25.3677 35.2732 24.774 35.0444 24.2916C34.8217 23.803 34.5063 23.4071 34.0981 23.1041C33.6961 22.7948 33.2106 22.5722 32.6415 22.4361C32.0787 22.3 31.4571 22.232 30.7768 22.232H26.6855V28.5313H25.6093ZM28.8378 28.5313V23.772H30.5449C31.454 23.772 32.122 23.9761 32.5488 24.3843C32.9755 24.7864 33.1889 25.3801 33.1889 26.1656C33.1889 26.9696 32.9415 27.5665 32.4467 27.9561C31.9519 28.3396 31.2283 28.5313 30.2758 28.5313H28.8378Z" fill="#FD8A02"/>
<path d="M32.3808 2.19454C32.0498 2.04477 31.6747 2.28679 31.6747 2.65007V11.8607C31.6747 12.1172 31.8697 12.3314 32.1241 12.3643C40.2971 13.4222 46.6315 20.4267 46.6315 28.8839C46.6315 37.3403 40.2971 44.3448 32.1241 45.403C31.8697 45.436 31.6747 45.6501 31.6747 45.9067V57.2121C31.6747 57.6071 32.1098 57.8453 32.4389 57.6269C34.4172 56.3136 37.9612 53.7838 41.5379 50.3587C44.6646 47.3649 47.1633 44.3045 48.9647 41.263C51.2759 37.3612 52.4478 33.4706 52.4478 29.6992V11.5977C52.4478 11.4013 52.3328 11.2231 52.1539 11.1422L32.3808 2.19454Z" fill="#FD8A02"/>
</svg>
