<svg width="369" height="234" viewBox="0 0 369 234" fill="none" xmlns="http://www.w3.org/2000/svg">
<path d="M220.954 196.615C220.814 197.025 220.654 197.425 220.484 197.835C218.434 202.665 214.174 207.235 207.684 211.005C188.644 222.075 157.554 222.075 138.384 211.005C131.784 207.195 127.444 202.565 125.364 197.675C125.194 197.265 125.044 196.855 124.894 196.445C121.814 187.475 126.224 177.805 138.164 170.865C140.484 169.515 142.984 168.335 145.624 167.315C146.304 167.055 146.994 166.795 147.694 166.565C163.064 161.245 182.454 161.245 197.884 166.565C198.584 166.805 199.274 167.055 199.954 167.315C202.604 168.335 205.114 169.515 207.454 170.865C219.544 177.855 224.054 187.605 220.954 196.615Z" fill="white"/>
<path d="M222.704 188.475C222.554 187.445 222.304 186.425 221.954 185.415C220.094 179.935 215.504 174.705 208.164 170.465C206.134 169.295 203.974 168.245 201.714 167.325C201.074 167.055 200.424 166.805 199.774 166.575C183.354 160.475 162.144 160.475 145.794 166.575C145.144 166.805 144.504 167.055 143.874 167.325C141.624 168.245 139.474 169.295 137.454 170.465C130.184 174.685 125.644 179.915 123.844 185.365C123.484 186.445 123.234 187.535 123.094 188.635C122.904 190.095 122.904 191.565 123.094 193.025C123.234 194.125 123.484 195.225 123.844 196.315C123.984 196.765 124.154 197.215 124.334 197.655C124.504 198.065 124.694 198.485 124.894 198.895C127.174 203.485 131.434 207.805 137.684 211.415C157.244 222.715 188.964 222.705 208.394 211.415C214.514 207.855 218.704 203.595 220.954 199.065C221.154 198.655 221.344 198.255 221.514 197.845C221.674 197.455 221.824 197.065 221.954 196.675C222.294 195.675 222.544 194.675 222.704 193.665C222.964 191.935 222.974 190.185 222.704 188.475ZM220.954 196.615C220.814 197.025 220.654 197.425 220.484 197.835C218.434 202.665 214.174 207.235 207.684 211.005C188.644 222.075 157.554 222.075 138.384 211.005C131.784 207.195 127.444 202.565 125.364 197.675C125.194 197.265 125.044 196.855 124.894 196.445C121.814 187.475 126.224 177.805 138.164 170.865C140.484 169.515 142.984 168.335 145.624 167.315C146.304 167.055 146.994 166.795 147.694 166.565C163.064 161.245 182.454 161.245 197.884 166.565C198.584 166.805 199.274 167.055 199.954 167.315C202.604 168.335 205.114 169.515 207.454 170.865C219.544 177.855 224.054 187.605 220.954 196.615Z" fill="#0053A3"/>
<path d="M186.524 184.255L182.434 181.895L170.134 189.045L173.354 190.905C175.204 191.975 176.964 192.765 178.634 193.265C180.334 193.795 181.984 193.995 183.584 193.865C185.184 193.745 186.764 193.225 188.334 192.315C190.384 191.125 191.264 189.875 190.984 188.555C190.704 187.245 189.224 185.815 186.524 184.255ZM171.234 189.035L182.434 182.525L185.974 184.575C188.624 186.105 189.974 187.455 190.214 188.615C190.464 189.755 189.714 190.875 187.784 191.995C186.294 192.865 184.854 193.315 183.474 193.415C182.064 193.525 180.584 193.345 178.994 192.855C177.424 192.375 175.724 191.625 173.904 190.565L171.234 189.035ZM158.644 186.375L162.074 184.385L166.034 186.675L181.764 177.535L190.324 182.475C194.294 184.765 196.444 186.925 196.754 188.955C197.094 191.005 195.744 192.915 192.704 194.685C190.654 195.875 188.424 196.635 186.014 196.945C183.624 197.245 181.124 197.085 178.484 196.475C175.884 195.875 173.234 194.805 170.534 193.245L166.714 191.045L162.694 193.385L170.194 197.715L167.254 199.425L159.754 195.095L153.604 198.665L149.504 196.295L155.654 192.725L151.694 190.435L154.634 188.725L158.594 191.015L162.614 188.675L158.644 186.375ZM190.874 182.145L181.764 176.885L166.034 186.025L162.074 183.735L157.534 186.375L161.494 188.665L158.574 190.365L154.614 188.075L150.584 190.415L154.544 192.705L148.394 196.275L153.594 199.275L159.744 195.705L167.254 200.035L171.284 197.695L163.774 193.365L166.694 191.665L169.964 193.555C172.714 195.145 175.454 196.265 178.184 196.885C180.934 197.525 183.604 197.695 186.164 197.385H186.174C188.754 197.045 191.114 196.245 193.254 195.005C196.424 193.165 197.904 191.125 197.524 188.915C197.194 186.725 194.894 184.475 190.874 182.145Z" fill="#0053A3"/>
<path d="M222.704 207.205C222.554 208.235 222.304 209.255 221.954 210.275C220.124 215.685 215.604 220.845 208.394 225.035C188.964 236.335 157.244 236.335 137.684 225.035C130.284 220.765 125.674 215.485 123.844 209.955C123.484 208.875 123.234 207.785 123.094 206.685V193.035C123.234 194.135 123.484 195.235 123.844 196.325C123.984 196.775 124.154 197.225 124.334 197.665C124.504 198.075 124.694 198.495 124.894 198.905C127.174 203.495 131.434 207.815 137.684 211.425C157.244 222.725 188.964 222.715 208.394 211.425C214.514 207.855 218.704 203.595 220.954 199.065C221.154 198.655 221.344 198.255 221.514 197.845C221.674 197.455 221.824 197.065 221.954 196.675C222.294 195.675 222.544 194.675 222.704 193.665V202.085C222.964 203.795 222.964 205.505 222.704 207.205Z" fill="#CDE7F7"/>
<path d="M220.954 166.615C220.814 167.025 220.654 167.425 220.484 167.835C218.434 172.665 214.174 177.235 207.684 181.005C188.644 192.075 157.554 192.075 138.384 181.005C131.784 177.195 127.444 172.565 125.364 167.675C125.194 167.265 125.044 166.855 124.894 166.445C121.814 157.475 126.224 147.805 138.164 140.865C140.484 139.515 142.984 138.335 145.624 137.315C146.304 137.055 146.994 136.795 147.694 136.565C163.064 131.245 182.454 131.245 197.884 136.565C198.584 136.805 199.274 137.055 199.954 137.315C202.604 138.335 205.114 139.515 207.454 140.865C219.544 147.855 224.054 157.605 220.954 166.615Z" fill="white"/>
<path d="M222.704 158.475C222.554 157.445 222.304 156.425 221.954 155.415C220.094 149.935 215.504 144.705 208.164 140.465C206.134 139.295 203.974 138.245 201.714 137.325C201.074 137.055 200.424 136.805 199.774 136.575C183.354 130.475 162.144 130.475 145.794 136.575C145.144 136.805 144.504 137.055 143.874 137.325C141.624 138.245 139.474 139.295 137.454 140.465C130.184 144.685 125.644 149.915 123.844 155.365C123.484 156.445 123.234 157.535 123.094 158.635C122.904 160.095 122.904 161.565 123.094 163.025C123.234 164.125 123.484 165.225 123.844 166.315C123.984 166.765 124.154 167.215 124.334 167.655C124.504 168.065 124.694 168.485 124.894 168.895C127.174 173.485 131.434 177.805 137.684 181.415C157.244 192.715 188.964 192.705 208.394 181.415C214.514 177.855 218.704 173.595 220.954 169.065C221.154 168.655 221.344 168.255 221.514 167.845C221.674 167.455 221.824 167.065 221.954 166.675C222.294 165.675 222.544 164.675 222.704 163.665C222.964 161.935 222.974 160.185 222.704 158.475ZM220.954 166.615C220.814 167.025 220.654 167.425 220.484 167.835C218.434 172.665 214.174 177.235 207.684 181.005C188.644 192.075 157.554 192.075 138.384 181.005C131.784 177.195 127.444 172.565 125.364 167.675C125.194 167.265 125.044 166.855 124.894 166.445C121.814 157.475 126.224 147.805 138.164 140.865C140.484 139.515 142.984 138.335 145.624 137.315C146.304 137.055 146.994 136.795 147.694 136.565C163.064 131.245 182.454 131.245 197.884 136.565C198.584 136.805 199.274 137.055 199.954 137.315C202.604 138.335 205.114 139.515 207.454 140.865C219.544 147.855 224.054 157.605 220.954 166.615Z" fill="#0053A3"/>
<path d="M186.524 154.255L182.434 151.895L170.134 159.045L173.354 160.905C175.204 161.975 176.964 162.765 178.634 163.265C180.334 163.795 181.984 163.995 183.584 163.865C185.184 163.745 186.764 163.225 188.334 162.315C190.384 161.125 191.264 159.875 190.984 158.555C190.704 157.245 189.224 155.815 186.524 154.255ZM171.234 159.035L182.434 152.525L185.974 154.575C188.624 156.105 189.974 157.455 190.214 158.615C190.464 159.755 189.714 160.875 187.784 161.995C186.294 162.865 184.854 163.315 183.474 163.415C182.064 163.525 180.584 163.345 178.994 162.855C177.424 162.375 175.724 161.625 173.904 160.565L171.234 159.035ZM158.644 156.375L162.074 154.385L166.034 156.675L181.764 147.535L190.324 152.475C194.294 154.765 196.444 156.925 196.754 158.955C197.094 161.005 195.744 162.915 192.704 164.685C190.654 165.875 188.424 166.635 186.014 166.945C183.624 167.245 181.124 167.085 178.484 166.475C175.884 165.875 173.234 164.805 170.534 163.245L166.714 161.045L162.694 163.385L170.194 167.715L167.254 169.425L159.754 165.095L153.604 168.665L149.504 166.295L155.654 162.725L151.694 160.435L154.634 158.725L158.594 161.015L162.614 158.675L158.644 156.375ZM190.874 152.145L181.764 146.885L166.034 156.025L162.074 153.735L157.534 156.375L161.494 158.665L158.574 160.365L154.614 158.075L150.584 160.415L154.544 162.705L148.394 166.275L153.594 169.275L159.744 165.705L167.254 170.035L171.284 167.695L163.774 163.365L166.694 161.665L169.964 163.555C172.714 165.145 175.454 166.265 178.184 166.885C180.934 167.525 183.604 167.695 186.164 167.385H186.174C188.754 167.045 191.114 166.245 193.254 165.005C196.424 163.165 197.904 161.125 197.524 158.915C197.194 156.725 194.894 154.475 190.874 152.145Z" fill="#0053A3"/>
<path d="M222.704 177.205C222.554 178.235 222.304 179.255 221.954 180.275C220.124 185.685 215.604 190.845 208.394 195.035C188.964 206.335 157.244 206.335 137.684 195.035C130.284 190.765 125.674 185.485 123.844 179.955C123.484 178.875 123.234 177.785 123.094 176.685V163.035C123.234 164.135 123.484 165.235 123.844 166.325C123.984 166.775 124.154 167.225 124.334 167.665C124.504 168.075 124.694 168.495 124.894 168.905C127.174 173.495 131.434 177.815 137.684 181.425C157.244 192.725 188.964 192.715 208.394 181.425C214.514 177.855 218.704 173.595 220.954 169.065C221.154 168.655 221.344 168.255 221.514 167.845C221.674 167.455 221.824 167.065 221.954 166.675C222.294 165.675 222.544 164.675 222.704 163.665V172.085C222.964 173.795 222.964 175.505 222.704 177.205Z" fill="#CDE7F7"/>
<path d="M355.905 196.618C355.765 197.028 355.605 197.428 355.435 197.838C353.385 202.668 349.125 207.238 342.635 211.008C323.595 222.078 292.505 222.078 273.335 211.008C266.735 207.198 262.395 202.568 260.315 197.678C260.145 197.268 259.995 196.858 259.845 196.448C256.765 187.478 261.175 177.808 273.115 170.868C275.435 169.518 277.935 168.338 280.575 167.318C281.255 167.058 281.945 166.798 282.645 166.568C298.015 161.248 317.405 161.248 332.835 166.568C333.535 166.808 334.225 167.058 334.905 167.318C337.555 168.338 340.065 169.518 342.405 170.868C354.495 177.858 359.005 187.608 355.905 196.618Z" fill="white"/>
<path d="M357.655 188.478C357.505 187.448 357.255 186.428 356.905 185.418C355.045 179.938 350.455 174.708 343.115 170.468C341.085 169.298 338.925 168.248 336.665 167.328C336.025 167.058 335.375 166.808 334.725 166.578C318.305 160.478 297.095 160.478 280.745 166.578C280.095 166.808 279.455 167.058 278.825 167.328C276.575 168.248 274.425 169.298 272.405 170.468C265.135 174.688 260.595 179.918 258.795 185.368C258.435 186.448 258.185 187.538 258.045 188.638C257.855 190.098 257.855 191.568 258.045 193.028C258.185 194.128 258.435 195.228 258.795 196.318C258.935 196.768 259.105 197.218 259.285 197.658C259.455 198.068 259.645 198.488 259.845 198.898C262.125 203.488 266.385 207.808 272.635 211.418C292.195 222.718 323.915 222.708 343.345 211.418C349.465 207.858 353.655 203.598 355.905 199.068C356.105 198.658 356.295 198.258 356.465 197.848C356.625 197.458 356.775 197.068 356.905 196.678C357.245 195.678 357.495 194.678 357.655 193.668C357.915 191.938 357.925 190.188 357.655 188.478ZM355.905 196.618C355.765 197.028 355.605 197.428 355.435 197.838C353.385 202.668 349.125 207.238 342.635 211.008C323.595 222.078 292.505 222.078 273.335 211.008C266.735 207.198 262.395 202.568 260.315 197.678C260.145 197.268 259.995 196.858 259.845 196.448C256.765 187.478 261.175 177.808 273.115 170.868C275.435 169.518 277.935 168.338 280.575 167.318C281.255 167.058 281.945 166.798 282.645 166.568C298.015 161.248 317.405 161.248 332.835 166.568C333.535 166.808 334.225 167.058 334.905 167.318C337.555 168.338 340.065 169.518 342.405 170.868C354.495 177.858 359.005 187.608 355.905 196.618Z" fill="#0053A3"/>
<path d="M321.475 184.258L317.385 181.898L305.085 189.048L308.305 190.908C310.155 191.978 311.915 192.768 313.585 193.268C315.285 193.798 316.935 193.998 318.535 193.868C320.135 193.748 321.715 193.228 323.285 192.318C325.335 191.128 326.215 189.878 325.935 188.558C325.655 187.248 324.175 185.818 321.475 184.258ZM306.185 189.038L317.385 182.528L320.925 184.578C323.575 186.108 324.925 187.458 325.165 188.618C325.415 189.758 324.665 190.878 322.735 191.998C321.245 192.868 319.805 193.318 318.425 193.418C317.015 193.528 315.535 193.348 313.945 192.858C312.375 192.378 310.675 191.628 308.855 190.568L306.185 189.038ZM293.595 186.378L297.025 184.388L300.985 186.678L316.715 177.538L325.275 182.478C329.245 184.768 331.395 186.928 331.705 188.958C332.045 191.008 330.695 192.918 327.655 194.688C325.605 195.878 323.375 196.638 320.965 196.948C318.575 197.248 316.075 197.088 313.435 196.478C310.835 195.878 308.185 194.808 305.485 193.248L301.665 191.048L297.645 193.388L305.145 197.718L302.205 199.428L294.705 195.098L288.555 198.668L284.455 196.298L290.605 192.728L286.645 190.438L289.585 188.728L293.545 191.018L297.565 188.678L293.595 186.378ZM325.825 182.148L316.715 176.888L300.985 186.028L297.025 183.738L292.485 186.378L296.445 188.668L293.525 190.368L289.565 188.078L285.535 190.418L289.495 192.708L283.345 196.278L288.545 199.278L294.695 195.708L302.205 200.038L306.235 197.698L298.725 193.368L301.645 191.668L304.915 193.558C307.665 195.148 310.405 196.268 313.135 196.888C315.885 197.528 318.555 197.698 321.115 197.388H321.125C323.705 197.048 326.065 196.248 328.205 195.008C331.375 193.168 332.855 191.128 332.475 188.918C332.145 186.728 329.845 184.478 325.825 182.148Z" fill="#0053A3"/>
<path d="M357.655 207.208C357.505 208.238 357.255 209.258 356.905 210.278C355.075 215.688 350.555 220.848 343.345 225.038C323.915 236.338 292.195 236.338 272.635 225.038C265.235 220.768 260.625 215.488 258.795 209.958C258.435 208.878 258.185 207.788 258.045 206.688V193.038C258.185 194.138 258.435 195.238 258.795 196.328C258.935 196.778 259.105 197.228 259.285 197.668C259.455 198.078 259.645 198.498 259.845 198.908C262.125 203.498 266.385 207.818 272.635 211.428C292.195 222.728 323.915 222.718 343.345 211.428C349.465 207.858 353.655 203.598 355.905 199.068C356.105 198.658 356.295 198.258 356.465 197.848C356.625 197.458 356.775 197.068 356.905 196.678C357.245 195.678 357.495 194.678 357.655 193.668V202.088C357.915 203.798 357.915 205.508 357.655 207.208Z" fill="#CDE7F7"/>
<path d="M355.905 166.618C355.765 167.028 355.605 167.428 355.435 167.838C353.385 172.668 349.125 177.238 342.635 181.008C323.595 192.078 292.505 192.078 273.335 181.008C266.735 177.198 262.395 172.568 260.315 167.678C260.145 167.268 259.995 166.858 259.845 166.448C256.765 157.478 261.175 147.808 273.115 140.868C275.435 139.518 277.935 138.338 280.575 137.318C281.255 137.058 281.945 136.798 282.645 136.568C298.015 131.248 317.405 131.248 332.835 136.568C333.535 136.808 334.225 137.058 334.905 137.318C337.555 138.338 340.065 139.518 342.405 140.868C354.495 147.858 359.005 157.608 355.905 166.618Z" fill="white"/>
<path d="M357.655 158.478C357.505 157.448 357.255 156.428 356.905 155.418C355.045 149.938 350.455 144.708 343.115 140.468C341.085 139.298 338.925 138.248 336.665 137.328C336.025 137.058 335.375 136.808 334.725 136.578C318.305 130.478 297.095 130.478 280.745 136.578C280.095 136.808 279.455 137.058 278.825 137.328C276.575 138.248 274.425 139.298 272.405 140.468C265.135 144.688 260.595 149.918 258.795 155.368C258.435 156.448 258.185 157.538 258.045 158.638C257.855 160.098 257.855 161.568 258.045 163.028C258.185 164.128 258.435 165.228 258.795 166.318C258.935 166.768 259.105 167.218 259.285 167.658C259.455 168.068 259.645 168.488 259.845 168.898C262.125 173.488 266.385 177.808 272.635 181.418C292.195 192.718 323.915 192.708 343.345 181.418C349.465 177.858 353.655 173.598 355.905 169.068C356.105 168.658 356.295 168.258 356.465 167.848C356.625 167.458 356.775 167.068 356.905 166.678C357.245 165.678 357.495 164.678 357.655 163.668C357.915 161.938 357.925 160.188 357.655 158.478ZM355.905 166.618C355.765 167.028 355.605 167.428 355.435 167.838C353.385 172.668 349.125 177.238 342.635 181.008C323.595 192.078 292.505 192.078 273.335 181.008C266.735 177.198 262.395 172.568 260.315 167.678C260.145 167.268 259.995 166.858 259.845 166.448C256.765 157.478 261.175 147.808 273.115 140.868C275.435 139.518 277.935 138.338 280.575 137.318C281.255 137.058 281.945 136.798 282.645 136.568C298.015 131.248 317.405 131.248 332.835 136.568C333.535 136.808 334.225 137.058 334.905 137.318C337.555 138.338 340.065 139.518 342.405 140.868C354.495 147.858 359.005 157.608 355.905 166.618Z" fill="#0053A3"/>
<path d="M321.475 154.258L317.385 151.898L305.085 159.048L308.305 160.908C310.155 161.978 311.915 162.768 313.585 163.268C315.285 163.798 316.935 163.998 318.535 163.868C320.135 163.748 321.715 163.228 323.285 162.318C325.335 161.128 326.215 159.878 325.935 158.558C325.655 157.248 324.175 155.818 321.475 154.258ZM306.185 159.038L317.385 152.528L320.925 154.578C323.575 156.108 324.925 157.458 325.165 158.618C325.415 159.758 324.665 160.878 322.735 161.998C321.245 162.868 319.805 163.318 318.425 163.418C317.015 163.528 315.535 163.348 313.945 162.858C312.375 162.378 310.675 161.628 308.855 160.568L306.185 159.038ZM293.595 156.378L297.025 154.388L300.985 156.678L316.715 147.538L325.275 152.478C329.245 154.768 331.395 156.928 331.705 158.958C332.045 161.008 330.695 162.918 327.655 164.688C325.605 165.878 323.375 166.638 320.965 166.948C318.575 167.248 316.075 167.088 313.435 166.478C310.835 165.878 308.185 164.808 305.485 163.248L301.665 161.048L297.645 163.388L305.145 167.718L302.205 169.428L294.705 165.098L288.555 168.668L284.455 166.298L290.605 162.728L286.645 160.438L289.585 158.728L293.545 161.018L297.565 158.678L293.595 156.378ZM325.825 152.148L316.715 146.888L300.985 156.028L297.025 153.738L292.485 156.378L296.445 158.668L293.525 160.368L289.565 158.078L285.535 160.418L289.495 162.708L283.345 166.278L288.545 169.278L294.695 165.708L302.205 170.038L306.235 167.698L298.725 163.368L301.645 161.668L304.915 163.558C307.665 165.148 310.405 166.268 313.135 166.888C315.885 167.528 318.555 167.698 321.115 167.388H321.125C323.705 167.048 326.065 166.248 328.205 165.008C331.375 163.168 332.855 161.128 332.475 158.918C332.145 156.728 329.845 154.478 325.825 152.148Z" fill="#0053A3"/>
<path d="M357.655 177.208C357.505 178.238 357.255 179.258 356.905 180.278C355.075 185.688 350.555 190.848 343.345 195.038C323.915 206.338 292.195 206.338 272.635 195.038C265.235 190.768 260.625 185.488 258.795 179.958C258.435 178.878 258.185 177.788 258.045 176.688V163.038C258.185 164.138 258.435 165.238 258.795 166.328C258.935 166.778 259.105 167.228 259.285 167.668C259.455 168.078 259.645 168.498 259.845 168.908C262.125 173.498 266.385 177.818 272.635 181.428C292.195 192.728 323.915 192.718 343.345 181.428C349.465 177.858 353.655 173.598 355.905 169.068C356.105 168.658 356.295 168.258 356.465 167.848C356.625 167.458 356.775 167.068 356.905 166.678C357.245 165.678 357.495 164.678 357.655 163.668V172.088C357.915 173.798 357.915 175.508 357.655 177.208Z" fill="#CDE7F7"/>
<path d="M354.563 116.8C354.322 117.16 354.064 117.505 353.794 117.857C350.563 121.992 345.266 125.304 338.021 127.266C316.765 133.03 286.734 124.984 271.082 109.329C265.693 103.941 262.7 98.3455 261.956 93.0838C261.898 92.6438 261.859 92.2089 261.82 91.774C261.167 82.3125 267.93 74.1134 281.259 70.5002C283.849 69.7967 286.569 69.3039 289.383 69.0019C290.108 68.9268 290.841 68.8542 291.577 68.8133C307.8 67.6526 326.53 72.6711 340.057 81.8034C340.671 82.2164 341.273 82.6365 341.862 83.0636C344.158 84.7347 346.277 86.5241 348.188 88.4338C358.057 98.3147 359.89 108.9 354.563 116.8Z" fill="white"/>
<path d="M358.361 109.391C358.482 108.357 358.505 107.307 358.428 106.241C358.05 100.466 354.97 94.2264 348.977 88.2312C347.319 86.5756 345.505 85.0024 343.56 83.5288C343.012 83.1023 342.448 82.6926 341.88 82.3022C327.598 72.1603 307.111 66.6707 289.739 68.3312C289.052 68.3851 288.369 68.461 287.691 68.5587C285.279 68.865 282.931 69.3228 280.677 69.9301C272.562 72.1247 266.823 76.0014 263.674 80.7999C263.047 81.7499 262.523 82.738 262.103 83.7643C261.542 85.1254 261.162 86.5453 260.967 88.0047C260.818 89.1035 260.774 90.2307 260.84 91.3767C260.859 91.8476 260.907 92.3263 260.967 92.7979C261.025 93.2379 261.099 93.6928 261.187 94.1406C262.201 99.1643 265.198 104.44 270.3 109.544C286.269 125.522 316.911 133.722 338.601 127.845C345.434 125.991 350.584 122.96 353.929 119.167C354.229 118.823 354.516 118.485 354.786 118.133C355.042 117.798 355.287 117.46 355.514 117.117C356.101 116.239 356.601 115.338 357.017 114.404C357.716 112.8 358.179 111.112 358.361 109.391ZM354.564 116.8C354.322 117.16 354.064 117.505 353.794 117.857C350.564 121.992 345.266 125.304 338.021 127.266C316.765 133.03 286.734 124.984 271.083 109.329C265.694 103.941 262.7 98.3455 261.956 93.0838C261.898 92.6438 261.859 92.2089 261.821 91.7741C261.167 82.3126 267.93 74.1134 281.259 70.5002C283.849 69.7967 286.57 69.3039 289.384 69.002C290.108 68.9268 290.842 68.8543 291.577 68.8133C307.8 67.6526 326.53 72.6711 340.057 81.8034C340.671 82.2164 341.273 82.6365 341.862 83.0636C344.158 84.7347 346.277 86.5242 348.188 88.4338C358.057 98.3147 359.89 108.9 354.564 116.8Z" fill="#0053A3"/>
<path d="M324.506 95.9504L321.166 92.6123L307.435 96.3352L310.063 98.9652C311.573 100.478 313.069 101.696 314.553 102.611C316.058 103.563 317.6 104.183 319.179 104.472C320.755 104.77 322.416 104.677 324.168 104.204C326.456 103.585 327.63 102.606 327.701 101.258C327.769 99.9204 326.71 98.1561 324.506 95.9504ZM308.5 96.6102L321.003 93.2208L323.892 96.1172C326.055 98.2809 327.01 99.9343 326.942 101.117C326.888 102.283 325.874 103.17 323.72 103.753C322.055 104.208 320.548 104.269 319.189 104.009C317.798 103.75 316.416 103.193 315.007 102.308C313.614 101.438 312.166 100.274 310.683 98.7791L308.5 96.6102ZM297.027 90.7823L300.855 89.7479L304.088 92.9848L321.647 88.2274L328.637 95.2146C331.879 98.4541 333.397 101.097 333.171 103.138C332.969 105.206 331.17 106.702 327.776 107.625C325.488 108.243 323.137 108.4 320.729 108.076C318.343 107.747 315.969 106.946 313.577 105.673C311.221 104.421 308.938 102.701 306.734 100.496L303.613 97.3818L299.125 98.6017L305.249 104.725L301.966 105.616L295.842 99.4925L288.978 101.349L285.631 97.9987L292.495 96.1421L289.263 92.9052L292.545 92.0144L295.778 95.2513L300.267 94.0314L297.027 90.7823ZM329.254 95.0382L321.815 87.5996L304.256 92.3569L301.023 89.12L295.955 90.495L299.187 93.7319L295.927 94.6182L292.694 91.3813L288.196 92.5986L291.428 95.8355L284.564 97.6921L288.81 101.936L295.675 100.079L301.808 106.205L306.307 104.988L300.173 98.8619L303.434 97.9755L306.103 100.647C308.348 102.895 310.705 104.686 313.181 105.992C315.672 107.321 318.207 108.177 320.76 108.54L320.769 108.542C323.349 108.882 325.836 108.72 328.224 108.076C331.762 107.119 333.72 105.532 333.925 103.299C334.173 101.098 332.534 98.3292 329.254 95.0382Z" fill="#0053A3"/>
<path d="M353.513 127.483C353.101 128.439 352.596 129.359 351.994 130.254C348.826 135.006 343.124 138.82 335.076 141.001C313.383 146.887 282.744 138.678 266.775 122.7C260.732 116.66 257.646 110.367 257.31 104.552C257.241 103.416 257.282 102.298 257.431 101.199L260.964 88.0144C260.815 89.1132 260.772 90.2404 260.837 91.3864C260.856 91.8573 260.904 92.336 260.964 92.8076C261.022 93.2476 261.097 93.7025 261.184 94.1503C262.198 99.174 265.195 104.449 270.298 109.554C286.266 125.531 316.908 133.731 338.598 127.855C345.434 125.991 350.583 122.96 353.929 119.167C354.228 118.823 354.516 118.486 354.786 118.133C355.041 117.798 355.287 117.46 355.514 117.117C356.101 116.239 356.601 115.338 357.017 114.404L354.838 122.537C354.646 124.256 354.204 125.908 353.513 127.483Z" fill="#CDE7F7"/>
<path d="M348.083 30.9518C348.166 31.3768 348.228 31.8033 348.286 32.2433C348.925 37.4512 347.521 43.539 343.785 50.0489C332.831 69.1558 305.907 84.7008 283.77 84.6989C276.149 84.6993 270.076 82.8596 265.829 79.6648C265.477 79.3947 265.142 79.1146 264.807 78.8346C257.655 72.6063 256.639 62.0268 263.509 50.0466C264.843 47.7175 266.419 45.4456 268.195 43.2422C268.654 42.6771 269.121 42.1069 269.613 41.5577C280.263 29.2655 297.056 19.5705 313.078 16.4627C313.805 16.3206 314.527 16.1921 315.246 16.0772C318.051 15.6356 320.815 15.4025 323.516 15.4016C337.481 15.4101 346.262 21.5989 348.083 30.9518Z" fill="white"/>
<path d="M345.528 23.0274C344.883 22.2104 344.157 21.452 343.349 20.7523C338.998 16.9365 332.408 14.7022 323.931 14.7002C321.588 14.702 319.192 14.8727 316.775 15.2059C316.086 15.2921 315.398 15.4006 314.72 15.5264C297.45 18.4536 279.082 29.0586 267.972 42.5164C267.524 43.0406 267.095 43.5771 266.684 44.1259C265.196 46.0477 263.859 48.032 262.694 50.0552C258.508 57.3449 257.192 64.1442 258.358 69.764C258.586 70.8793 258.914 71.9483 259.343 72.9709C259.909 74.3303 260.644 75.6034 261.538 76.7728C262.209 77.6554 262.976 78.483 263.833 79.247C264.179 79.5667 264.551 79.8714 264.927 80.1625C265.279 80.4325 265.654 80.7013 266.032 80.9563C270.302 83.7914 276.151 85.4026 283.369 85.404C305.958 85.4101 333.423 69.5414 344.605 50.049C348.125 43.9059 349.624 38.1217 349.307 33.0736C349.276 32.6185 349.24 32.1771 349.182 31.737C349.126 31.3193 349.061 30.9065 348.979 30.5038C348.773 29.4677 348.489 28.4767 348.123 27.522C347.483 25.8938 346.617 24.3733 345.528 23.0274ZM348.082 30.9518C348.166 31.3769 348.228 31.8033 348.285 32.2434C348.925 37.4513 347.521 43.539 343.785 50.0489C332.831 69.1558 305.906 84.7008 283.77 84.6989C276.149 84.6993 270.075 82.8597 265.829 79.6648C265.477 79.3947 265.142 79.1147 264.807 78.8346C257.655 72.6063 256.639 62.0269 263.509 50.0467C264.843 47.7175 266.418 45.4456 268.195 43.2423C268.654 42.6771 269.121 42.1069 269.612 41.5577C280.263 29.2655 297.056 19.5705 313.078 16.4627C313.805 16.3206 314.527 16.1921 315.246 16.0773C318.051 15.6356 320.815 15.4025 323.516 15.4016C337.481 15.4102 346.262 21.5989 348.082 30.9518Z" fill="#0053A3"/>
<path d="M312.085 37.4627L307.363 37.4639L300.286 49.806L304.005 49.8068C306.142 49.8085 308.061 49.6126 309.758 49.2106C311.495 48.8196 313.024 48.1678 314.344 47.2553C315.67 46.3513 316.778 45.111 317.683 43.5379C318.863 41.4823 319 39.9598 318.098 38.9567C317.2 37.9622 315.204 37.4637 312.085 37.4627ZM301.234 49.2474L307.678 38.0095L311.769 38.0149C314.829 38.0149 316.673 38.509 317.461 39.3936C318.248 40.2559 318.158 41.6008 317.047 43.5358C316.191 45.0342 315.169 46.1439 314.024 46.9205C312.858 47.7208 311.486 48.3049 309.864 48.6756C308.265 49.0449 306.417 49.2454 304.311 49.2374L301.234 49.2474ZM289.001 53.2387L290.976 49.8003L295.551 49.8035L304.603 34.0231L314.486 34.0212C319.069 34.0194 322.011 34.815 323.295 36.4181C324.614 38.0234 324.4 40.3525 322.652 43.4054C321.472 45.461 319.921 47.2341 317.989 48.7076C316.069 50.1624 313.824 51.2739 311.233 52.0656C308.681 52.846 305.851 53.2443 302.733 53.2433L298.324 53.2481L296.013 57.2846L304.673 57.2845L302.982 60.2354L294.322 60.2355L290.781 66.4022L286.045 66.3997L289.586 60.233L285.012 60.2298L286.703 57.2789L291.277 57.2821L293.589 53.2456L289.001 53.2387ZM314.798 33.4604L304.278 33.4601L295.226 49.2406L290.651 49.2374L288.039 53.7937L292.614 53.7969L290.935 56.7292L286.361 56.726L284.041 60.7675L288.615 60.7707L285.074 66.9374L291.077 66.9355L294.618 60.7687L303.287 60.7636L305.607 56.7221L296.938 56.7272L298.617 53.795L302.394 53.7968C305.571 53.7988 308.504 53.3987 311.178 52.5706C313.879 51.7499 316.277 50.5621 318.339 49.0137L318.347 49.0087C320.412 47.4242 322.056 45.5514 323.289 43.4075C325.114 40.229 325.376 37.7223 323.942 35.9984C322.561 34.2668 319.444 33.4683 314.798 33.4604Z" fill="#0053A3"/>
<path d="M354.893 39.2481C355.278 40.2151 355.572 41.2234 355.779 42.2818C356.899 47.882 355.564 54.6107 351.415 61.8443C340.239 81.3454 312.768 97.2054 290.179 97.1993C281.635 97.2014 275.003 94.9338 270.653 91.0596C269.801 90.3043 269.04 89.4854 268.368 88.6027L261.543 76.7815C262.215 77.6641 262.981 78.4918 263.838 79.2557C264.184 79.5754 264.556 79.8801 264.932 80.1712C265.285 80.4413 265.659 80.71 266.037 80.9651C270.307 83.8001 276.156 85.4113 283.374 85.4127C305.963 85.4188 333.429 69.5501 344.61 50.0577C348.126 43.906 349.624 38.1217 349.308 33.0736C349.276 32.6186 349.24 32.1771 349.183 31.7371C349.126 31.3193 349.061 30.9066 348.979 30.5038C348.773 29.4678 348.49 28.4768 348.123 27.5221L352.333 34.814C353.413 36.1649 354.268 37.6458 354.893 39.2481Z" fill="#CDE7F7"/>
<path d="M98.0027 196.615C97.8627 197.025 97.7027 197.425 97.5327 197.835C95.4827 202.665 91.2227 207.235 84.7327 211.005C65.6927 222.075 34.6027 222.075 15.4327 211.005C8.83272 207.195 4.49272 202.565 2.41272 197.675C2.24272 197.265 2.09272 196.855 1.94272 196.445C-1.13728 187.475 3.27272 177.805 15.2127 170.865C17.5327 169.515 20.0327 168.335 22.6727 167.315C23.3527 167.055 24.0427 166.795 24.7427 166.565C40.1127 161.245 59.5027 161.245 74.9327 166.565C75.6327 166.805 76.3227 167.055 77.0027 167.315C79.6527 168.335 82.1627 169.515 84.5027 170.865C96.5927 177.855 101.103 187.605 98.0027 196.615Z" fill="white"/>
<path d="M99.7525 188.475C99.6025 187.445 99.3525 186.425 99.0025 185.415C97.1425 179.935 92.5525 174.705 85.2125 170.465C83.1825 169.295 81.0225 168.245 78.7625 167.325C78.1225 167.055 77.4725 166.805 76.8225 166.575C60.4025 160.475 39.1925 160.475 22.8425 166.575C22.1925 166.805 21.5525 167.055 20.9225 167.325C18.6725 168.245 16.5225 169.295 14.5025 170.465C7.2325 174.685 2.6925 179.915 0.8925 185.365C0.5325 186.445 0.2825 187.535 0.1425 188.635C-0.0475 190.095 -0.0475 191.565 0.1425 193.025C0.2825 194.125 0.5325 195.225 0.8925 196.315C1.0325 196.765 1.2025 197.215 1.3825 197.655C1.5525 198.065 1.7425 198.485 1.9425 198.895C4.2225 203.485 8.4825 207.805 14.7325 211.415C34.2925 222.715 66.0125 222.705 85.4425 211.415C91.5625 207.855 95.7525 203.595 98.0025 199.065C98.2025 198.655 98.3925 198.255 98.5625 197.845C98.7225 197.455 98.8725 197.065 99.0025 196.675C99.3425 195.675 99.5925 194.675 99.7525 193.665C100.013 191.935 100.022 190.185 99.7525 188.475ZM98.0025 196.615C97.8625 197.025 97.7025 197.425 97.5325 197.835C95.4825 202.665 91.2225 207.235 84.7325 211.005C65.6925 222.075 34.6025 222.075 15.4325 211.005C8.8325 207.195 4.4925 202.565 2.4125 197.675C2.2425 197.265 2.0925 196.855 1.9425 196.445C-1.1375 187.475 3.2725 177.805 15.2125 170.865C17.5325 169.515 20.0325 168.335 22.6725 167.315C23.3525 167.055 24.0425 166.795 24.7425 166.565C40.1125 161.245 59.5025 161.245 74.9325 166.565C75.6325 166.805 76.3225 167.055 77.0025 167.315C79.6525 168.335 82.1625 169.515 84.5025 170.865C96.5925 177.855 101.103 187.605 98.0025 196.615Z" fill="#0053A3"/>
<path d="M63.5724 184.255L59.4824 181.895L47.1824 189.045L50.4024 190.905C52.2524 191.975 54.0124 192.765 55.6824 193.265C57.3824 193.795 59.0324 193.995 60.6324 193.865C62.2324 193.745 63.8124 193.225 65.3824 192.315C67.4324 191.125 68.3124 189.875 68.0324 188.555C67.7524 187.245 66.2724 185.815 63.5724 184.255ZM48.2824 189.035L59.4824 182.525L63.0224 184.575C65.6724 186.105 67.0224 187.455 67.2624 188.615C67.5124 189.755 66.7624 190.875 64.8324 191.995C63.3424 192.865 61.9024 193.315 60.5224 193.415C59.1124 193.525 57.6324 193.345 56.0424 192.855C54.4724 192.375 52.7724 191.625 50.9524 190.565L48.2824 189.035ZM35.6924 186.375L39.1224 184.385L43.0824 186.675L58.8124 177.535L67.3724 182.475C71.3424 184.765 73.4924 186.925 73.8024 188.955C74.1424 191.005 72.7924 192.915 69.7524 194.685C67.7024 195.875 65.4724 196.635 63.0624 196.945C60.6724 197.245 58.1724 197.085 55.5324 196.475C52.9324 195.875 50.2824 194.805 47.5824 193.245L43.7624 191.045L39.7424 193.385L47.2424 197.715L44.3024 199.425L36.8024 195.095L30.6524 198.665L26.5524 196.295L32.7024 192.725L28.7424 190.435L31.6824 188.725L35.6424 191.015L39.6624 188.675L35.6924 186.375ZM67.9224 182.145L58.8124 176.885L43.0824 186.025L39.1224 183.735L34.5824 186.375L38.5424 188.665L35.6224 190.365L31.6624 188.075L27.6324 190.415L31.5924 192.705L25.4424 196.275L30.6424 199.275L36.7924 195.705L44.3024 200.035L48.3324 197.695L40.8224 193.365L43.7424 191.665L47.0124 193.555C49.7624 195.145 52.5024 196.265 55.2324 196.885C57.9824 197.525 60.6524 197.695 63.2124 197.385H63.2224C65.8024 197.045 68.1624 196.245 70.3024 195.005C73.4724 193.165 74.9524 191.125 74.5724 188.915C74.2424 186.725 71.9424 184.475 67.9224 182.145Z" fill="#0053A3"/>
<path d="M99.7526 207.205C99.6026 208.235 99.3526 209.255 99.0026 210.275C97.1726 215.685 92.6526 220.845 85.4426 225.035C66.0126 236.335 34.2926 236.335 14.7326 225.035C7.33258 220.765 2.72258 215.485 0.892578 209.955C0.532578 208.875 0.282578 207.785 0.142578 206.685V193.035C0.282578 194.135 0.532578 195.235 0.892578 196.325C1.03258 196.775 1.20258 197.225 1.38258 197.665C1.55258 198.075 1.74258 198.495 1.94258 198.905C4.22258 203.495 8.48258 207.815 14.7326 211.425C34.2926 222.725 66.0126 222.715 85.4426 211.425C91.5626 207.855 95.7526 203.595 98.0026 199.065C98.2026 198.655 98.3926 198.255 98.5626 197.845C98.7226 197.455 98.8726 197.065 99.0026 196.675C99.3426 195.675 99.5926 194.675 99.7526 193.665V202.085C100.013 203.795 100.013 205.505 99.7526 207.205Z" fill="#CDE7F7"/>
</svg>
