<svg width="497" height="231" viewBox="0 0 497 231" fill="none" xmlns="http://www.w3.org/2000/svg">
<path d="M52.5 130.5L1 175V230.5H437.5V62L283 2L270 57.5L234 112.5H166.5C155.333 125.667 132.5 152.6 130.5 155C128.5 157.4 77.6667 139.667 52.5 130.5Z" fill="url(#paint0_linear_8_2839)"/>
<path d="M1 175L52.5 130.5C77.6667 139.667 128.5 157.4 130.5 155C132.5 152.6 155.333 125.667 166.5 112.5H234L270 57.5L283 2L437.5 62" stroke="#0053A3" stroke-width="2"/>
<path d="M446.003 155.654C445.863 156.064 445.703 156.464 445.533 156.874C443.483 161.704 439.223 166.274 432.733 170.044C413.693 181.114 382.603 181.114 363.433 170.044C356.833 166.234 352.493 161.604 350.413 156.714C350.243 156.304 350.093 155.894 349.943 155.484C346.863 146.514 351.273 136.844 363.213 129.904C365.533 128.554 368.033 127.374 370.673 126.354C371.353 126.094 372.043 125.834 372.743 125.604C388.113 120.284 407.503 120.284 422.933 125.604C423.633 125.844 424.323 126.094 425.003 126.354C427.653 127.374 430.163 128.554 432.503 129.904C444.593 136.894 449.103 146.644 446.003 155.654Z" fill="white"/>
<path d="M447.753 147.514C447.603 146.484 447.353 145.464 447.003 144.454C445.143 138.974 440.553 133.744 433.213 129.504C431.183 128.334 429.023 127.284 426.763 126.364C426.123 126.094 425.473 125.844 424.823 125.614C408.403 119.514 387.193 119.514 370.843 125.614C370.193 125.844 369.552 126.094 368.923 126.364C366.673 127.284 364.522 128.334 362.502 129.504C355.232 133.724 350.692 138.954 348.892 144.404C348.532 145.484 348.282 146.574 348.142 147.674C347.953 149.134 347.953 150.604 348.142 152.064C348.282 153.164 348.532 154.264 348.892 155.354C349.033 155.804 349.202 156.254 349.382 156.694C349.552 157.104 349.743 157.524 349.943 157.934C352.222 162.524 356.482 166.844 362.732 170.454C382.292 181.754 414.013 181.744 433.443 170.454C439.563 166.894 443.753 162.634 446.003 158.104C446.202 157.694 446.393 157.294 446.562 156.884C446.723 156.494 446.873 156.104 447.003 155.714C447.342 154.714 447.592 153.714 447.753 152.704C448.013 150.974 448.022 149.224 447.753 147.514ZM446.003 155.654C445.863 156.064 445.702 156.464 445.533 156.874C443.482 161.704 439.223 166.274 432.733 170.044C413.693 181.114 382.603 181.114 363.432 170.044C356.833 166.234 352.493 161.604 350.413 156.714C350.243 156.304 350.093 155.894 349.943 155.484C346.863 146.514 351.273 136.844 363.212 129.904C365.532 128.554 368.033 127.374 370.673 126.354C371.353 126.094 372.042 125.834 372.743 125.604C388.112 120.284 407.503 120.284 422.933 125.604C423.632 125.844 424.323 126.094 425.003 126.354C427.653 127.374 430.163 128.554 432.503 129.904C444.592 136.894 449.103 146.644 446.003 155.654Z" fill="#0053A3"/>
<path d="M411.572 143.294L407.482 140.934L395.182 148.084L398.402 149.944C400.252 151.014 402.012 151.804 403.682 152.304C405.382 152.834 407.032 153.034 408.632 152.904C410.232 152.784 411.812 152.264 413.382 151.354C415.432 150.164 416.312 148.914 416.032 147.594C415.752 146.284 414.272 144.854 411.572 143.294ZM396.282 148.074L407.482 141.564L411.022 143.614C413.672 145.144 415.022 146.494 415.262 147.654C415.512 148.794 414.762 149.914 412.832 151.034C411.342 151.904 409.902 152.354 408.522 152.454C407.112 152.564 405.632 152.384 404.042 151.894C402.472 151.414 400.772 150.664 398.952 149.604L396.282 148.074ZM383.692 145.414L387.122 143.424L391.082 145.714L406.812 136.574L415.372 141.514C419.342 143.804 421.492 145.964 421.802 147.994C422.142 150.044 420.792 151.954 417.752 153.724C415.702 154.914 413.472 155.674 411.062 155.984C408.672 156.284 406.172 156.124 403.532 155.514C400.932 154.914 398.282 153.844 395.582 152.284L391.762 150.084L387.742 152.424L395.242 156.754L392.302 158.464L384.802 154.134L378.652 157.704L374.552 155.334L380.702 151.764L376.742 149.474L379.682 147.764L383.642 150.054L387.662 147.714L383.692 145.414ZM415.922 141.184L406.812 135.924L391.082 145.064L387.122 142.774L382.582 145.414L386.542 147.704L383.622 149.404L379.662 147.114L375.632 149.454L379.592 151.744L373.442 155.314L378.642 158.314L384.792 154.744L392.302 159.074L396.332 156.734L388.822 152.404L391.742 150.704L395.012 152.594C397.762 154.184 400.502 155.304 403.232 155.924C405.982 156.564 408.652 156.734 411.212 156.424H411.222C413.802 156.084 416.162 155.284 418.302 154.044C421.472 152.204 422.952 150.164 422.572 147.954C422.242 145.764 419.942 143.514 415.922 141.184Z" fill="#0053A3"/>
<path d="M447.753 166.244C447.603 167.274 447.353 168.294 447.003 169.314C445.173 174.724 440.653 179.884 433.443 184.074C414.013 195.374 382.293 195.374 362.733 184.074C355.333 179.804 350.723 174.524 348.893 168.994C348.533 167.914 348.283 166.824 348.143 165.724V152.074C348.283 153.174 348.533 154.274 348.893 155.364C349.033 155.814 349.203 156.264 349.383 156.704C349.553 157.114 349.743 157.534 349.943 157.944C352.223 162.534 356.483 166.854 362.733 170.464C382.293 181.764 414.013 181.754 433.443 170.464C439.563 166.894 443.753 162.634 446.003 158.104C446.203 157.694 446.393 157.294 446.563 156.884C446.723 156.494 446.873 156.104 447.003 155.714C447.343 154.714 447.593 153.714 447.753 152.704V161.124C448.013 162.834 448.013 164.544 447.753 166.244Z" fill="#CDE7F7"/>
<path d="M446.003 130.144C445.863 130.554 445.703 130.954 445.533 131.364C443.483 136.194 439.223 140.764 432.733 144.534C413.693 155.604 382.603 155.604 363.433 144.534C356.833 140.724 352.493 136.094 350.413 131.204C350.243 130.794 350.093 130.384 349.943 129.974C346.863 121.004 351.273 111.334 363.213 104.394C365.533 103.044 368.033 101.864 370.673 100.844C371.353 100.584 372.043 100.324 372.743 100.094C388.113 94.7742 407.503 94.7742 422.933 100.094C423.633 100.334 424.323 100.584 425.003 100.844C427.653 101.864 430.163 103.044 432.503 104.394C444.593 111.384 449.103 121.134 446.003 130.144Z" fill="white"/>
<path d="M447.753 122.004C447.603 120.974 447.353 119.954 447.003 118.944C445.143 113.464 440.553 108.234 433.213 103.994C431.183 102.824 429.023 101.774 426.763 100.854C426.123 100.584 425.473 100.334 424.823 100.104C408.403 94.0043 387.193 94.0043 370.843 100.104C370.193 100.334 369.552 100.584 368.923 100.854C366.673 101.774 364.522 102.824 362.502 103.994C355.232 108.214 350.692 113.444 348.892 118.894C348.532 119.974 348.282 121.064 348.142 122.164C347.953 123.624 347.953 125.094 348.142 126.554C348.282 127.654 348.532 128.754 348.892 129.844C349.033 130.294 349.202 130.744 349.382 131.184C349.552 131.594 349.743 132.014 349.943 132.424C352.222 137.014 356.482 141.334 362.732 144.944C382.292 156.244 414.013 156.234 433.443 144.944C439.563 141.384 443.753 137.124 446.003 132.594C446.202 132.184 446.393 131.784 446.562 131.374C446.723 130.984 446.873 130.594 447.003 130.204C447.342 129.204 447.592 128.204 447.753 127.194C448.013 125.464 448.022 123.714 447.753 122.004ZM446.003 130.144C445.863 130.554 445.702 130.954 445.533 131.364C443.482 136.194 439.223 140.764 432.733 144.534C413.693 155.604 382.603 155.604 363.432 144.534C356.833 140.724 352.493 136.094 350.413 131.204C350.243 130.794 350.093 130.384 349.943 129.974C346.863 121.004 351.273 111.334 363.212 104.394C365.532 103.044 368.033 101.864 370.673 100.844C371.353 100.584 372.042 100.324 372.743 100.094C388.112 94.7743 407.503 94.7743 422.933 100.094C423.632 100.334 424.323 100.584 425.003 100.844C427.653 101.864 430.163 103.044 432.503 104.394C444.592 111.384 449.103 121.134 446.003 130.144Z" fill="#0053A3"/>
<path d="M411.572 117.784L407.482 115.424L395.182 122.574L398.402 124.434C400.252 125.504 402.012 126.294 403.682 126.794C405.382 127.324 407.032 127.524 408.632 127.394C410.232 127.274 411.812 126.754 413.382 125.844C415.432 124.654 416.312 123.404 416.032 122.084C415.752 120.774 414.272 119.344 411.572 117.784ZM396.282 122.564L407.482 116.054L411.022 118.104C413.672 119.634 415.022 120.984 415.262 122.144C415.512 123.284 414.762 124.404 412.832 125.524C411.342 126.394 409.902 126.844 408.522 126.944C407.112 127.054 405.632 126.874 404.042 126.384C402.472 125.904 400.772 125.154 398.952 124.094L396.282 122.564ZM383.692 119.904L387.122 117.914L391.082 120.204L406.812 111.064L415.372 116.004C419.342 118.294 421.492 120.454 421.802 122.484C422.142 124.534 420.792 126.444 417.752 128.214C415.702 129.404 413.472 130.164 411.062 130.474C408.672 130.774 406.172 130.614 403.532 130.004C400.932 129.404 398.282 128.334 395.582 126.774L391.762 124.574L387.742 126.914L395.242 131.244L392.302 132.954L384.802 128.624L378.652 132.194L374.552 129.824L380.702 126.254L376.742 123.964L379.682 122.254L383.642 124.544L387.662 122.204L383.692 119.904ZM415.922 115.674L406.812 110.414L391.082 119.554L387.122 117.264L382.582 119.904L386.542 122.194L383.622 123.894L379.662 121.604L375.632 123.944L379.592 126.234L373.442 129.804L378.642 132.804L384.792 129.234L392.302 133.564L396.332 131.224L388.822 126.894L391.742 125.194L395.012 127.084C397.762 128.674 400.502 129.794 403.232 130.414C405.982 131.054 408.652 131.224 411.212 130.914H411.222C413.802 130.574 416.162 129.774 418.302 128.534C421.472 126.694 422.952 124.654 422.572 122.444C422.242 120.254 419.942 118.004 415.922 115.674Z" fill="#0053A3"/>
<path d="M447.753 140.734C447.603 141.764 447.353 142.784 447.003 143.804C445.173 149.214 440.653 154.374 433.443 158.564C414.013 169.864 382.293 169.864 362.733 158.564C355.333 154.294 350.723 149.014 348.893 143.484C348.533 142.404 348.283 141.314 348.143 140.214V126.564C348.283 127.664 348.533 128.764 348.893 129.854C349.033 130.304 349.203 130.754 349.383 131.194C349.553 131.604 349.743 132.024 349.943 132.434C352.223 137.024 356.483 141.344 362.733 144.954C382.293 156.254 414.013 156.244 433.443 144.954C439.563 141.384 443.753 137.124 446.003 132.594C446.203 132.184 446.393 131.784 446.563 131.374C446.723 130.984 446.873 130.594 447.003 130.204C447.343 129.204 447.593 128.204 447.753 127.194V135.614C448.013 137.324 448.013 139.034 447.753 140.734Z" fill="#CDE7F7"/>
<path d="M446.003 104.634C445.863 105.044 445.703 105.444 445.533 105.854C443.483 110.684 439.223 115.254 432.733 119.024C413.693 130.094 382.603 130.094 363.433 119.024C356.833 115.214 352.493 110.584 350.413 105.694C350.243 105.284 350.093 104.874 349.943 104.464C346.863 95.4945 351.273 85.8245 363.213 78.8845C365.533 77.5345 368.033 76.3545 370.673 75.3345C371.353 75.0745 372.043 74.8145 372.743 74.5845C388.113 69.2645 407.503 69.2645 422.933 74.5845C423.633 74.8245 424.323 75.0745 425.003 75.3345C427.653 76.3545 430.163 77.5345 432.503 78.8845C444.593 85.8745 449.103 95.6245 446.003 104.634Z" fill="white"/>
<path d="M447.753 96.4945C447.603 95.4645 447.353 94.4445 447.003 93.4345C445.143 87.9545 440.553 82.7245 433.213 78.4845C431.183 77.3145 429.023 76.2645 426.763 75.3445C426.123 75.0745 425.473 74.8245 424.823 74.5945C408.403 68.4945 387.193 68.4945 370.843 74.5945C370.193 74.8245 369.552 75.0745 368.923 75.3445C366.673 76.2645 364.522 77.3145 362.502 78.4845C355.232 82.7045 350.692 87.9345 348.892 93.3845C348.532 94.4645 348.282 95.5545 348.142 96.6545C347.953 98.1145 347.953 99.5845 348.142 101.045C348.282 102.145 348.532 103.245 348.892 104.335C349.033 104.785 349.202 105.235 349.382 105.675C349.552 106.085 349.743 106.505 349.943 106.915C352.222 111.505 356.482 115.825 362.732 119.435C382.292 130.735 414.013 130.725 433.443 119.435C439.563 115.875 443.753 111.615 446.003 107.085C446.202 106.675 446.393 106.275 446.562 105.865C446.723 105.475 446.873 105.085 447.003 104.695C447.342 103.695 447.592 102.695 447.753 101.685C448.013 99.9545 448.022 98.2045 447.753 96.4945ZM446.003 104.635C445.863 105.045 445.702 105.445 445.533 105.855C443.482 110.685 439.223 115.255 432.733 119.025C413.693 130.095 382.603 130.095 363.432 119.025C356.833 115.215 352.493 110.585 350.413 105.695C350.243 105.285 350.093 104.875 349.943 104.465C346.863 95.4945 351.273 85.8245 363.212 78.8845C365.532 77.5345 368.033 76.3545 370.673 75.3345C371.353 75.0745 372.042 74.8145 372.743 74.5845C388.112 69.2645 407.503 69.2645 422.933 74.5845C423.632 74.8245 424.323 75.0745 425.003 75.3345C427.653 76.3545 430.163 77.5345 432.503 78.8845C444.592 85.8745 449.103 95.6245 446.003 104.635Z" fill="#0053A3"/>
<path d="M411.572 92.2745L407.482 89.9145L395.182 97.0645L398.402 98.9245C400.252 99.9945 402.012 100.785 403.682 101.285C405.382 101.815 407.032 102.015 408.632 101.885C410.232 101.765 411.812 101.245 413.382 100.335C415.432 99.1445 416.312 97.8945 416.032 96.5745C415.752 95.2645 414.272 93.8345 411.572 92.2745ZM396.282 97.0545L407.482 90.5445L411.022 92.5945C413.672 94.1245 415.022 95.4745 415.262 96.6345C415.512 97.7745 414.762 98.8945 412.832 100.015C411.342 100.885 409.902 101.335 408.522 101.435C407.112 101.545 405.632 101.365 404.042 100.875C402.472 100.395 400.772 99.6445 398.952 98.5845L396.282 97.0545ZM383.692 94.3945L387.122 92.4045L391.082 94.6945L406.812 85.5545L415.372 90.4945C419.342 92.7845 421.492 94.9445 421.802 96.9745C422.142 99.0245 420.792 100.935 417.752 102.705C415.702 103.895 413.472 104.655 411.062 104.965C408.672 105.265 406.172 105.105 403.532 104.495C400.932 103.895 398.282 102.825 395.582 101.265L391.762 99.0645L387.742 101.405L395.242 105.735L392.302 107.445L384.802 103.115L378.652 106.685L374.552 104.315L380.702 100.745L376.742 98.4545L379.682 96.7445L383.642 99.0345L387.662 96.6945L383.692 94.3945ZM415.922 90.1645L406.812 84.9045L391.082 94.0445L387.122 91.7545L382.582 94.3945L386.542 96.6845L383.622 98.3845L379.662 96.0945L375.632 98.4345L379.592 100.725L373.442 104.295L378.642 107.295L384.792 103.725L392.302 108.055L396.332 105.715L388.822 101.385L391.742 99.6845L395.012 101.575C397.762 103.165 400.502 104.285 403.232 104.905C405.982 105.545 408.652 105.715 411.212 105.405H411.222C413.802 105.065 416.162 104.265 418.302 103.025C421.472 101.185 422.952 99.1445 422.572 96.9345C422.242 94.7445 419.942 92.4945 415.922 90.1645Z" fill="#0053A3"/>
<path d="M447.753 115.224C447.603 116.254 447.353 117.274 447.003 118.294C445.173 123.704 440.653 128.864 433.443 133.054C414.013 144.354 382.293 144.354 362.733 133.054C355.333 128.784 350.723 123.504 348.893 117.974C348.533 116.894 348.283 115.804 348.143 114.704V101.054C348.283 102.154 348.533 103.254 348.893 104.344C349.033 104.794 349.203 105.244 349.383 105.684C349.553 106.094 349.743 106.514 349.943 106.924C352.223 111.514 356.483 115.834 362.733 119.444C382.293 130.744 414.013 130.734 433.443 119.444C439.563 115.874 443.753 111.614 446.003 107.084C446.203 106.674 446.393 106.274 446.563 105.864C446.723 105.474 446.873 105.084 447.003 104.694C447.343 103.694 447.593 102.694 447.753 101.684V110.104C448.013 111.814 448.013 113.524 447.753 115.224Z" fill="#CDE7F7"/>
<path d="M446.003 79.1247C445.863 79.5347 445.703 79.9347 445.533 80.3447C443.483 85.1747 439.223 89.7447 432.733 93.5147C413.693 104.585 382.603 104.585 363.433 93.5147C356.833 89.7047 352.493 85.0747 350.413 80.1847C350.243 79.7747 350.093 79.3647 349.943 78.9547C346.863 69.9847 351.273 60.3147 363.213 53.3747C365.533 52.0247 368.033 50.8447 370.673 49.8247C371.353 49.5647 372.043 49.3047 372.743 49.0747C388.113 43.7547 407.503 43.7547 422.933 49.0747C423.633 49.3147 424.323 49.5647 425.003 49.8247C427.653 50.8447 430.163 52.0247 432.503 53.3747C444.593 60.3647 449.103 70.1147 446.003 79.1247Z" fill="white"/>
<path d="M447.753 70.9848C447.603 69.9548 447.353 68.9348 447.003 67.9248C445.143 62.4448 440.553 57.2148 433.213 52.9748C431.183 51.8048 429.023 50.7548 426.763 49.8348C426.123 49.5648 425.473 49.3148 424.823 49.0848C408.403 42.9848 387.193 42.9848 370.843 49.0848C370.193 49.3148 369.552 49.5648 368.923 49.8348C366.673 50.7548 364.522 51.8048 362.502 52.9748C355.232 57.1948 350.692 62.4248 348.892 67.8748C348.532 68.9548 348.282 70.0448 348.142 71.1448C347.953 72.6048 347.953 74.0748 348.142 75.5348C348.282 76.6348 348.532 77.7348 348.892 78.8248C349.033 79.2748 349.202 79.7248 349.382 80.1648C349.552 80.5748 349.743 80.9948 349.943 81.4048C352.222 85.9948 356.482 90.3148 362.732 93.9248C382.292 105.225 414.013 105.215 433.443 93.9248C439.563 90.3648 443.753 86.1048 446.003 81.5748C446.202 81.1648 446.393 80.7648 446.562 80.3548C446.723 79.9648 446.873 79.5748 447.003 79.1848C447.342 78.1848 447.592 77.1848 447.753 76.1748C448.013 74.4448 448.022 72.6948 447.753 70.9848ZM446.003 79.1248C445.863 79.5348 445.702 79.9348 445.533 80.3448C443.482 85.1748 439.223 89.7448 432.733 93.5148C413.693 104.585 382.603 104.585 363.432 93.5148C356.833 89.7048 352.493 85.0748 350.413 80.1848C350.243 79.7748 350.093 79.3648 349.943 78.9548C346.863 69.9848 351.273 60.3148 363.212 53.3748C365.532 52.0248 368.033 50.8448 370.673 49.8248C371.353 49.5648 372.042 49.3048 372.743 49.0748C388.112 43.7548 407.503 43.7548 422.933 49.0748C423.632 49.3148 424.323 49.5648 425.003 49.8248C427.653 50.8448 430.163 52.0248 432.503 53.3748C444.592 60.3648 449.103 70.1148 446.003 79.1248Z" fill="#0053A3"/>
<path d="M411.572 66.7648L407.482 64.4048L395.182 71.5548L398.402 73.4148C400.252 74.4848 402.012 75.2748 403.682 75.7748C405.382 76.3048 407.032 76.5048 408.632 76.3748C410.232 76.2548 411.812 75.7348 413.382 74.8248C415.432 73.6348 416.312 72.3848 416.032 71.0648C415.752 69.7548 414.272 68.3248 411.572 66.7648ZM396.282 71.5448L407.482 65.0348L411.022 67.0848C413.672 68.6148 415.022 69.9648 415.262 71.1248C415.512 72.2648 414.762 73.3848 412.832 74.5048C411.342 75.3748 409.902 75.8248 408.522 75.9248C407.112 76.0348 405.632 75.8548 404.042 75.3648C402.472 74.8848 400.772 74.1348 398.952 73.0748L396.282 71.5448ZM383.692 68.8848L387.122 66.8948L391.082 69.1848L406.812 60.0448L415.372 64.9848C419.342 67.2748 421.492 69.4348 421.802 71.4648C422.142 73.5148 420.792 75.4248 417.752 77.1948C415.702 78.3848 413.472 79.1448 411.062 79.4548C408.672 79.7548 406.172 79.5948 403.532 78.9848C400.932 78.3848 398.282 77.3148 395.582 75.7548L391.762 73.5548L387.742 75.8948L395.242 80.2248L392.302 81.9348L384.802 77.6048L378.652 81.1748L374.552 78.8048L380.702 75.2348L376.742 72.9448L379.682 71.2348L383.642 73.5248L387.662 71.1848L383.692 68.8848ZM415.922 64.6548L406.812 59.3948L391.082 68.5348L387.122 66.2448L382.582 68.8848L386.542 71.1748L383.622 72.8748L379.662 70.5848L375.632 72.9248L379.592 75.2148L373.442 78.7848L378.642 81.7848L384.792 78.2148L392.302 82.5448L396.332 80.2048L388.822 75.8748L391.742 74.1748L395.012 76.0648C397.762 77.6548 400.502 78.7748 403.232 79.3948C405.982 80.0348 408.652 80.2048 411.212 79.8948H411.222C413.802 79.5548 416.162 78.7548 418.302 77.5148C421.472 75.6748 422.952 73.6348 422.572 71.4248C422.242 69.2348 419.942 66.9848 415.922 64.6548Z" fill="#0053A3"/>
<path d="M447.753 89.7147C447.603 90.7447 447.353 91.7647 447.003 92.7847C445.173 98.1947 440.653 103.355 433.443 107.545C414.013 118.845 382.293 118.845 362.733 107.545C355.333 103.275 350.723 97.9947 348.893 92.4647C348.533 91.3847 348.283 90.2947 348.143 89.1947V75.5447C348.283 76.6447 348.533 77.7447 348.893 78.8347C349.033 79.2847 349.203 79.7347 349.383 80.1747C349.553 80.5847 349.743 81.0047 349.943 81.4147C352.223 86.0047 356.483 90.3247 362.733 93.9347C382.293 105.235 414.013 105.225 433.443 93.9347C439.563 90.3647 443.753 86.1047 446.003 81.5747C446.203 81.1647 446.393 80.7647 446.563 80.3547C446.723 79.9647 446.873 79.5747 447.003 79.1847C447.343 78.1847 447.593 77.1847 447.753 76.1747V84.5947C448.013 86.3047 448.013 88.0147 447.753 89.7147Z" fill="#CDE7F7"/>
<path d="M446.003 53.6149C445.863 54.0249 445.703 54.4249 445.533 54.8349C443.483 59.6649 439.223 64.2349 432.733 68.0049C413.693 79.0749 382.603 79.0749 363.433 68.0049C356.833 64.1949 352.493 59.5649 350.413 54.6749C350.243 54.2649 350.093 53.8549 349.943 53.445C346.863 44.4749 351.273 34.805 363.213 27.865C365.533 26.515 368.033 25.335 370.673 24.315C371.353 24.055 372.043 23.795 372.743 23.565C388.113 18.245 407.503 18.245 422.933 23.565C423.633 23.805 424.323 24.055 425.003 24.315C427.653 25.335 430.163 26.515 432.503 27.865C444.593 34.855 449.103 44.6049 446.003 53.6149Z" fill="white"/>
<path d="M447.753 45.475C447.603 44.445 447.353 43.425 447.003 42.415C445.143 36.935 440.553 31.705 433.213 27.465C431.183 26.295 429.023 25.245 426.763 24.325C426.123 24.055 425.473 23.805 424.823 23.575C408.403 17.475 387.193 17.475 370.843 23.575C370.193 23.805 369.552 24.055 368.923 24.325C366.673 25.245 364.522 26.295 362.502 27.465C355.232 31.685 350.692 36.915 348.892 42.365C348.532 43.445 348.282 44.535 348.142 45.635C347.953 47.095 347.953 48.565 348.142 50.025C348.282 51.125 348.532 52.225 348.892 53.315C349.033 53.765 349.202 54.215 349.382 54.655C349.552 55.065 349.743 55.485 349.943 55.895C352.222 60.485 356.482 64.805 362.732 68.415C382.292 79.715 414.013 79.705 433.443 68.415C439.563 64.855 443.753 60.595 446.003 56.065C446.202 55.655 446.393 55.255 446.562 54.845C446.723 54.455 446.873 54.065 447.003 53.675C447.342 52.675 447.592 51.675 447.753 50.665C448.013 48.935 448.022 47.185 447.753 45.475ZM446.003 53.615C445.863 54.025 445.702 54.425 445.533 54.835C443.482 59.665 439.223 64.235 432.733 68.005C413.693 79.075 382.603 79.075 363.432 68.005C356.833 64.195 352.493 59.565 350.413 54.675C350.243 54.265 350.093 53.855 349.943 53.445C346.863 44.475 351.273 34.805 363.212 27.865C365.532 26.515 368.033 25.335 370.673 24.315C371.353 24.055 372.042 23.795 372.743 23.565C388.112 18.245 407.503 18.245 422.933 23.565C423.632 23.805 424.323 24.055 425.003 24.315C427.653 25.335 430.163 26.515 432.503 27.865C444.592 34.855 449.103 44.605 446.003 53.615Z" fill="#0053A3"/>
<path d="M411.572 41.255L407.482 38.895L395.182 46.045L398.402 47.905C400.252 48.975 402.012 49.765 403.682 50.265C405.382 50.795 407.032 50.995 408.632 50.865C410.232 50.745 411.812 50.225 413.382 49.315C415.432 48.125 416.312 46.875 416.032 45.555C415.752 44.245 414.272 42.815 411.572 41.255ZM396.282 46.035L407.482 39.525L411.022 41.575C413.672 43.105 415.022 44.455 415.262 45.615C415.512 46.755 414.762 47.875 412.832 48.995C411.342 49.865 409.902 50.315 408.522 50.415C407.112 50.525 405.632 50.345 404.042 49.855C402.472 49.375 400.772 48.625 398.952 47.565L396.282 46.035ZM383.692 43.375L387.122 41.385L391.082 43.675L406.812 34.535L415.372 39.475C419.342 41.765 421.492 43.925 421.802 45.955C422.142 48.005 420.792 49.915 417.752 51.685C415.702 52.875 413.472 53.635 411.062 53.945C408.672 54.245 406.172 54.085 403.532 53.475C400.932 52.875 398.282 51.805 395.582 50.245L391.762 48.045L387.742 50.385L395.242 54.715L392.302 56.425L384.802 52.095L378.652 55.665L374.552 53.295L380.702 49.725L376.742 47.435L379.682 45.725L383.642 48.015L387.662 45.675L383.692 43.375ZM415.922 39.145L406.812 33.885L391.082 43.025L387.122 40.735L382.582 43.375L386.542 45.665L383.622 47.365L379.662 45.075L375.632 47.415L379.592 49.705L373.442 53.275L378.642 56.275L384.792 52.705L392.302 57.035L396.332 54.695L388.822 50.365L391.742 48.665L395.012 50.555C397.762 52.145 400.502 53.265 403.232 53.885C405.982 54.525 408.652 54.695 411.212 54.385H411.222C413.802 54.045 416.162 53.245 418.302 52.005C421.472 50.165 422.952 48.125 422.572 45.915C422.242 43.725 419.942 41.475 415.922 39.145Z" fill="#0053A3"/>
<path d="M447.753 64.2049C447.603 65.2349 447.353 66.2549 447.003 67.2749C445.173 72.6849 440.653 77.8449 433.443 82.0349C414.013 93.3349 382.293 93.3349 362.733 82.0349C355.333 77.7649 350.723 72.4849 348.893 66.9549C348.533 65.8749 348.283 64.7849 348.143 63.6849V50.0349C348.283 51.1349 348.533 52.2349 348.893 53.3249C349.033 53.7749 349.203 54.2249 349.383 54.6649C349.553 55.0749 349.743 55.4949 349.943 55.9049C352.223 60.4949 356.483 64.8149 362.733 68.4249C382.293 79.7249 414.013 79.7149 433.443 68.4249C439.563 64.8549 443.753 60.5949 446.003 56.0649C446.203 55.6549 446.393 55.2549 446.563 54.8449C446.723 54.4549 446.873 54.0649 447.003 53.6749C447.343 52.6749 447.593 51.6749 447.753 50.6649V59.0849C448.013 60.7949 448.013 62.5049 447.753 64.2049Z" fill="#CDE7F7"/>
<path d="M495.003 173.125C494.863 173.535 494.703 173.935 494.533 174.345C492.483 179.175 488.223 183.745 481.733 187.515C462.693 198.585 431.603 198.585 412.433 187.515C405.833 183.705 401.493 179.075 399.413 174.185C399.243 173.775 399.093 173.365 398.943 172.955C395.863 163.985 400.273 154.315 412.213 147.375C414.533 146.025 417.033 144.845 419.673 143.825C420.353 143.565 421.043 143.305 421.743 143.075C437.113 137.755 456.503 137.755 471.933 143.075C472.633 143.315 473.323 143.565 474.003 143.825C476.653 144.845 479.163 146.025 481.503 147.375C493.593 154.365 498.103 164.115 495.003 173.125Z" fill="white"/>
<path d="M496.753 164.985C496.603 163.955 496.353 162.935 496.003 161.925C494.143 156.445 489.553 151.215 482.213 146.975C480.183 145.805 478.023 144.755 475.763 143.835C475.123 143.565 474.473 143.315 473.823 143.085C457.403 136.985 436.193 136.985 419.843 143.085C419.193 143.315 418.552 143.565 417.923 143.835C415.673 144.755 413.522 145.805 411.502 146.975C404.232 151.195 399.692 156.425 397.892 161.875C397.532 162.955 397.282 164.045 397.142 165.145C396.953 166.605 396.953 168.075 397.142 169.535C397.282 170.635 397.532 171.735 397.892 172.825C398.033 173.275 398.202 173.725 398.382 174.165C398.552 174.575 398.743 174.995 398.943 175.405C401.222 179.995 405.482 184.315 411.732 187.925C431.292 199.225 463.013 199.215 482.443 187.925C488.563 184.365 492.753 180.105 495.003 175.575C495.202 175.165 495.393 174.765 495.562 174.355C495.723 173.965 495.873 173.575 496.003 173.185C496.342 172.185 496.592 171.185 496.753 170.175C497.013 168.445 497.022 166.695 496.753 164.985ZM495.003 173.125C494.863 173.535 494.702 173.935 494.533 174.345C492.482 179.175 488.223 183.745 481.733 187.515C462.693 198.585 431.603 198.585 412.432 187.515C405.833 183.705 401.493 179.075 399.413 174.185C399.243 173.775 399.093 173.365 398.943 172.955C395.863 163.985 400.273 154.315 412.212 147.375C414.532 146.025 417.033 144.845 419.673 143.825C420.353 143.565 421.042 143.305 421.743 143.075C437.112 137.755 456.503 137.755 471.933 143.075C472.632 143.315 473.323 143.565 474.003 143.825C476.653 144.845 479.163 146.025 481.503 147.375C493.592 154.365 498.103 164.115 495.003 173.125Z" fill="#0053A3"/>
<path d="M460.572 160.765L456.482 158.405L444.182 165.555L447.402 167.415C449.252 168.485 451.012 169.275 452.682 169.775C454.382 170.305 456.032 170.505 457.632 170.375C459.232 170.255 460.812 169.735 462.382 168.825C464.432 167.635 465.312 166.385 465.032 165.065C464.752 163.755 463.272 162.325 460.572 160.765ZM445.282 165.545L456.482 159.035L460.022 161.085C462.672 162.615 464.022 163.965 464.262 165.125C464.512 166.265 463.762 167.385 461.832 168.505C460.342 169.375 458.902 169.825 457.522 169.925C456.112 170.035 454.632 169.855 453.042 169.365C451.472 168.885 449.772 168.135 447.952 167.075L445.282 165.545ZM432.692 162.885L436.122 160.895L440.082 163.185L455.812 154.045L464.372 158.985C468.342 161.275 470.492 163.435 470.802 165.465C471.142 167.515 469.792 169.425 466.752 171.195C464.702 172.385 462.472 173.145 460.062 173.455C457.672 173.755 455.172 173.595 452.532 172.985C449.932 172.385 447.282 171.315 444.582 169.755L440.762 167.555L436.742 169.895L444.242 174.225L441.302 175.935L433.802 171.605L427.652 175.175L423.552 172.805L429.702 169.235L425.742 166.945L428.682 165.235L432.642 167.525L436.662 165.185L432.692 162.885ZM464.922 158.655L455.812 153.395L440.082 162.535L436.122 160.245L431.582 162.885L435.542 165.175L432.622 166.875L428.662 164.585L424.632 166.925L428.592 169.215L422.442 172.785L427.642 175.785L433.792 172.215L441.302 176.545L445.332 174.205L437.822 169.875L440.742 168.175L444.012 170.065C446.762 171.655 449.502 172.775 452.232 173.395C454.982 174.035 457.652 174.205 460.212 173.895H460.222C462.802 173.555 465.162 172.755 467.302 171.515C470.472 169.675 471.952 167.635 471.572 165.425C471.242 163.235 468.942 160.985 464.922 158.655Z" fill="#0053A3"/>
<path d="M496.753 183.715C496.603 184.745 496.353 185.765 496.003 186.785C494.173 192.195 489.653 197.355 482.443 201.545C463.013 212.845 431.293 212.845 411.733 201.545C404.333 197.275 399.723 191.995 397.893 186.465C397.533 185.385 397.283 184.295 397.143 183.195V169.545C397.283 170.645 397.533 171.745 397.893 172.835C398.033 173.285 398.203 173.735 398.383 174.175C398.553 174.585 398.743 175.005 398.943 175.415C401.223 180.005 405.483 184.325 411.733 187.935C431.293 199.235 463.013 199.225 482.443 187.935C488.563 184.365 492.753 180.105 495.003 175.575C495.203 175.165 495.393 174.765 495.563 174.355C495.723 173.965 495.873 173.575 496.003 173.185C496.343 172.185 496.593 171.185 496.753 170.175V178.595C497.013 180.305 497.013 182.015 496.753 183.715Z" fill="#CDE7F7"/>
<path d="M495.003 147.615C494.863 148.025 494.703 148.425 494.533 148.835C492.483 153.665 488.223 158.235 481.733 162.005C462.693 173.075 431.603 173.075 412.433 162.005C405.833 158.195 401.493 153.565 399.413 148.675C399.243 148.265 399.093 147.855 398.943 147.445C395.863 138.475 400.273 128.805 412.213 121.865C414.533 120.515 417.033 119.335 419.673 118.315C420.353 118.055 421.043 117.795 421.743 117.565C437.113 112.245 456.503 112.245 471.933 117.565C472.633 117.805 473.323 118.055 474.003 118.315C476.653 119.335 479.163 120.515 481.503 121.865C493.593 128.855 498.103 138.605 495.003 147.615Z" fill="white"/>
<path d="M496.753 139.475C496.603 138.445 496.353 137.425 496.003 136.415C494.143 130.935 489.553 125.705 482.213 121.465C480.183 120.295 478.023 119.245 475.763 118.325C475.123 118.055 474.473 117.805 473.823 117.575C457.403 111.475 436.193 111.475 419.843 117.575C419.193 117.805 418.552 118.055 417.923 118.325C415.673 119.245 413.522 120.295 411.502 121.465C404.232 125.685 399.692 130.915 397.892 136.365C397.532 137.445 397.282 138.535 397.142 139.635C396.953 141.095 396.953 142.565 397.142 144.025C397.282 145.125 397.532 146.225 397.892 147.315C398.033 147.765 398.202 148.215 398.382 148.655C398.552 149.065 398.743 149.485 398.943 149.895C401.222 154.485 405.482 158.805 411.732 162.415C431.292 173.715 463.013 173.705 482.443 162.415C488.563 158.855 492.753 154.595 495.003 150.065C495.202 149.655 495.393 149.255 495.562 148.845C495.723 148.455 495.873 148.065 496.003 147.675C496.342 146.675 496.592 145.675 496.753 144.665C497.013 142.935 497.022 141.185 496.753 139.475ZM495.003 147.615C494.863 148.025 494.702 148.425 494.533 148.835C492.482 153.665 488.223 158.235 481.733 162.005C462.693 173.075 431.603 173.075 412.432 162.005C405.833 158.195 401.493 153.565 399.413 148.675C399.243 148.265 399.093 147.855 398.943 147.445C395.863 138.475 400.273 128.805 412.212 121.865C414.532 120.515 417.033 119.335 419.673 118.315C420.353 118.055 421.042 117.795 421.743 117.565C437.112 112.245 456.503 112.245 471.933 117.565C472.632 117.805 473.323 118.055 474.003 118.315C476.653 119.335 479.163 120.515 481.503 121.865C493.592 128.855 498.103 138.605 495.003 147.615Z" fill="#0053A3"/>
<path d="M460.572 135.255L456.482 132.895L444.182 140.045L447.402 141.905C449.252 142.975 451.012 143.765 452.682 144.265C454.382 144.795 456.032 144.995 457.632 144.865C459.232 144.745 460.812 144.225 462.382 143.315C464.432 142.125 465.312 140.875 465.032 139.555C464.752 138.245 463.272 136.815 460.572 135.255ZM445.282 140.035L456.482 133.525L460.022 135.575C462.672 137.105 464.022 138.455 464.262 139.615C464.512 140.755 463.762 141.875 461.832 142.995C460.342 143.865 458.902 144.315 457.522 144.415C456.112 144.525 454.632 144.345 453.042 143.855C451.472 143.375 449.772 142.625 447.952 141.565L445.282 140.035ZM432.692 137.375L436.122 135.385L440.082 137.675L455.812 128.535L464.372 133.475C468.342 135.765 470.492 137.925 470.802 139.955C471.142 142.005 469.792 143.915 466.752 145.685C464.702 146.875 462.472 147.635 460.062 147.945C457.672 148.245 455.172 148.085 452.532 147.475C449.932 146.875 447.282 145.805 444.582 144.245L440.762 142.045L436.742 144.385L444.242 148.715L441.302 150.425L433.802 146.095L427.652 149.665L423.552 147.295L429.702 143.725L425.742 141.435L428.682 139.725L432.642 142.015L436.662 139.675L432.692 137.375ZM464.922 133.145L455.812 127.885L440.082 137.025L436.122 134.735L431.582 137.375L435.542 139.665L432.622 141.365L428.662 139.075L424.632 141.415L428.592 143.705L422.442 147.275L427.642 150.275L433.792 146.705L441.302 151.035L445.332 148.695L437.822 144.365L440.742 142.665L444.012 144.555C446.762 146.145 449.502 147.265 452.232 147.885C454.982 148.525 457.652 148.695 460.212 148.385H460.222C462.802 148.045 465.162 147.245 467.302 146.005C470.472 144.165 471.952 142.125 471.572 139.915C471.242 137.725 468.942 135.475 464.922 133.145Z" fill="#0053A3"/>
<path d="M496.753 158.205C496.603 159.235 496.353 160.255 496.003 161.275C494.173 166.685 489.653 171.845 482.443 176.035C463.013 187.335 431.293 187.335 411.733 176.035C404.333 171.765 399.723 166.485 397.893 160.955C397.533 159.875 397.283 158.785 397.143 157.685V144.035C397.283 145.135 397.533 146.235 397.893 147.325C398.033 147.775 398.203 148.225 398.383 148.665C398.553 149.075 398.743 149.495 398.943 149.905C401.223 154.495 405.483 158.815 411.733 162.425C431.293 173.725 463.013 173.715 482.443 162.425C488.563 158.855 492.753 154.595 495.003 150.065C495.203 149.655 495.393 149.255 495.563 148.845C495.723 148.455 495.873 148.065 496.003 147.675C496.343 146.675 496.593 145.675 496.753 144.665V153.085C497.013 154.795 497.013 156.505 496.753 158.205Z" fill="#CDE7F7"/>
<path d="M389.003 173.615C388.863 174.025 388.703 174.425 388.533 174.835C386.483 179.665 382.223 184.235 375.733 188.005C356.693 199.075 325.603 199.075 306.433 188.005C299.833 184.195 295.493 179.565 293.413 174.675C293.243 174.265 293.093 173.855 292.943 173.445C289.863 164.475 294.273 154.805 306.213 147.865C308.533 146.515 311.033 145.335 313.673 144.315C314.353 144.055 315.043 143.795 315.743 143.565C331.113 138.245 350.503 138.245 365.933 143.565C366.633 143.805 367.323 144.055 368.003 144.315C370.653 145.335 373.163 146.515 375.503 147.865C387.593 154.855 392.103 164.605 389.003 173.615Z" fill="white"/>
<path d="M390.753 165.475C390.603 164.445 390.353 163.425 390.003 162.415C388.143 156.935 383.553 151.705 376.213 147.465C374.183 146.295 372.023 145.245 369.763 144.325C369.123 144.055 368.473 143.805 367.823 143.575C351.403 137.475 330.193 137.475 313.843 143.575C313.193 143.805 312.552 144.055 311.923 144.325C309.673 145.245 307.522 146.295 305.502 147.465C298.232 151.685 293.692 156.915 291.892 162.365C291.532 163.445 291.282 164.535 291.142 165.635C290.953 167.095 290.953 168.565 291.142 170.025C291.282 171.125 291.532 172.225 291.892 173.315C292.033 173.765 292.202 174.215 292.382 174.655C292.552 175.065 292.743 175.485 292.943 175.895C295.222 180.485 299.482 184.805 305.732 188.415C325.292 199.715 357.013 199.705 376.443 188.415C382.563 184.855 386.753 180.595 389.003 176.065C389.202 175.655 389.393 175.255 389.562 174.845C389.723 174.455 389.873 174.065 390.003 173.675C390.342 172.675 390.592 171.675 390.753 170.665C391.013 168.935 391.022 167.185 390.753 165.475ZM389.003 173.615C388.863 174.025 388.702 174.425 388.533 174.835C386.482 179.665 382.223 184.235 375.733 188.005C356.693 199.075 325.603 199.075 306.432 188.005C299.833 184.195 295.493 179.565 293.413 174.675C293.243 174.265 293.093 173.855 292.943 173.445C289.863 164.475 294.273 154.805 306.212 147.865C308.532 146.515 311.033 145.335 313.673 144.315C314.353 144.055 315.042 143.795 315.743 143.565C331.112 138.245 350.503 138.245 365.933 143.565C366.632 143.805 367.323 144.055 368.003 144.315C370.653 145.335 373.163 146.515 375.503 147.865C387.592 154.855 392.103 164.605 389.003 173.615Z" fill="#0053A3"/>
<path d="M354.572 161.255L350.482 158.895L338.182 166.045L341.402 167.905C343.252 168.975 345.012 169.765 346.682 170.265C348.382 170.795 350.032 170.995 351.632 170.865C353.232 170.745 354.812 170.225 356.382 169.315C358.432 168.125 359.312 166.875 359.032 165.555C358.752 164.245 357.272 162.815 354.572 161.255ZM339.282 166.035L350.482 159.525L354.022 161.575C356.672 163.105 358.022 164.455 358.262 165.615C358.512 166.755 357.762 167.875 355.832 168.995C354.342 169.865 352.902 170.315 351.522 170.415C350.112 170.525 348.632 170.345 347.042 169.855C345.472 169.375 343.772 168.625 341.952 167.565L339.282 166.035ZM326.692 163.375L330.122 161.385L334.082 163.675L349.812 154.535L358.372 159.475C362.342 161.765 364.492 163.925 364.802 165.955C365.142 168.005 363.792 169.915 360.752 171.685C358.702 172.875 356.472 173.635 354.062 173.945C351.672 174.245 349.172 174.085 346.532 173.475C343.932 172.875 341.282 171.805 338.582 170.245L334.762 168.045L330.742 170.385L338.242 174.715L335.302 176.425L327.802 172.095L321.652 175.665L317.552 173.295L323.702 169.725L319.742 167.435L322.682 165.725L326.642 168.015L330.662 165.675L326.692 163.375ZM358.922 159.145L349.812 153.885L334.082 163.025L330.122 160.735L325.582 163.375L329.542 165.665L326.622 167.365L322.662 165.075L318.632 167.415L322.592 169.705L316.442 173.275L321.642 176.275L327.792 172.705L335.302 177.035L339.332 174.695L331.822 170.365L334.742 168.665L338.012 170.555C340.762 172.145 343.502 173.265 346.232 173.885C348.982 174.525 351.652 174.695 354.212 174.385H354.222C356.802 174.045 359.162 173.245 361.302 172.005C364.472 170.165 365.952 168.125 365.572 165.915C365.242 163.725 362.942 161.475 358.922 159.145Z" fill="#0053A3"/>
<path d="M390.753 184.205C390.603 185.235 390.353 186.255 390.003 187.275C388.173 192.685 383.653 197.845 376.443 202.035C357.013 213.335 325.293 213.335 305.733 202.035C298.333 197.765 293.723 192.485 291.893 186.955C291.533 185.875 291.283 184.785 291.143 183.685V170.035C291.283 171.135 291.533 172.235 291.893 173.325C292.033 173.775 292.203 174.225 292.383 174.665C292.553 175.075 292.743 175.495 292.943 175.905C295.223 180.495 299.483 184.815 305.733 188.425C325.293 199.725 357.013 199.715 376.443 188.425C382.563 184.855 386.753 180.595 389.003 176.065C389.203 175.655 389.393 175.255 389.563 174.845C389.723 174.455 389.873 174.065 390.003 173.675C390.343 172.675 390.593 171.675 390.753 170.665V179.085C391.013 180.795 391.013 182.505 390.753 184.205Z" fill="#CDE7F7"/>
<defs>
<linearGradient id="paint0_linear_8_2839" x1="219.25" y1="2" x2="219.25" y2="230.5" gradientUnits="userSpaceOnUse">
<stop stop-color="#0053A3"/>
<stop offset="0.925558" stop-color="#CDE7F7" stop-opacity="0"/>
</linearGradient>
</defs>
</svg>
