<?xml version="1.0" standalone="no"?>
<!DOCTYPE svg PUBLIC "-//W3C//DTD SVG 20010904//EN"
 "http://www.w3.org/TR/2001/REC-SVG-20010904/DTD/svg10.dtd">
<svg version="1.0" xmlns="http://www.w3.org/2000/svg"
 width="700.000000pt" height="700.000000pt" viewBox="0 0 700.000000 700.000000"
 preserveAspectRatio="xMidYMid meet">
<metadata>
Created by potrace 1.14, written by Peter Selinger 2001-2017
</metadata>
<g transform="translate(0.000000,700.000000) scale(0.100000,-0.100000)"
fill="#000000" stroke="none">
<path d="M3298 6995 c-2 -2 -42 -6 -90 -9 -100 -7 -172 -15 -208 -21 -14 -3
-43 -7 -65 -10 -38 -6 -109 -19 -165 -31 -14 -3 -36 -7 -50 -10 -87 -18 -423
-118 -445 -133 -5 -4 -35 -15 -65 -25 -141 -48 -468 -220 -660 -349 -73 -49
-280 -204 -290 -217 -3 -4 -34 -31 -69 -60 -86 -71 -275 -260 -341 -340 -29
-36 -58 -68 -64 -72 -30 -19 10 -14 99 13 133 41 336 91 420 103 22 4 78 13
125 22 47 9 99 18 115 20 73 9 262 35 285 39 14 2 57 7 95 10 39 3 90 8 115
10 25 2 79 7 120 10 41 3 91 8 110 10 19 2 73 7 120 10 47 3 101 8 120 10 293
36 1684 36 1970 0 19 -2 71 -7 115 -10 44 -3 100 -8 125 -10 25 -2 79 -6 120
-10 41 -3 95 -8 120 -10 25 -3 74 -7 110 -10 36 -3 76 -8 90 -10 56 -8 178
-25 220 -30 39 -4 232 -36 310 -51 14 -3 39 -7 55 -10 83 -14 303 -68 379 -93
47 -15 86 -26 86 -24 0 12 -178 211 -264 295 -155 153 -460 391 -605 473 -20
11 -63 36 -96 56 -322 195 -808 367 -1190 423 -23 4 -50 8 -60 10 -24 4 -135
18 -190 23 -49 4 -503 11 -507 8z"/>
<path d="M458 5238 c-71 -130 -128 -245 -162 -328 -15 -36 -33 -79 -41 -95
-62 -136 -151 -438 -201 -680 -7 -37 -35 -240 -39 -295 -3 -30 -7 -79 -10
-107 -2 -29 -3 -53 0 -53 2 0 37 17 77 38 91 46 108 53 243 97 101 33 309 87
388 100 17 3 46 10 62 15 35 11 73 18 135 25 25 3 52 8 61 11 10 2 30 6 45 9
16 2 45 6 64 10 19 3 49 8 65 11 17 2 44 7 60 11 17 4 37 7 45 8 32 3 156 18
173 21 10 2 48 6 85 10 36 3 75 8 85 10 11 2 45 6 76 9 31 3 67 8 81 10 14 2
66 7 115 10 50 3 101 8 115 10 14 2 63 7 110 11 47 3 101 8 120 10 19 2 89 6
155 9 66 3 156 8 200 10 462 25 1432 25 1860 0 39 -2 129 -6 201 -10 72 -3
142 -8 155 -10 13 -2 62 -6 109 -9 47 -4 103 -8 125 -11 22 -2 74 -7 115 -10
83 -6 149 -13 195 -20 26 -4 107 -13 170 -20 78 -8 325 -42 370 -51 11 -3 36
-7 55 -10 187 -29 245 -40 450 -87 269 -62 472 -132 623 -215 7 -3 6 23 -8
177 -5 48 -12 106 -22 166 -3 22 -7 50 -9 62 -15 133 -139 571 -194 688 -5 11
-25 58 -44 105 -38 93 -134 283 -197 392 -41 69 -41 69 -65 53 -126 -82 -331
-161 -524 -200 -8 -2 -42 -10 -75 -18 -61 -16 -363 -69 -465 -82 -30 -4 -62
-9 -70 -10 -8 -1 -49 -6 -90 -11 -41 -4 -77 -8 -80 -9 -3 -1 -39 -5 -80 -9
-41 -5 -82 -10 -90 -11 -8 -2 -62 -6 -120 -10 -58 -3 -112 -8 -120 -10 -14 -4
-90 -9 -255 -20 -75 -4 -343 -16 -490 -21 -148 -4 -839 -4 -995 0 -302 10
-577 24 -755 41 -85 8 -172 15 -230 20 -27 2 -70 6 -95 9 -118 15 -146 19
-160 21 -8 2 -44 6 -80 9 -58 6 -105 13 -205 31 -28 5 -47 8 -105 20 -14 2
-41 7 -60 11 -58 10 -122 22 -170 34 -25 5 -56 13 -70 16 -214 47 -456 139
-516 195 -11 10 -25 19 -30 19 -5 0 -35 -46 -66 -102z"/>
<path d="M6940 3293 c-50 -28 -164 -75 -255 -104 -100 -33 -219 -68 -245 -73
-14 -3 -68 -14 -120 -26 -104 -23 -322 -65 -385 -74 -23 -4 -50 -8 -62 -10
-11 -3 -38 -7 -59 -10 -22 -4 -64 -10 -94 -16 -30 -5 -80 -11 -110 -15 -30 -3
-71 -8 -90 -10 -19 -2 -55 -7 -80 -10 -25 -3 -58 -7 -75 -9 -110 -14 -181 -21
-295 -30 -47 -4 -101 -9 -120 -11 -19 -2 -73 -7 -120 -11 -47 -3 -101 -7 -120
-9 -32 -3 -211 -12 -385 -21 -440 -21 -1302 -21 -1675 1 -30 2 -120 6 -200 9
-80 4 -164 9 -187 12 -23 2 -77 7 -120 9 -43 3 -94 7 -113 10 -32 4 -102 10
-220 19 -25 2 -70 7 -100 11 -81 10 -108 12 -185 20 -38 4 -81 8 -95 11 -14 2
-50 6 -80 9 -30 4 -80 10 -110 15 -30 5 -68 12 -85 14 -16 3 -70 12 -120 20
-49 9 -108 18 -130 21 -35 6 -87 17 -255 56 -25 6 -54 13 -65 15 -66 13 -88
18 -165 41 -116 34 -310 109 -362 138 -24 14 -46 25 -51 25 -4 0 -5 -21 -2
-47 2 -27 7 -77 10 -113 6 -61 21 -185 30 -240 10 -61 56 -274 61 -282 3 -5 8
-21 10 -36 19 -101 171 -495 252 -651 73 -142 155 -281 166 -281 5 0 17 6 25
14 57 50 294 145 430 172 13 3 68 16 121 30 84 21 283 60 400 79 19 3 46 7 60
10 27 5 90 13 155 20 51 5 134 16 158 21 10 2 48 6 85 9 37 4 78 8 92 10 14 2
66 7 115 10 50 4 106 8 125 10 52 5 202 15 310 20 52 3 151 8 220 12 170 10
1149 9 1335 -1 83 -4 188 -9 235 -11 78 -3 180 -10 290 -20 25 -2 81 -7 125
-10 88 -6 161 -13 215 -20 19 -3 58 -7 85 -10 28 -3 61 -7 75 -10 14 -2 50 -6
80 -10 115 -13 139 -17 280 -42 80 -14 159 -27 175 -30 17 -2 84 -18 150 -35
66 -16 128 -32 139 -34 139 -27 374 -123 432 -176 20 -18 21 -18 32 4 6 13 28
52 48 88 173 306 301 632 377 960 21 89 36 159 41 195 17 110 23 161 31 245 3
36 8 86 11 113 3 26 4 47 2 46 -1 0 -23 -12 -48 -26z"/>
<path d="M6179 1280 c-8 -5 -26 -11 -40 -14 -13 -3 -62 -16 -109 -29 -114 -33
-283 -72 -405 -93 -55 -9 -109 -18 -120 -20 -11 -2 -85 -13 -165 -24 -80 -11
-156 -23 -170 -25 -24 -4 -51 -7 -220 -21 -41 -3 -91 -7 -110 -9 -19 -2 -73
-6 -120 -10 -47 -3 -101 -8 -120 -10 -270 -32 -1014 -47 -1563 -31 -330 9
-471 14 -517 21 -19 3 -69 7 -110 10 -41 3 -100 7 -130 10 -58 5 -137 12 -235
20 -99 7 -199 17 -216 20 -9 2 -40 6 -70 9 -30 4 -83 11 -119 16 -36 5 -83 12
-105 15 -22 3 -62 9 -90 15 -27 5 -68 12 -89 15 -22 3 -87 16 -145 30 -58 13
-119 26 -136 29 -16 3 -81 22 -144 41 -63 19 -116 33 -119 31 -7 -8 137 -164
263 -287 424 -411 973 -723 1530 -869 126 -33 334 -76 415 -85 30 -3 62 -8 70
-10 101 -25 671 -25 820 0 14 2 43 7 65 10 116 16 283 48 365 69 113 29 157
42 253 75 315 108 529 212 812 395 100 64 250 172 283 203 7 7 34 29 60 50
103 83 238 214 362 352 90 100 106 123 69 101z"/>
</g>
</svg>
