<svg width="414" height="198" viewBox="0 0 414 198" fill="none" xmlns="http://www.w3.org/2000/svg">
<circle cx="61.2372" cy="136" r="49.5" transform="rotate(-15 61.2372 136)" stroke="#CDE7F7"/>
<circle cx="61.2373" cy="136" r="42.5" transform="rotate(-15 61.2373 136)" stroke="#CDE7F7"/>
<path d="M58.0374 160.455L46.1852 116.222L57.832 113.101C63.2423 111.651 67.5418 111.673 70.7302 113.164C73.96 114.645 76.1338 117.471 77.2515 121.642C78.004 124.451 78.0112 127.038 77.2732 129.405C76.524 131.731 75.0337 133.768 72.802 135.517C70.6117 137.255 67.6787 138.616 64.0029 139.601L58.799 140.995L63.613 158.961L58.0374 160.455ZM50.3901 153.474L49.3111 149.447L70.4983 143.77L71.5773 147.797L50.3901 153.474ZM47.8337 143.933L46.5721 139.225L60.7589 135.424L62.0205 140.132L47.8337 143.933ZM61.936 135.108C64.4553 134.433 66.5104 133.595 68.1012 132.593C69.7332 131.58 70.8582 130.327 71.4761 128.834C72.0941 127.34 72.1153 125.52 71.5398 123.372C70.7873 120.564 69.3611 118.71 67.2613 117.812C65.1615 116.914 62.2737 116.957 58.5979 117.942L53.0223 119.436L57.5375 136.287L61.936 135.108Z" fill="#CDE7F7"/>
<circle cx="352.474" cy="61.2372" r="49.5" transform="rotate(15 352.474 61.2372)" stroke="#CDE7F7"/>
<circle cx="352.474" cy="61.2373" r="42.5" transform="rotate(15 352.474 61.2373)" stroke="#CDE7F7"/>
<path d="M337.476 80.8159L349.328 36.5828L360.975 39.7036C366.385 41.1533 370.098 43.3212 372.114 46.2074C374.17 49.1046 374.64 52.6388 373.522 56.8102C372.77 59.6187 371.482 61.8632 369.66 63.5439C367.848 65.1833 365.539 66.2023 362.732 66.6011C359.966 67.0109 356.745 66.7234 353.069 65.7385L347.866 64.3441L343.052 82.3099L337.476 80.8159ZM334.344 70.9464L335.423 66.9196L356.61 72.5967L355.531 76.6235L334.344 70.9464ZM336.9 61.4059L338.162 56.6976L352.349 60.499L351.087 65.2073L336.9 61.4059ZM353.526 60.8144C356.045 61.4894 358.244 61.7909 360.122 61.7188C362.042 61.6577 363.643 61.135 364.925 60.1505C366.207 59.166 367.136 57.5999 367.711 55.4523C368.464 52.6438 368.155 50.3258 366.786 48.498C365.416 46.6703 362.894 45.264 359.218 44.2791L353.642 42.7851L349.127 59.6358L353.526 60.8144Z" fill="#CDE7F7"/>
<g clip-path="url(#clip0_8_2554)">
<path d="M174.764 111.181C202.31 104.677 219.368 77.0734 212.863 49.5273C206.359 21.9813 178.756 4.92368 151.21 11.4281C123.663 17.9325 106.606 45.5358 113.11 73.0818C119.615 100.628 147.218 117.685 174.764 111.181Z" fill="#0053A3" stroke="#0053A3" stroke-miterlimit="10" stroke-linecap="round" stroke-linejoin="round"/>
<path d="M174.765 107.621C202.311 101.117 219.369 73.5134 212.864 45.9673C206.36 18.4213 178.757 1.36368 151.21 7.86807C123.664 14.3725 106.607 41.9758 113.111 69.5218C119.616 97.0679 147.219 114.125 174.765 107.621Z" fill="#CDE7F7" stroke="#0053A3" stroke-miterlimit="10" stroke-linecap="round" stroke-linejoin="round"/>
<path d="M178.227 25.44C175.897 24.27 173.067 25.22 171.897 27.54C170.727 29.87 171.677 32.7 173.997 33.87C182.917 38.34 188.457 47.31 188.457 57.28C188.457 71.71 176.717 83.44 162.297 83.44C147.867 83.44 136.137 71.7 136.137 57.28C136.137 54.29 136.647 51.35 137.627 48.57L142.847 54.06L150.307 28.82L124.717 34.98L130.577 41.15C128.047 46.13 126.717 51.65 126.717 57.28C126.717 76.9 142.687 92.87 162.307 92.87C181.927 92.87 197.897 76.9 197.897 57.28C197.897 43.72 190.367 31.52 178.227 25.44Z" fill="#0053A3"/>
<path d="M163.037 63.2801C163.047 63.2801 163.067 63.2801 163.077 63.2801L167.437 75.8901C167.697 76.6401 168.397 77.1101 169.147 77.1101C169.347 77.1101 169.547 77.0801 169.737 77.0101C170.687 76.6801 171.187 75.6501 170.857 74.7001L166.497 62.0801C167.837 61.0401 168.707 59.4201 168.707 57.6001C168.707 56.5701 168.427 55.6001 167.937 54.7601L175.977 45.6101C176.637 44.8601 176.567 43.7101 175.807 43.0501C175.057 42.3901 173.907 42.4601 173.247 43.2201L165.217 52.3701C164.547 52.0901 163.807 51.9301 163.037 51.9301C159.907 51.9301 157.367 54.4701 157.367 57.6001C157.367 60.7301 159.907 63.2801 163.037 63.2801Z" fill="#0053A3"/>
<path d="M286.637 29.08C284.497 27.89 281.867 28.53 280.767 30.5L279.047 33.59C277.947 35.57 278.787 38.14 280.917 39.33C283.057 40.52 285.687 39.88 286.787 37.91L288.507 34.82C289.607 32.85 288.767 30.28 286.637 29.08ZM282.957 31.73C283.437 30.87 284.577 30.6 285.507 31.11C286.437 31.63 286.797 32.74 286.317 33.6L284.597 36.69C284.117 37.55 282.977 37.82 282.047 37.31C281.117 36.79 280.757 35.68 281.237 34.82L282.957 31.73Z" fill="white" stroke="#0053A3" stroke-miterlimit="10" stroke-linecap="round" stroke-linejoin="round"/>
<path d="M301.397 45.14L268.627 24.7C262.197 20.69 253.717 23.08 250.317 29.85L229.717 70.97C226.747 76.91 228.777 84.13 234.407 87.65L259.917 103.56C265.547 107.07 272.937 105.72 276.957 100.44L304.817 63.85C309.417 57.82 307.827 49.15 301.397 45.14ZM258.127 35.29C261.327 32.19 266.017 31.3 269.617 33.55L293.007 48.14C296.607 50.39 297.877 54.99 296.497 59.23L258.127 35.29Z" fill="#CDE7F7" stroke="#0053A3" stroke-miterlimit="10" stroke-linecap="round" stroke-linejoin="round"/>
<path d="M238.777 90.38L211.977 133.36L212.397 140.31L209.117 145.57L203.057 148.26L200.617 152.16L201.787 154.98L199.727 158.28L195.977 159.28L193.257 163.64L193.097 171.54L196.707 173.79L245.937 94.85L238.777 90.38Z" fill="white" stroke="#0053A3" stroke-miterlimit="10" stroke-linecap="round" stroke-linejoin="round"/>
<path d="M253.097 99.31L226.297 142.29L219.877 144.97L216.597 150.23L216.847 156.85L214.407 160.76L211.367 160.95L209.307 164.26L210.057 168.07L207.347 172.42L200.327 176.05L196.707 173.79L245.937 94.85L253.097 99.31Z" fill="white" stroke="#0053A3" stroke-miterlimit="10" stroke-linecap="round" stroke-linejoin="round"/>
<path d="M253.247 16.23C253.207 18.35 254.767 20.1 256.727 20.14L259.787 20.2C261.747 20.24 263.377 18.55 263.417 16.43C263.457 14.31 261.897 12.56 259.937 12.52L256.877 12.46C254.917 12.43 253.287 14.12 253.247 16.23ZM256.767 17.97C255.917 17.95 255.237 17.19 255.257 16.27C255.277 15.35 255.987 14.62 256.837 14.64L259.897 14.7C260.747 14.72 261.427 15.48 261.407 16.4C261.387 17.32 260.677 18.05 259.827 18.03L256.767 17.97Z" fill="white" stroke="#0053A3" stroke-miterlimit="10" stroke-linecap="round" stroke-linejoin="round"/>
<path d="M264.787 15.58C264.057 17.57 264.957 19.73 266.797 20.41L269.677 21.47C271.517 22.15 273.607 21.08 274.337 19.09C275.067 17.1 274.167 14.94 272.327 14.26L269.447 13.2C267.607 12.53 265.517 13.6 264.787 15.58ZM267.547 18.37C266.747 18.08 266.357 17.14 266.677 16.28C266.997 15.42 267.897 14.95 268.697 15.25L271.577 16.31C272.377 16.6 272.767 17.54 272.447 18.4C272.127 19.26 271.227 19.73 270.427 19.43L267.547 18.37Z" fill="white" stroke="#0053A3" stroke-miterlimit="10" stroke-linecap="round" stroke-linejoin="round"/>
<path d="M275.037 19.75C273.417 21.11 273.127 23.44 274.387 24.94L276.357 27.29C277.617 28.79 279.967 28.9 281.587 27.54C283.207 26.18 283.497 23.85 282.237 22.35L280.267 20C279.007 18.5 276.657 18.38 275.037 19.75ZM276.057 23.54C275.507 22.89 275.637 21.88 276.337 21.29C277.037 20.7 278.057 20.75 278.607 21.4L280.577 23.75C281.127 24.4 280.997 25.41 280.297 26C279.597 26.59 278.577 26.54 278.027 25.89L276.057 23.54Z" fill="white" stroke="#0053A3" stroke-miterlimit="10" stroke-linecap="round" stroke-linejoin="round"/>
<path d="M241.967 16C241.927 18.12 243.487 19.87 245.447 19.91L248.507 19.97C250.467 20.01 252.097 18.32 252.137 16.2C252.177 14.08 250.617 12.33 248.657 12.29L245.597 12.23C243.637 12.2 242.007 13.89 241.967 16ZM245.487 17.74C244.637 17.72 243.957 16.96 243.977 16.04C243.997 15.12 244.707 14.39 245.557 14.41L248.617 14.47C249.467 14.49 250.147 15.25 250.127 16.17C250.107 17.09 249.397 17.82 248.547 17.8L245.487 17.74Z" fill="white" stroke="#0053A3" stroke-miterlimit="10" stroke-linecap="round" stroke-linejoin="round"/>
<path d="M252.737 17.31L256.777 17.39C257.337 17.4 257.797 16.92 257.807 16.32C257.817 15.72 257.377 15.22 256.827 15.21L252.787 15.13H252.567L248.607 15.05C248.047 15.04 247.587 15.52 247.577 16.12C247.567 16.72 248.007 17.22 248.557 17.23L252.517 17.31H252.737Z" fill="white" stroke="#0053A3" stroke-miterlimit="10" stroke-linecap="round" stroke-linejoin="round"/>
<path d="M264.287 17.55L268.327 17.63C268.887 17.64 269.347 17.16 269.357 16.56C269.367 15.96 268.927 15.46 268.377 15.45L264.337 15.37H264.117L260.157 15.29C259.597 15.28 259.137 15.76 259.127 16.36C259.117 16.96 259.557 17.46 260.107 17.47L264.067 17.55H264.287Z" fill="white" stroke="#0053A3" stroke-miterlimit="10" stroke-linecap="round" stroke-linejoin="round"/>
<path d="M273.867 20.72L276.997 23.27C277.427 23.62 278.087 23.53 278.467 23.06C278.847 22.59 278.807 21.93 278.377 21.58L275.247 19.03L275.077 18.89L272.007 16.39C271.577 16.04 270.917 16.13 270.537 16.6C270.157 17.07 270.197 17.73 270.627 18.08L273.697 20.58L273.867 20.72Z" fill="white" stroke="#0053A3" stroke-miterlimit="10" stroke-linecap="round" stroke-linejoin="round"/>
<path d="M281.277 28.59L283.827 31.72C284.177 32.15 284.837 32.19 285.307 31.81C285.777 31.43 285.867 30.77 285.517 30.34L282.967 27.21L282.827 27.04L280.327 23.97C279.977 23.54 279.317 23.5 278.847 23.88C278.377 24.26 278.287 24.92 278.637 25.35L281.137 28.42L281.277 28.59Z" fill="white" stroke="#0053A3" stroke-miterlimit="10" stroke-linecap="round" stroke-linejoin="round"/>
<path d="M230.857 17.43C231.087 19.53 232.867 21.07 234.807 20.86L237.857 20.52C239.807 20.3 241.197 18.42 240.967 16.31C240.737 14.21 238.957 12.67 237.017 12.88L233.967 13.22C232.027 13.44 230.627 15.32 230.857 17.43ZM234.577 18.69C233.737 18.78 232.967 18.12 232.867 17.2C232.767 16.29 233.367 15.47 234.217 15.38L237.267 15.04C238.107 14.95 238.877 15.61 238.977 16.53C239.077 17.44 238.477 18.26 237.627 18.35L234.577 18.69Z" fill="white" stroke="#0053A3" stroke-miterlimit="10" stroke-linecap="round" stroke-linejoin="round"/>
<path d="M241.247 15.19L237.317 15.62C236.767 15.68 236.367 16.21 236.437 16.81C236.507 17.41 237.007 17.84 237.557 17.78L241.487 17.35L241.707 17.33L245.717 16.89C246.267 16.83 246.667 16.3 246.597 15.7C246.527 15.1 246.027 14.67 245.477 14.73L241.467 15.17L241.247 15.19Z" fill="white" stroke="#0053A3" stroke-miterlimit="10" stroke-linecap="round" stroke-linejoin="round"/>
<path d="M220.137 21.02C220.727 23.05 222.737 24.27 224.617 23.72L227.557 22.87C229.437 22.33 230.497 20.23 229.907 18.19C229.317 16.16 227.307 14.94 225.427 15.49L222.487 16.34C220.607 16.89 219.547 18.99 220.137 21.02ZM224.017 21.63C223.197 21.87 222.327 21.34 222.077 20.46C221.827 19.58 222.277 18.67 223.097 18.43L226.037 17.58C226.857 17.34 227.727 17.87 227.977 18.75C228.227 19.63 227.777 20.54 226.957 20.78L224.017 21.63Z" fill="white" stroke="#0053A3" stroke-miterlimit="10" stroke-linecap="round" stroke-linejoin="round"/>
<path d="M230.818 19.07L234.698 17.95C235.228 17.8 235.528 17.2 235.368 16.63C235.198 16.05 234.638 15.71 234.098 15.86L230.218 16.98L230.008 17.04L226.208 18.14C225.678 18.29 225.378 18.89 225.538 19.46C225.708 20.04 226.268 20.38 226.808 20.23L230.608 19.13L230.818 19.07Z" fill="white" stroke="#0053A3" stroke-miterlimit="10" stroke-linecap="round" stroke-linejoin="round"/>
<path d="M209.487 24.8C210.167 26.8 212.237 27.92 214.087 27.29L216.987 26.3C218.837 25.67 219.797 23.52 219.107 21.52C218.417 19.52 216.357 18.4 214.507 19.03L211.607 20.02C209.757 20.65 208.807 22.79 209.487 24.8ZM213.387 25.23C212.587 25.5 211.687 25.02 211.387 24.15C211.087 23.28 211.507 22.35 212.307 22.08L215.207 21.09C216.007 20.82 216.907 21.3 217.207 22.17C217.507 23.04 217.087 23.97 216.287 24.24L213.387 25.23Z" fill="white" stroke="#0053A3" stroke-miterlimit="10" stroke-linecap="round" stroke-linejoin="round"/>
<path d="M220.057 22.34L223.877 21.04C224.407 20.86 224.677 20.25 224.477 19.69C224.287 19.12 223.697 18.81 223.177 18.99L219.357 20.29L219.147 20.36L215.407 21.64C214.877 21.82 214.607 22.43 214.807 22.99C215.007 23.55 215.587 23.87 216.107 23.69L219.847 22.41L220.057 22.34Z" fill="white" stroke="#0053A3" stroke-miterlimit="10" stroke-linecap="round" stroke-linejoin="round"/>
<path d="M209.307 25.95L213.127 24.65C213.657 24.47 213.927 23.86 213.727 23.3C213.527 22.74 212.947 22.42 212.427 22.6L208.607 23.9L208.397 23.97L204.657 25.25C204.127 25.43 203.857 26.04 204.057 26.6C204.247 27.17 204.837 27.48 205.357 27.3L209.097 26.02L209.307 25.95Z" fill="white" stroke="#0053A3" stroke-miterlimit="10" stroke-linecap="round" stroke-linejoin="round"/>
</g>
<defs>
<clipPath id="clip0_8_2554">
<rect width="196.72" height="170.55" fill="white" transform="translate(111.237 6)"/>
</clipPath>
</defs>
</svg>
