<svg width="412" height="206" viewBox="0 0 412 206" fill="none" xmlns="http://www.w3.org/2000/svg">
<path fill-rule="evenodd" clip-rule="evenodd" d="M358.174 96.2446L379 6L290.74 34.0716L312.249 53.9023L227.955 134.408L119.304 96.2936L11 183.721L28.3919 205.265L124.693 127.527L234.805 166.153L332.647 72.7089L358.174 96.2446Z" fill="#CDE7F7"/>
<mask id="path-2-inside-1_8_2527" fill="white">
<path fill-rule="evenodd" clip-rule="evenodd" d="M181 126.558H181.03L181 126.559V205.501L243.535 205.501H314V128.601L281.78 88.0001V88H218.931L181 126.558Z"/>
</mask>
<path fill-rule="evenodd" clip-rule="evenodd" d="M181 126.558H181.03L181 126.559V205.501L243.535 205.501H314V128.601L281.78 88.0001V88H218.931L181 126.558Z" fill="white"/>
<path d="M181.03 126.558L181.035 127.558L181.03 125.558V126.558ZM181 126.558L180.287 125.857L178.614 127.558H181V126.558ZM181 126.559L180.995 125.559L180 125.564V126.559H181ZM181 205.501H180V206.501H181L181 205.501ZM243.535 205.501V204.501V205.501ZM314 205.501V206.501H315V205.501H314ZM314 128.601H315V128.253L314.783 127.98L314 128.601ZM281.78 88.0001H280.78V88.3487L280.996 88.6217L281.78 88.0001ZM281.78 88H282.78V87H281.78V88ZM218.931 88V87H218.512L218.218 87.2987L218.931 88ZM181.03 125.558H181V127.558H181.03V125.558ZM181.025 125.558L180.995 125.559L181.005 127.559L181.035 127.558L181.025 125.558ZM180 126.559V205.501H182V126.559H180ZM181 206.501L243.535 206.501V204.501L181 204.501L181 206.501ZM314 204.501H243.535V206.501H314V204.501ZM313 128.601V205.501H315V128.601H313ZM280.996 88.6217L313.217 129.223L314.783 127.98L282.563 87.3785L280.996 88.6217ZM280.78 88V88.0001H282.78V88H280.78ZM218.931 89H281.78V87H218.931V89ZM181.713 127.26L219.644 88.7013L218.218 87.2987L180.287 125.857L181.713 127.26Z" fill="#006EB7" mask="url(#path-2-inside-1_8_2527)"/>
<path d="M212.215 169.79C202.579 169.79 194.761 177.763 194.761 187.609V205.429H229.66V187.609C229.668 177.772 221.859 169.79 212.215 169.79Z" fill="#0053A3"/>
<path d="M257.724 187.548V152.33H272.537V187.548H257.724Z" fill="white" stroke="#006EB7"/>
<path d="M285.344 187.548V152.33H300.156V187.548H285.344Z" fill="white" stroke="#006EB7"/>
<path d="M214.291 141.775C219.11 142.919 222.089 147.752 220.945 152.57C219.802 157.389 214.969 160.368 210.15 159.225C205.332 158.081 202.353 153.248 203.496 148.43C204.64 143.611 209.473 140.632 214.291 141.775Z" fill="white" stroke="#0053A3"/>
<path d="M181.402 126.607H245.747L281.538 88.8043" stroke="#006EB7"/>
<path d="M245.747 126.607V205.026" stroke="#006EB7"/>
</svg>
