<svg width="424" height="219" viewBox="0 0 424 219" fill="none" xmlns="http://www.w3.org/2000/svg">
<path fill-rule="evenodd" clip-rule="evenodd" d="M331.613 107.936L347 43L283.288 62.8538L298.798 77.323L217.392 158.661L168.168 109.478L93 184.584L108.762 200.359L168.168 141.003L217.392 190.185L315.114 92.5443L331.613 107.936Z" fill="#CDE7F7"/>
<g clip-path="url(#clip0_8_2486)">
<path d="M120.181 155.966C119.05 153.817 116.787 149.45 116.787 149.179L120.181 145.106L131.384 150.876V154.948L120.181 155.966Z" fill="white"/>
<path d="M122.547 146.235C121.253 145.53 119.883 144.945 118.444 144.467C115.245 143.41 111.839 143.139 108.219 143.649C104.599 144.158 101.124 145.398 97.7741 147.374C94.5691 149.324 91.7851 151.753 89.4159 154.641C86.9021 157.554 84.9477 160.832 83.5525 164.488C82.1511 168.144 81.4472 171.925 81.441 175.839C81.4347 179.903 82.1197 183.559 83.5085 186.825C84.8911 190.09 86.8393 192.827 89.3405 195.03C89.6861 195.357 90.038 195.665 90.4025 195.961C90.5596 196.099 90.723 196.231 90.8864 196.351C91.1064 196.527 91.3263 196.691 91.5526 196.854C91.7222 196.974 91.8856 197.093 92.0616 197.207C92.1684 197.282 92.2816 197.358 92.3884 197.42C92.4827 197.49 92.5832 197.553 92.6775 197.609C93.0608 197.848 93.4505 198.081 93.8464 198.295" fill="white"/>
<path d="M122.547 146.235C121.253 145.53 119.883 144.945 118.444 144.467C115.245 143.41 111.839 143.139 108.219 143.649C104.599 144.158 101.124 145.398 97.7741 147.374C94.5691 149.324 91.7851 151.753 89.4159 154.641C86.9021 157.554 84.9477 160.832 83.5525 164.488C82.1511 168.144 81.4472 171.925 81.441 175.839C81.4347 179.903 82.1197 183.559 83.5085 186.825C84.8911 190.09 86.8393 192.827 89.3405 195.03C89.6861 195.357 90.038 195.665 90.4025 195.961C90.5596 196.099 90.723 196.231 90.8864 196.351C91.1064 196.527 91.3263 196.691 91.5526 196.854C91.7223 196.974 91.8856 197.093 92.0616 197.207C92.1684 197.282 92.2816 197.358 92.3884 197.42C92.4827 197.49 92.5832 197.553 92.6775 197.609C93.0608 197.848 93.4505 198.081 93.8464 198.295" stroke="#0053A3" stroke-miterlimit="10"/>
<path d="M127.996 150.368V150.362" stroke="black" stroke-width="0.25" stroke-miterlimit="10"/>
<path d="M101.369 201.58C102.048 202.221 102.764 202.819 103.518 203.36C103.676 203.473 103.833 203.587 103.996 203.694C104.09 203.763 104.191 203.832 104.291 203.895C104.43 203.989 104.568 204.077 104.712 204.166C105.052 204.379 105.397 204.587 105.756 204.782" stroke="black" stroke-width="0.25" stroke-miterlimit="10"/>
<path d="M89.3408 195.03C89.6865 195.357 90.0384 195.665 90.4029 195.961C90.56 196.099 90.7234 196.231 90.8868 196.351C91.1067 196.527 91.3267 196.691 91.5529 196.854C91.7226 196.974 91.886 197.093 92.062 197.207C92.1688 197.282 92.2756 197.351 92.3888 197.42C92.483 197.49 92.5836 197.553 92.6778 197.609C93.0612 197.848 93.4508 198.081 93.8467 198.295L105.756 204.782C105.775 204.795 105.793 204.801 105.812 204.814L105.881 204.851C107.082 205.506 108.351 206.059 109.709 206.5C113.052 207.538 116.527 207.796 120.147 207.286C123.767 206.777 127.179 205.55 130.384 203.593C133.583 201.636 136.442 199.201 138.956 196.294C141.325 193.406 143.211 190.128 144.612 186.472C146.146 182.798 146.919 178.935 146.925 174.87C146.931 170.956 146.177 167.382 144.65 164.136C143.261 160.876 141.395 158.133 139.032 155.906" fill="white"/>
<path d="M89.3408 195.03C89.6865 195.357 90.0384 195.665 90.4029 195.961C90.56 196.099 90.7234 196.231 90.8868 196.351C91.1067 196.527 91.3267 196.691 91.5529 196.854C91.7226 196.974 91.886 197.093 92.062 197.207C92.1688 197.282 92.2756 197.351 92.3888 197.42C92.483 197.49 92.5836 197.553 92.6778 197.609C93.0612 197.848 93.4508 198.081 93.8467 198.295L105.756 204.782C105.775 204.795 105.793 204.801 105.812 204.814L105.881 204.851C107.082 205.506 108.351 206.059 109.709 206.5C113.052 207.538 116.527 207.796 120.147 207.286C123.767 206.777 127.179 205.55 130.384 203.593C133.583 201.636 136.442 199.201 138.956 196.294C141.325 193.406 143.211 190.128 144.612 186.472C146.146 182.798 146.919 178.935 146.925 174.87C146.931 170.956 146.177 167.382 144.65 164.136C143.261 160.876 141.395 158.133 139.032 155.906" stroke="#0053A3" stroke-miterlimit="10"/>
<path d="M122.547 146.235C126.117 148.179 130.874 150.771 134.475 152.728C134.513 152.747 134.544 152.766 134.582 152.785C134.984 153.005 135.38 153.232 135.77 153.477C135.789 153.49 135.814 153.502 135.833 153.515C135.864 153.534 135.889 153.552 135.921 153.571C136.053 153.653 136.191 153.741 136.323 153.836C136.442 153.911 136.555 153.987 136.668 154.062C136.788 154.144 136.901 154.226 137.014 154.308C137.209 154.446 137.397 154.584 137.586 154.729C137.749 154.849 137.913 154.974 138.076 155.107C138.397 155.365 138.717 155.629 139.031 155.906" fill="white"/>
<path d="M122.547 146.235C126.117 148.179 130.874 150.771 134.475 152.728C134.513 152.747 134.544 152.766 134.582 152.785C134.984 153.005 135.38 153.232 135.77 153.477C135.789 153.49 135.814 153.502 135.833 153.515C135.864 153.534 135.889 153.552 135.921 153.571C136.053 153.653 136.191 153.741 136.323 153.836C136.442 153.911 136.555 153.987 136.668 154.062C136.788 154.144 136.901 154.226 137.014 154.308C137.209 154.446 137.397 154.584 137.586 154.729C137.749 154.849 137.913 154.974 138.076 155.107C138.397 155.365 138.717 155.629 139.031 155.906" stroke="#0053A3" stroke-miterlimit="10"/>
<path d="M129.511 150.727L129.498 150.721" stroke="black" stroke-width="0.25" stroke-miterlimit="10"/>
<path d="M116.891 83.1007C106.415 103.525 96.0083 123.785 85.6704 143.888C75.3389 163.991 64.9319 184.251 54.4558 204.675L35.458 207.349C45.9341 186.925 56.3411 166.665 66.6727 146.562C77.0042 126.459 87.4112 106.199 97.8873 85.7748L116.891 83.1007Z" fill="white"/>
<path d="M85.6767 143.888C75.3389 163.991 64.9319 184.251 54.4558 204.675L66.4904 211.225L47.4926 213.899L35.458 207.349C45.1171 188.524 54.7134 169.836 64.2469 151.281L82.899 114.995C87.8825 105.293 92.8786 95.5526 97.8936 85.7748L116.891 83.1007C106.415 103.525 96.0145 123.785 85.6767 143.888Z" stroke="#0053A3" stroke-miterlimit="10"/>
<path d="M109.922 92.3311L97.8872 85.7748L116.891 83.1007L128.926 89.657L109.922 92.3311Z" fill="white"/>
<path d="M109.922 92.3311L97.8872 85.7748L116.891 83.1007L128.926 89.657L109.922 92.3311Z" fill="white" stroke="#0053A3" stroke-miterlimit="10"/>
<path d="M38.0098 147.789C38.3051 148.066 38.6068 148.336 38.9147 148.594C39.0718 148.727 39.2289 148.852 39.386 148.978C39.6374 149.18 39.8951 149.375 40.159 149.563C40.3413 149.702 40.5298 149.834 40.7246 149.96C40.9132 150.092 41.108 150.218 41.3091 150.344C41.3216 150.35 41.3342 150.362 41.3531 150.375C41.4913 150.457 41.6359 150.545 41.7804 150.633C41.9187 150.721 42.0695 150.803 42.214 150.885" stroke="black" stroke-width="0.25" stroke-miterlimit="10"/>
<path d="M25.981 141.239C26.49 141.717 27.0179 142.17 27.5709 142.598C27.7343 142.724 27.904 142.85 28.0737 142.976C28.8404 143.529 29.6385 144.039 30.4743 144.492L42.2136 150.885L42.5089 151.048" stroke="#0053A3" stroke-miterlimit="10"/>
<path d="M128.926 89.657C118.45 110.081 108.043 130.341 97.7051 150.444C87.3735 170.547 76.9665 190.808 66.4904 211.231L47.4927 213.906C57.9688 193.482 68.3758 173.221 78.7073 153.118C89.0389 133.015 99.4459 112.755 109.922 92.3311L128.926 89.657Z" fill="white" stroke="#0053A3" stroke-miterlimit="10"/>
<path d="M59.6278 92.6834C59.5649 92.652 59.5084 92.6142 59.4455 92.5827C59.3638 92.5387 59.2759 92.4884 59.1942 92.4443C57.8996 91.7333 56.5296 91.1482 55.0905 90.67C51.8917 89.6192 48.4793 89.3423 44.8657 89.852C41.2459 90.3617 37.7643 91.6075 34.421 93.5769C31.216 95.5337 28.4257 97.9561 26.0565 100.844C23.5427 103.751 21.5883 107.036 20.1931 110.691C18.7917 114.347 18.0942 118.135 18.0816 122.048C18.0753 126.107 18.7666 129.762 20.1554 133.028C21.538 136.293 23.4799 139.024 25.9811 141.239C26.2199 141.466 26.465 141.686 26.7101 141.893C26.7666 141.944 26.8232 141.994 26.886 142.044C27.1123 142.233 27.3385 142.422 27.571 142.598C27.7344 142.724 27.9041 142.85 28.0738 142.976C28.8405 143.529 29.6386 144.039 30.4744 144.492" stroke="black" stroke-width="0.25" stroke-miterlimit="10"/>
<path d="M67.0183 149.79C63.8132 151.747 60.4071 152.98 56.7873 153.49C53.1675 153.999 49.6922 153.735 46.3489 152.703C43.1501 151.652 40.3724 150.016 38.0095 147.789C35.5083 145.581 33.5664 142.843 32.1838 139.578C30.795 136.312 30.11 132.65 30.1163 128.592C30.1225 124.678 30.8264 120.897 32.2278 117.241C33.623 113.586 35.5774 110.301 38.0912 107.394C40.4604 104.506 43.2507 102.084 46.4557 100.127C49.799 98.1575 53.2806 96.9117 56.9004 96.402C60.5202 95.8924 63.9264 96.1692 67.1251 97.22C70.3239 98.277 73.177 99.9067 75.6782 102.109C78.0411 104.33 79.9139 107.08 81.3027 110.339C82.8298 113.586 83.584 117.166 83.5777 121.073C83.5714 125.131 82.7984 129.001 81.2588 132.676C79.8573 136.331 77.972 139.603 75.6028 142.497C73.0827 145.411 70.2233 147.839 67.0183 149.79Z" fill="white" stroke="#0053A3" stroke-miterlimit="10"/>
<path d="M75.6721 102.109C75.3579 101.832 75.0374 101.568 74.7169 101.31C74.5535 101.178 74.3901 101.052 74.2267 100.932C74.0633 100.8 73.8936 100.681 73.7303 100.567C73.5606 100.442 73.3909 100.322 73.2212 100.215C73.0515 100.095 72.8819 99.9822 72.7122 99.8752C72.5362 99.762 72.3603 99.6487 72.1843 99.548C72.0209 99.4411 71.8512 99.3404 71.6815 99.246C71.6313 99.2209 71.581 99.1894 71.5307 99.1642C71.4302 99.1076 71.3296 99.051 71.2291 98.9943C71.1914 98.9755 71.1536 98.9566 71.1159 98.9377C67.6595 97.0564 63.141 94.5962 59.628 92.6834C59.5652 92.652 59.5086 92.6142 59.4458 92.5828" stroke="#0053A3" stroke-miterlimit="10"/>
<path d="M59.6278 92.6834C59.5649 92.652 59.5084 92.6142 59.4455 92.5827C59.3638 92.5387 59.2759 92.4884 59.1942 92.4443C57.8996 91.7333 56.5296 91.1482 55.0905 90.67C51.8917 89.6192 48.4793 89.3423 44.8657 89.852C41.2459 90.3617 37.7643 91.6075 34.421 93.5769C31.216 95.5337 28.4257 97.9561 26.0565 100.844C23.5427 103.751 21.5883 107.036 20.1931 110.691C18.7917 114.347 18.0942 118.135 18.0816 122.048C18.0753 126.107 18.7666 129.762 20.1554 133.028C21.538 136.293 23.4799 139.024 25.9811 141.239C26.2199 141.466 26.465 141.686 26.7101 141.893C26.7666 141.944 26.8232 141.994 26.886 142.044C27.1123 142.233 27.3385 142.422 27.571 142.598C27.7344 142.724 27.9041 142.85 28.0738 142.976C28.8405 143.529 29.6386 144.039 30.4744 144.492" stroke="#0053A3" stroke-miterlimit="10"/>
<path d="M53.9279 115.555C53.9719 116.014 53.997 116.492 53.997 116.99C53.9907 118.795 53.6451 120.5 52.9412 122.099C52.3819 123.684 51.477 125.018 50.2201 126.094C49.5225 126.792 48.693 127.352 47.7314 127.793" stroke="#0053A3" stroke-miterlimit="10"/>
<path d="M47.7317 127.793C47.8196 128.787 48.0019 129.712 48.2721 130.555C48.8251 131.826 49.5918 132.845 50.5596 133.613C51.3955 134.255 52.3004 134.72 53.2745 135.035C54.3868 135.331 55.5683 135.394 56.8252 135.218C57.9375 135.06 58.9116 134.771 59.7474 134.356C60.7215 133.915 61.5574 133.343 62.2549 132.65C63.5055 131.568 64.4168 130.241 64.9761 128.655C65.6736 127.057 66.0256 125.345 66.0319 123.546C66.0319 122.036 65.8245 120.714 65.4097 119.569C64.9949 118.424 64.4419 117.449 63.7506 116.643C62.9148 115.857 61.8653 115.328 60.6147 115.058C59.5024 114.611 58.2518 114.485 56.8629 114.68C55.8323 114.825 54.8582 115.115 53.9281 115.555C53.7207 115.643 53.5133 115.75 53.3122 115.857C52.3318 116.297 51.496 116.945 50.7985 117.789C49.8244 118.833 49.0577 120.066 48.4984 121.501C47.939 122.929 47.6562 124.471 47.6562 126.132C47.6562 126.704 47.6751 127.258 47.7317 127.793Z" stroke="#0053A3" stroke-miterlimit="10"/>
<path d="M144.65 164.136C146.17 167.382 146.931 170.956 146.924 174.87C146.918 178.935 146.145 182.798 144.606 186.479C143.204 190.134 141.319 193.406 138.95 196.294C136.436 199.201 133.583 201.642 130.378 203.593C127.173 205.55 123.766 206.783 120.147 207.293C116.527 207.802 113.052 207.538 109.708 206.506C106.509 205.455 103.732 203.813 101.369 201.586C98.8677 199.384 96.9258 196.647 95.5432 193.381C94.1543 190.115 93.4693 186.454 93.4756 182.395C93.4819 178.482 94.1858 174.706 95.5872 171.044C96.9823 167.389 98.9368 164.104 101.451 161.197C103.82 158.309 106.61 155.881 109.815 153.93C113.158 151.954 116.64 150.715 120.26 150.205C123.88 149.696 127.286 149.966 130.484 151.023C133.683 152.074 136.536 153.71 139.038 155.912C141.388 158.127 143.261 160.87 144.65 164.136Z" fill="white" stroke="#0053A3" stroke-miterlimit="10"/>
<path d="M111.116 181.69C111.242 181.64 111.368 181.59 111.493 181.533C112.606 180.929 113.511 180.199 114.208 179.344C115.182 178.161 115.949 176.852 116.515 175.417C117.074 173.983 117.35 172.441 117.357 170.786C117.357 170.296 117.331 169.824 117.281 169.371" stroke="#0053A3" stroke-miterlimit="10"/>
<path d="M128.543 181.967C129.102 180.533 129.385 178.991 129.385 177.336C129.385 175.682 129.115 174.222 128.555 172.945C128.141 171.648 127.449 170.692 126.469 170.075C125.633 169.44 124.665 168.974 123.553 168.679C122.579 168.364 121.466 168.301 120.21 168.477C118.814 168.672 117.495 169.157 116.238 169.937C115.126 170.547 114.145 171.359 113.309 172.378C112.612 173.379 112.052 174.511 111.631 175.776C111.21 177.034 111.003 178.419 110.997 179.922C110.99 181.879 111.336 183.641 112.027 185.195C112.725 186.598 113.762 187.586 115.157 188.14C115.848 188.643 116.615 188.989 117.451 189.172C118.287 189.203 119.192 189.146 120.166 189.014C121.416 188.838 122.535 188.536 123.509 188.089C124.621 187.479 125.533 186.756 126.224 185.9C127.21 184.711 127.977 183.402 128.543 181.967Z" stroke="#0053A3" stroke-miterlimit="10"/>
</g>
<defs>
<clipPath id="clip0_8_2486">
<rect width="129" height="131" fill="white" transform="translate(18 83)"/>
</clipPath>
</defs>
</svg>
