<svg width="469" height="182" viewBox="0 0 469 182" fill="none" xmlns="http://www.w3.org/2000/svg">
<g clip-path="url(#clip0_51_857)">
<path d="M81.9422 12.638C82.5983 12.638 83.3273 12.638 84.0199 12.638C94.4084 12.638 104.797 12.6014 115.185 12.6747C124.152 12.7479 129.839 21.3148 126.376 29.3326C125.282 31.8222 123.533 33.7625 121.127 34.9707C120.143 35.4832 119.851 36.1056 119.888 37.1307C119.961 38.9613 119.997 40.7918 119.924 42.6224C119.851 43.977 120.325 44.4529 121.674 44.4163C124.845 44.3431 127.98 44.3797 131.151 44.3797C139.608 44.3797 144.237 51.7751 140.555 59.4268C138.842 62.978 137.056 66.5293 135.306 70.0805C134.577 71.5816 133.557 72.6433 131.88 73.1192C131.406 73.2657 130.787 74.0345 130.75 74.5471C130.604 76.4874 130.714 78.4644 130.714 80.4048C130.677 83.0042 129 84.8713 126.449 84.9079C119.888 84.9812 113.326 84.9812 106.765 84.9079C104.214 84.8713 102.501 83.0042 102.428 80.4048C102.355 78.0983 102.428 75.7918 102.428 73.1924C99.0741 73.2657 97.9806 70.8494 96.8506 68.433C95.1374 64.8086 93.1326 61.2939 91.6746 57.5596C89.4146 51.8117 93.2784 45.3682 99.4022 44.636C102.683 44.2332 106.073 44.3797 109.39 44.4163C110.775 44.4163 111.358 44.0502 111.285 42.5857C111.176 40.6454 111.249 38.705 111.249 36.6182C101.371 36.6182 91.6746 36.6182 81.8693 36.6182C81.7964 37.1673 81.7234 37.6799 81.7234 38.1924C81.5412 41.3044 79.8644 42.9885 76.7297 42.9885C71.9181 43.0251 67.143 42.9885 62.3315 43.0251C61.8212 43.0251 61.2744 43.0983 60.3267 43.1349C62.5867 46.3567 63.4615 49.9811 66.6692 52.3609C76.5109 59.7196 77.7138 74.364 69.403 83.4435C68.4917 84.432 68.0908 85.3473 68.1272 86.6653C68.2001 92.6328 68.2001 98.637 68.1272 104.605C68.1272 106.106 68.5646 106.545 70.0956 106.545C91.3101 106.508 202.488 106.508 223.703 106.582C225.379 106.582 225.89 106.142 225.853 104.422C225.744 100.101 225.817 95.7448 225.853 91.4247C225.853 88.3494 227.494 86.6653 230.555 86.6653C236.861 86.6286 243.204 86.6286 249.51 86.6653C252.39 86.6653 254.139 88.4592 254.139 91.3881C254.176 95.8546 254.212 100.284 254.139 104.751C254.139 105.996 254.358 106.508 255.743 106.728C263.689 107.826 269.704 113.464 271.563 121.372C273.203 128.402 270.178 136.163 263.872 140.593C261.211 142.46 258.222 143.668 254.905 143.851C253.192 143.925 251.515 143.998 249.802 143.888C248.38 143.815 247.906 144.254 247.906 145.755C247.979 154.286 247.979 162.852 247.906 171.383C247.906 172.774 248.38 173.25 249.692 173.14C250.458 173.067 251.26 173.104 252.062 173.14C254.249 173.287 255.852 174.824 256.108 176.911C256.363 178.888 255.196 180.792 253.264 181.524C253.046 181.597 252.791 181.707 252.572 181.707C246.63 181.744 240.689 181.927 234.747 181.67C232.269 181.561 230.811 179.254 231.029 177.058C231.284 174.751 232.961 173.287 235.513 173.14C239.267 172.92 239.267 172.92 239.267 169.113C239.267 161.425 239.231 153.736 239.267 146.048C239.267 144.51 238.939 143.925 237.262 143.925C214.845 143.961 102.428 143.961 80.0102 143.925C64.956 143.925 49.8652 143.961 34.811 143.888C32.952 143.888 32.4781 144.437 32.4781 146.268C32.551 154.505 32.551 162.743 32.4781 170.98C32.4781 172.664 33.0249 173.323 34.6652 173.104C35.3942 173.03 36.1232 173.104 36.8522 173.177C38.8935 173.396 40.4244 174.861 40.716 176.911C40.9712 178.742 39.8777 180.719 38.0187 181.451C37.2896 181.744 36.4877 181.927 35.7222 181.927C30.8014 181.963 25.8805 182.037 20.9596 181.89C19.7567 181.854 18.4445 181.414 17.3874 180.792C15.7471 179.803 15.2003 177.9 15.82 176.142C16.4396 174.422 17.6425 173.287 19.5744 173.14C19.8296 173.104 20.0483 173.104 20.3035 173.104C23.8392 172.994 23.8392 172.994 23.8392 169.516C23.8392 162.084 23.8757 154.615 23.8392 147.183C23.8392 143.595 24.3131 143.888 20.668 143.961C16.7313 144.071 12.9039 143.595 9.44105 141.545C3.35372 137.957 -0.0362207 132.612 -0.109122 125.546C-0.182024 118.443 2.98921 112.915 9.07654 109.108C10.2794 108.376 11.4459 107.387 12.2842 106.252C19.1735 97.0994 25.9534 87.8734 32.8062 78.7207C33.5716 77.6956 33.681 76.8535 33.3894 75.5722C32.8426 73.1192 32.7697 70.5199 32.4052 68.0303C32.2958 67.1517 32.1136 66.2364 31.6762 65.4675C25.9534 54.9968 20.1941 44.5261 14.4713 34.0554C9.4046 24.5732 13.1226 12.8943 22.9644 8.7573C25.7347 7.58575 28.9788 7.14642 32.0042 7.10981C46.3295 6.92675 60.6547 7.03658 75.0165 7.03658C79.7551 7.03658 80.8851 7.91524 81.9422 12.638ZM90.982 135.285C110.119 135.285 219.256 135.285 238.392 135.285C243.313 135.285 248.234 135.358 253.155 135.248C259.789 135.101 264.382 129.427 263.033 123.203C261.976 118.297 257.93 115.295 252.244 115.295C205.659 115.295 69.0749 115.295 22.4541 115.295C20.7044 115.295 18.9183 115.258 17.1687 115.478C9.69621 116.503 6.16046 125.326 10.7533 131.331C13.0132 134.296 16.0751 135.321 19.7202 135.321C43.4499 135.248 67.2159 135.285 90.982 135.285ZM52.9636 47.8577C52.0159 46.1004 51.2504 44.6726 50.4485 43.2814C46.4388 35.9592 42.4657 28.637 38.4196 21.3514C35.9045 16.8117 31.3846 14.9079 27.1198 16.4456C21.4334 18.5324 19.2828 24.4268 22.3083 30.0648C26.7917 38.3755 31.3846 46.6129 35.9045 54.887C36.1232 55.2897 36.4148 55.6924 36.7793 56.2416C40.9347 51.1527 46.1837 48.4069 52.9636 47.8577ZM39.1122 84.9079C34.0819 92.047 29.0882 99.1129 23.9486 106.399C24.714 106.508 25.0056 106.545 25.2608 106.545C36.1961 106.545 47.1314 106.545 58.0667 106.582C59.2696 106.582 59.4883 106.069 59.4883 105.044C59.4519 100.577 59.4883 96.1475 59.4883 91.6809C59.4883 91.0952 59.379 90.5094 59.3061 89.9602C48.3343 90.6558 48.3343 90.6558 39.1122 84.9079ZM53.7291 81.7594C60.5454 81.7594 66.1953 76.1579 66.2318 69.3849C66.2682 62.3922 60.5818 56.6077 53.6926 56.6443C46.8763 56.6809 41.1899 62.3922 41.1899 69.2385C41.1534 76.1213 46.8034 81.7594 53.7291 81.7594ZM45.4547 16.0062C48.8082 22.0837 51.9065 27.795 55.1142 33.433C55.3694 33.8724 56.1713 34.2019 56.7545 34.2019C61.6754 34.2751 66.5963 34.2019 71.5172 34.2751C72.7565 34.2751 73.0845 33.7625 73.0481 32.6276C73.0116 27.6851 72.9752 22.7427 73.0845 17.8002C73.121 16.1527 72.5013 15.75 70.9704 15.7866C63.2063 15.8598 55.4423 15.8232 47.6417 15.8598C47.0221 15.8964 46.4388 15.933 45.4547 16.0062ZM81.7234 27.6119C89.2324 27.6119 96.5226 27.6119 103.886 27.6119C103.886 25.4885 103.886 23.5115 103.886 21.6077C103.776 21.5345 103.74 21.4613 103.667 21.4613C96.7048 21.4247 89.7427 21.388 82.7805 21.4247C82.416 21.4247 81.7964 22.1203 81.7599 22.4864C81.6505 24.0973 81.7234 25.7447 81.7234 27.6119ZM102.391 60.1224C103.631 56.7908 106 56.4613 108.661 56.4979C113.837 56.5711 118.976 56.5711 124.152 56.4979C126.777 56.4613 129.292 56.5711 130.714 59.7196C131.479 58.2186 132.026 57.1203 132.609 55.9853C133.703 53.7521 133.338 53.1297 130.896 53.1297C121.528 53.1297 112.197 53.1297 102.829 53.1297C102.172 53.1297 101.371 52.9832 100.86 53.2761C100.386 53.5324 99.7667 54.4477 99.8761 54.8138C100.496 56.4979 101.371 58.0722 102.391 60.1224ZM122.038 76.2678C122.038 72.7165 122.075 69.4947 122.002 66.273C122.002 65.9069 121.309 65.2845 120.945 65.2479C118.102 65.1747 115.258 65.138 112.415 65.2845C111.978 65.3211 111.212 66.0899 111.212 66.5659C111.103 69.3483 111.103 72.1673 111.176 74.9498C111.176 75.3891 111.832 76.1945 112.197 76.1945C115.331 76.3044 118.539 76.2678 122.038 76.2678ZM239.996 106.362C241.381 106.362 242.803 106.325 244.188 106.362C245.099 106.399 245.5 106.032 245.5 105.081C245.464 102.298 245.537 99.4791 245.427 96.6966C245.427 96.2573 244.735 95.5251 244.334 95.5251C241.491 95.4153 238.648 95.4885 235.804 95.4519C234.857 95.4519 234.529 95.818 234.529 96.7699C234.565 99.5157 234.565 102.261 234.492 104.971C234.456 106.142 235.002 106.435 236.023 106.399C237.299 106.325 238.648 106.362 239.996 106.362ZM118.721 24.5366C118.721 22.8891 117.263 21.4247 115.55 21.4247C113.837 21.4247 112.415 22.8525 112.415 24.5732C112.415 26.2573 113.837 27.6851 115.55 27.6851C117.227 27.6851 118.721 26.2207 118.721 24.5366Z" fill="#CDE7F7" stroke="#0053A3" stroke-width="2"/>
<path d="M24.2712 119.42H24.2713C27.5761 119.453 30.1859 122.09 30.119 125.316L30.1189 125.321C30.0853 128.564 27.391 131.23 24.1723 131.197H24.1722C20.9105 131.163 18.291 128.495 18.3245 125.258H18.3246V125.253C18.3246 122.021 21.0094 119.386 24.2712 119.42ZM27.182 125.341L27.1822 125.334V125.326C27.1822 123.755 25.8904 122.345 24.3272 122.3C22.7718 122.256 21.3498 123.609 21.2621 125.152L21.262 125.153C21.2169 125.991 21.5767 126.779 22.1185 127.35C22.6595 127.92 23.4224 128.316 24.2399 128.316H24.2471H24.2543C25.8061 128.271 27.1383 126.876 27.182 125.341Z" fill="#CDE7F7" stroke="#0053A3"/>
<path d="M52.0671 119.42H52.0672C55.372 119.453 57.9818 122.09 57.9149 125.316L57.9148 125.321C57.8812 128.564 55.1869 131.23 51.9682 131.197H51.9681C48.7064 131.163 46.0869 128.495 46.1204 125.258H46.1205V125.253C46.1205 122.021 48.8053 119.386 52.0671 119.42ZM54.9779 125.341L54.9781 125.334V125.326C54.9781 123.755 53.6863 122.345 52.1231 122.3C50.5677 122.256 49.1457 123.609 49.058 125.152L49.0579 125.153C49.0128 125.991 49.3726 126.779 49.9144 127.35C50.4554 127.92 51.2183 128.316 52.0358 128.316H52.043H52.0502C53.602 128.271 54.9342 126.876 54.9779 125.341Z" fill="#CDE7F7" stroke="#0053A3"/>
<path d="M79.863 119.42H79.8631C83.1679 119.453 85.7777 122.09 85.7108 125.316L85.7107 125.321C85.6771 128.564 82.9828 131.23 79.7641 131.197H79.764C76.5023 131.163 73.8828 128.495 73.9163 125.258H73.9164V125.253C73.9164 122.021 76.6012 119.386 79.863 119.42ZM82.7738 125.341L82.774 125.334V125.326C82.774 123.755 81.4822 122.345 79.919 122.3C78.3636 122.256 76.9416 123.609 76.8539 125.152L76.8538 125.153C76.8087 125.991 77.1685 126.779 77.7103 127.35C78.2513 127.92 79.0142 128.316 79.8317 128.316H79.8389H79.8461C81.3979 128.271 82.7301 126.876 82.7738 125.341Z" fill="#CDE7F7" stroke="#0053A3"/>
<path d="M107.66 119.42H107.66C110.965 119.453 113.575 122.09 113.508 125.316L113.508 125.321C113.474 128.564 110.78 131.23 107.561 131.197H107.561C104.299 131.163 101.68 128.495 101.713 125.258H101.713V125.253C101.713 122.021 104.398 119.386 107.66 119.42ZM110.571 125.341L110.571 125.334V125.326C110.571 123.755 109.279 122.345 107.716 122.3C106.161 122.256 104.739 123.609 104.651 125.152L104.651 125.153C104.606 125.991 104.965 126.779 105.507 127.35C106.048 127.92 106.811 128.316 107.629 128.316H107.636H107.643C109.195 128.271 110.527 126.876 110.571 125.341Z" fill="#CDE7F7" stroke="#0053A3"/>
<path d="M135.456 119.42H135.456C138.761 119.453 141.371 122.09 141.304 125.316L141.304 125.321C141.27 128.564 138.576 131.23 135.357 131.197H135.357C132.095 131.163 129.476 128.495 129.509 125.258H129.509V125.253C129.509 122.021 132.194 119.386 135.456 119.42ZM138.367 125.341L138.367 125.334V125.326C138.367 123.755 137.075 122.345 135.512 122.3C133.956 122.256 132.534 123.609 132.447 125.152L132.447 125.153C132.402 125.991 132.761 126.779 133.303 127.35C133.844 127.92 134.607 128.316 135.425 128.316H135.432H135.439C136.991 128.271 138.323 126.876 138.367 125.341Z" fill="#CDE7F7" stroke="#0053A3"/>
<path d="M163.252 119.42H163.252C166.557 119.453 169.166 122.09 169.1 125.316L169.099 125.321C169.066 128.564 166.372 131.23 163.153 131.197H163.153C159.891 131.163 157.272 128.495 157.305 125.258H157.305V125.253C157.305 122.021 159.99 119.386 163.252 119.42ZM166.163 125.341L166.163 125.334V125.326C166.163 123.755 164.871 122.345 163.308 122.3C161.752 122.256 160.33 123.609 160.243 125.152L160.243 125.153C160.197 125.991 160.557 126.779 161.099 127.35C161.64 127.92 162.403 128.316 163.22 128.316H163.228H163.235C164.787 128.271 166.119 126.876 166.163 125.341Z" fill="#CDE7F7" stroke="#0053A3"/>
<path d="M191.048 119.42H191.048C194.353 119.453 196.962 122.09 196.895 125.316L196.895 125.321C196.862 128.564 194.167 131.23 190.949 131.197H190.949C187.687 131.163 185.067 128.495 185.101 125.258H185.101V125.253C185.101 122.021 187.786 119.386 191.048 119.42ZM193.958 125.341L193.959 125.334V125.326C193.959 123.755 192.667 122.345 191.104 122.3C189.548 122.256 188.126 123.609 188.039 125.152L188.038 125.153C187.993 125.991 188.353 126.779 188.895 127.35C189.436 127.92 190.199 128.316 191.016 128.316H191.024H191.031C192.583 128.271 193.915 126.876 193.958 125.341Z" fill="#CDE7F7" stroke="#0053A3"/>
<path d="M218.844 119.42H218.844C222.148 119.453 224.758 122.09 224.691 125.316L224.691 125.321C224.658 128.564 221.963 131.23 218.745 131.197H218.745C215.483 131.163 212.863 128.495 212.897 125.258H212.897V125.253C212.897 122.021 215.582 119.386 218.844 119.42ZM221.754 125.341L221.755 125.334V125.326C221.755 123.755 220.463 122.345 218.9 122.3C217.344 122.256 215.922 123.609 215.834 125.152L215.834 125.153C215.789 125.991 216.149 126.779 216.691 127.35C217.232 127.92 217.995 128.316 218.812 128.316H218.819H218.827C220.378 128.271 221.711 126.876 221.754 125.341Z" fill="#CDE7F7" stroke="#0053A3"/>
<path d="M443.79 181.5V181.45C443.69 181.22 443.55 180.89 443.38 180.45C443.03 179.6 442.58 178.45 442.12 176.99C441.022 173.768 440.405 170.402 440.29 167C440.29 165.23 440.2 163.52 440.13 162C440.13 161.72 440.13 161.44 440.13 161.17C440.035 159.598 440.035 158.022 440.13 156.45C440.139 155.385 440.451 154.344 441.03 153.45C441.34 153.1 441.727 152.827 442.161 152.654C442.596 152.48 443.064 152.41 443.53 152.45C446.11 152.45 450.04 154.06 453.35 156.75C456.66 159.44 459.18 163.06 459.18 167C459.257 170.656 458.278 174.257 456.36 177.37C454.63 180 452.28 181.55 449.76 181.55H443.85L443.79 181.5Z" fill="white" stroke="#0053A3"/>
<path d="M443.5 181.5C440.98 181.5 438.64 179.95 436.9 177.32C435.054 174.176 434.081 170.596 434.081 166.95C434.081 163.304 435.054 159.724 436.9 156.58C438.64 153.95 440.98 152.4 443.5 152.4C446.02 152.4 448.36 153.95 450.1 156.58C451.946 159.724 452.92 163.304 452.92 166.95C452.92 170.596 451.946 174.176 450.1 177.32C448.33 180 445.99 181.5 443.5 181.5Z" fill="white" stroke="#0053A3"/>
<path d="M443.59 177.79C441.75 177.79 440.02 176.65 438.73 174.69C437.348 172.345 436.62 169.672 436.62 166.95C436.62 164.228 437.348 161.556 438.73 159.21C440.02 157.21 441.73 156.11 443.59 156.11C444.597 156.176 445.571 156.494 446.422 157.036C447.273 157.578 447.974 158.326 448.46 159.21C449.841 161.556 450.57 164.228 450.57 166.95C450.57 169.672 449.841 172.345 448.46 174.69C447.16 176.65 445.43 177.79 443.59 177.79Z" fill="white" stroke="#0053A3"/>
<path d="M441.24 113.77C440.844 114.565 440.235 115.233 439.481 115.701C438.727 116.169 437.857 116.418 436.97 116.42H435.28C434.015 116.412 432.805 115.906 431.912 115.011C431.019 114.116 430.515 112.904 430.51 111.64V102.2C430.508 101.335 430.747 100.487 431.2 99.7499L431.27 99.6299C431.701 98.9593 432.292 98.4069 432.991 98.0228C433.689 97.6386 434.473 97.4348 435.27 97.4299H436.96C438.224 97.4378 439.434 97.9443 440.327 98.8393C441.221 99.7343 441.725 100.946 441.73 102.21V111.64C441.732 112.378 441.564 113.107 441.24 113.77Z" fill="white" stroke="#0053A3"/>
<path opacity="0.3" d="M440.88 114.37C440.435 114.992 439.848 115.498 439.168 115.846C438.488 116.194 437.734 116.373 436.97 116.37H435.28C434.015 116.365 432.803 115.859 431.909 114.963C431.015 114.068 430.512 112.855 430.51 111.59V102.2C430.512 101.864 430.549 101.529 430.62 101.2C431.095 103.139 431.765 105.025 432.62 106.83C434.17 110.08 436.76 113.56 440.88 114.37Z" fill="white" stroke="#0053A3"/>
<path d="M468.96 149.65C468.837 145.919 467.807 142.274 465.96 139.03L468.96 149.65ZM465.96 139.03L466.4 138.79L465.96 139.03ZM468.94 149.65C468.94 152.22 468.94 155.32 468.94 158.35V171.22L397.5 170.74L385.5 164.93L391.91 162.36C391.68 160.14 384.74 160.58 383.97 158.7L383.82 158.33C381.5 153.02 377.19 149.33 372.16 149.33C368.37 149.33 364.98 151.41 362.56 154.69C359.899 158.392 358.478 162.841 358.5 167.4C358.497 168.517 358.57 169.633 358.72 170.74H316.88C316.88 170.63 316.88 170.5 316.88 170.35C316.88 169.81 316.77 169.02 316.69 168.05C316.53 166.05 316.32 163.4 316.12 160.4C315.71 154.4 315.34 147.2 315.44 142.4C315.57 136.12 315.6 125.31 315.44 118.6V118.1H314.94H313.37V51.5H396.96C400.802 51.5023 404.569 52.5651 407.845 54.5713C411.122 56.5774 413.781 59.4491 415.53 62.87L421.02 73.63L440.46 115.71L440.51 115.81L440.6 115.89L456.93 129.05L461.77 132.97V133.02L462.06 133.33C462.3 133.61 462.66 134.02 463.06 134.55C464.16 135.949 465.14 137.437 465.99 139M465.99 139L466.43 138.76L465.99 139ZM384.8 170.76C384.8 170.93 384.75 171.09 384.72 171.26H385.23C385.23 171.09 385.23 170.93 385.31 170.76H384.8ZM396.96 97.59H397.46L396.96 97.11V97.59Z" fill="white"/>
<path d="M468.96 149.65C468.837 145.919 467.807 142.274 465.96 139.03L466.4 138.79M468.94 149.65C468.94 152.22 468.94 155.32 468.94 158.35V171.22L397.5 170.74L385.5 164.93L391.91 162.36C391.68 160.14 384.74 160.58 383.97 158.7L383.82 158.33C381.5 153.02 377.19 149.33 372.16 149.33C368.37 149.33 364.98 151.41 362.56 154.69C359.899 158.392 358.478 162.841 358.5 167.4C358.497 168.517 358.57 169.633 358.72 170.74H316.88C316.88 170.63 316.88 170.5 316.88 170.35C316.88 169.81 316.77 169.02 316.69 168.05C316.53 166.05 316.32 163.4 316.12 160.4C315.71 154.4 315.34 147.2 315.44 142.4C315.57 136.12 315.6 125.31 315.44 118.6V118.1H314.94H313.37V51.5H396.96C400.802 51.5023 404.569 52.5651 407.845 54.5713C411.122 56.5774 413.781 59.4491 415.53 62.87L421.02 73.63L440.46 115.71L440.51 115.81L440.6 115.89L456.93 129.05L461.77 132.97V133.02L462.06 133.33C462.3 133.61 462.66 134.02 463.06 134.55C464.16 135.949 465.14 137.437 465.99 139L466.43 138.76M384.8 170.76C384.8 170.93 384.75 171.09 384.72 171.26H385.23C385.23 171.09 385.23 170.93 385.31 170.76H384.8ZM396.96 97.59H397.46L396.96 97.11V97.59Z" stroke="#0053A3"/>
<path d="M384.21 159.05V159.24L384.33 159.38C386.218 161.463 387.315 164.142 387.43 166.95C387.502 170.607 386.519 174.207 384.6 177.32C382.87 179.95 380.52 181.5 378.01 181.5H372.09L371.85 180.92C371.61 180.37 371.29 179.57 370.94 178.59C370.058 176.176 369.389 173.69 368.94 171.16L368.87 170.74H359.1L358.02 145.37H384.19L384.21 159.05Z" fill="white" stroke="#0053A3"/>
<path d="M381.19 167C381.261 170.655 380.283 174.254 378.37 177.37C376.63 180 374.29 181.55 371.77 181.55C369.25 181.55 366.91 180 365.17 177.37C363.324 174.226 362.351 170.646 362.351 167C362.351 163.354 363.324 159.774 365.17 156.63C366.91 154 369.26 152.45 371.77 152.45C374.28 152.45 376.63 154 378.37 156.63C380.283 159.746 381.261 163.345 381.19 167Z" fill="white" stroke="#0053A3"/>
<path d="M378.87 167C378.923 169.729 378.191 172.415 376.76 174.74C375.47 176.74 373.76 177.84 371.9 177.84C370.04 177.84 368.32 176.7 367.03 174.74C365.649 172.394 364.92 169.722 364.92 167C364.92 164.278 365.649 161.605 367.03 159.26C368.32 157.26 370.03 156.16 371.9 156.16C373.77 156.16 375.47 157.3 376.76 159.26C378.191 161.584 378.923 164.271 378.87 167Z" fill="white" stroke="#0053A3"/>
<path d="M279.14 181.5C279.145 181.484 279.145 181.466 279.14 181.45C279.04 181.22 278.9 180.89 278.73 180.45C278.39 179.6 277.93 178.45 277.48 176.99C276.374 173.77 275.754 170.403 275.64 167C275.64 165.23 275.56 163.52 275.48 162C275.48 161.72 275.48 161.44 275.48 161.17C275.386 159.598 275.386 158.022 275.48 156.45C275.492 155.384 275.807 154.343 276.39 153.45C276.695 153.096 277.08 152.821 277.513 152.647C277.947 152.473 278.415 152.406 278.88 152.45C281.46 152.45 285.39 154.06 288.7 156.75C292.01 159.44 294.5 163 294.5 167C294.575 170.657 293.592 174.258 291.67 177.37C289.94 180 287.59 181.55 285.08 181.55H279.16L279.14 181.5Z" fill="white" stroke="#0053A3"/>
<path d="M278.82 181.5C276.3 181.5 273.96 179.95 272.23 177.32C270.377 174.178 269.399 170.597 269.399 166.95C269.399 163.302 270.377 159.722 272.23 156.58C273.96 153.95 276.3 152.4 278.82 152.4C281.34 152.4 283.68 153.95 285.42 156.58C287.266 159.724 288.24 163.304 288.24 166.95C288.24 170.596 287.266 174.176 285.42 177.32C283.68 180 281.34 181.5 278.82 181.5Z" fill="white" stroke="#0053A3"/>
<path d="M278.95 177.79C277.1 177.79 275.369 176.65 274.079 174.69C272.704 172.343 271.979 169.671 271.979 166.95C271.979 164.229 272.704 161.558 274.079 159.21C275.369 157.21 277.08 156.11 278.95 156.11C280.82 156.11 282.52 157.25 283.81 159.21C285.192 161.556 285.92 164.228 285.92 166.95C285.92 169.672 285.192 172.345 283.81 174.69C282.5 176.65 280.79 177.79 278.95 177.79Z" fill="white" stroke="#0053A3"/>
<path d="M399.91 137.8C400.214 138.108 400.461 138.467 400.64 138.86C400.919 139.455 401.153 140.07 401.34 140.7C401.827 142.422 402.192 144.176 402.43 145.95C402.996 150.058 403.257 154.203 403.21 158.35C403.21 159.35 403.15 160.26 403.09 161.09C402.771 163.618 401.729 166 400.09 167.95C399.493 168.695 398.856 169.406 398.18 170.08C397.92 170.33 397.71 170.53 397.56 170.66L397.47 170.74H385.3C385.457 169.634 385.537 168.518 385.54 167.4C385.553 164.219 384.91 161.07 383.65 158.15C381.32 152.9 377.04 149.27 372.04 149.27C367.04 149.27 362.74 152.9 360.41 158.15C359.142 161.069 358.492 164.218 358.5 167.4C358.497 168.517 358.57 169.633 358.72 170.74H202V51.5H349.65V75V75.1L350.11 74.9L349.65 75.1V75.16L349.74 75.38L350.1 76.24C350.42 76.99 350.88 78.06 351.44 79.39L355.85 89.74C359.28 97.74 363.35 107.29 365.85 113.1C367.09 115.98 367.98 117.98 368.22 118.44C368.386 118.694 368.592 118.921 368.83 119.11C369.1 119.34 369.46 119.6 369.88 119.9C370.72 120.48 371.88 121.19 373.19 122C375.87 123.6 379.37 125.58 382.96 127.61L383.14 127.71C386.68 129.71 390.3 131.71 393.31 133.53C395.616 134.782 397.823 136.209 399.91 137.8Z" fill="white" stroke="#0053A3"/>
<path d="M356.08 78.9099C356.008 78.7449 355.979 78.5645 355.995 78.3853C356.011 78.2061 356.071 78.0336 356.17 77.8836C356.27 77.7336 356.405 77.6107 356.564 77.5263C356.723 77.4418 356.9 77.3984 357.08 77.3999H417.79C418.349 77.4032 418.895 77.5684 419.361 77.8754C419.828 78.1825 420.196 78.6182 420.42 79.1299L430.62 102.5L433.17 108.34C433.352 108.777 433.424 109.252 433.379 109.723C433.334 110.194 433.174 110.647 432.914 111.042C432.653 111.437 432.299 111.762 431.884 111.988C431.468 112.215 431.003 112.335 430.53 112.34H372.96C372.405 112.338 371.862 112.177 371.396 111.875C370.93 111.574 370.56 111.145 370.33 110.64L356.08 78.9099Z" fill="white" stroke="#0053A3"/>
<path d="M350.1 82.7801L362.1 112.35H341.85H341.76C341.617 112.301 341.477 112.244 341.34 112.18C340.806 111.904 340.331 111.527 339.94 111.07C338.89 109.89 337.7 107.62 337.43 103.28C337.14 98.5801 336.99 92.1601 336.91 86.9101C336.91 84.2901 336.86 81.9101 336.85 80.2901C336.85 79.4501 336.85 78.7801 336.85 78.2901V78.1001H345.55C346.146 78.1441 346.728 78.3055 347.262 78.5749C347.795 78.8443 348.271 79.2165 348.66 79.6701C349.262 80.5511 349.718 81.5237 350.01 82.5501L350.1 82.7801Z" fill="white" stroke="#0053A3"/>
<path d="M464.88 139.48L455.32 141.26C455.32 141.26 455.09 141.26 454.88 140.8C454.666 140.267 454.601 139.687 454.69 139.12L455.63 132.68V132.54L455.81 131.22C455.874 130.773 456.012 130.341 456.22 129.94C456.34 129.694 456.537 129.494 456.78 129.37L457.06 129.27L461.67 133L461.75 133.08L462.03 133.4C462.28 133.67 462.63 134.08 463.03 134.61C464.065 135.934 464.998 137.335 465.82 138.8C465.6 139.134 465.266 139.375 464.88 139.48Z" fill="white" stroke="#0053A3"/>
<path d="M402.03 143.57L396.5 143C395.561 142.905 394.678 142.506 393.987 141.863C393.295 141.221 392.833 140.37 392.67 139.44L391.38 132.29C393.23 133.37 394.92 134.38 396.38 135.29C397.625 136.036 398.815 136.872 399.94 137.79C400.516 138.448 400.936 139.227 401.17 140.07C401.538 141.215 401.825 142.385 402.03 143.57Z" fill="white" stroke="#0053A3"/>
<path d="M414.4 144.8L402.7 143.64L396.5 143C395.561 142.905 394.678 142.506 393.987 141.864C393.296 141.221 392.833 140.37 392.67 139.44L391.26 131.63C391.252 131.56 391.252 131.49 391.26 131.42V131.35C391.247 131.032 391.307 130.715 391.435 130.424C391.563 130.133 391.756 129.874 391.999 129.669C392.242 129.463 392.529 129.316 392.838 129.238C393.146 129.161 393.469 129.154 393.78 129.22L411.99 132.93C412.465 133.028 412.903 133.255 413.256 133.587C413.609 133.919 413.863 134.342 413.99 134.81L416.13 142.74C416.201 142.995 416.209 143.264 416.153 143.523C416.097 143.782 415.979 144.023 415.808 144.226C415.638 144.429 415.42 144.587 415.175 144.687C414.93 144.787 414.664 144.826 414.4 144.8Z" fill="white" stroke="#0053A3"/>
<path d="M450.31 135.64L449.31 145.36C449.262 145.906 449.073 146.43 448.76 146.88C448.664 147.026 448.536 147.149 448.385 147.237C448.234 147.326 448.064 147.378 447.89 147.39H424.89C423.77 147.39 422.59 146.24 422.18 144.2L420.52 135.94C420.402 135.381 420.469 134.798 420.71 134.28C420.93 133.82 421.21 133.65 421.44 133.65H449.33C449.53 133.65 449.78 133.79 450 134.17C450.251 134.617 450.359 135.13 450.31 135.64Z" fill="white" stroke="#0053A3"/>
<path d="M362.15 112.42H353.15C354.442 111.163 355.398 109.602 355.93 107.88V107.8V104.14L356.65 104.98L356.8 103.88C356.975 102.614 357.072 101.338 357.09 100.06L362.15 112.42Z" fill="white" stroke="#0053A3"/>
<path d="M356.66 113.59C356.265 114.385 355.656 115.053 354.902 115.521C354.147 115.989 353.278 116.238 352.39 116.24H350.7C349.434 116.232 348.222 115.724 347.329 114.827C346.436 113.93 345.933 112.716 345.93 111.45V102C345.933 101.136 346.172 100.289 346.62 99.55L346.7 99.43C347.13 98.7581 347.721 98.2047 348.42 97.8204C349.119 97.4361 349.903 97.2331 350.7 97.23H352.39C353.655 97.2353 354.867 97.7409 355.761 98.6364C356.654 99.532 357.158 100.745 357.16 102.01V111.44C357.162 112.186 356.991 112.922 356.66 113.59Z" fill="white" stroke="#0053A3"/>
<path d="M225.13 181.5L224.89 180.93C224.65 180.37 224.33 179.57 223.98 178.59C223.097 176.18 222.428 173.697 221.98 171.17L221.91 170.75H211.91C211.317 166.865 211.549 162.899 212.59 159.11C213.297 156.468 214.756 154.088 216.79 152.26C218.9 150.46 221.88 149.26 226.06 149.26C229.249 149.156 232.38 150.136 234.94 152.04C237.068 153.748 238.718 155.976 239.73 158.51C241.309 162.387 241.972 166.575 241.67 170.75H240.1L240.02 171.15C239.545 173.895 238.371 176.471 236.61 178.63C235.94 179.485 235.092 180.184 234.125 180.68C233.158 181.175 232.096 181.455 231.01 181.5H225.1H225.13Z" fill="white" stroke="#0053A3"/>
<path d="M224.8 181.5C222.28 181.5 219.94 179.95 218.2 177.32C216.354 174.176 215.38 170.596 215.38 166.95C215.38 163.304 216.354 159.724 218.2 156.58C219.94 153.95 222.28 152.4 224.8 152.4C227.32 152.4 229.66 153.95 231.4 156.58C233.246 159.724 234.219 163.304 234.219 166.95C234.219 170.596 233.246 174.176 231.4 177.32C229.66 180 227.32 181.5 224.8 181.5Z" fill="white" stroke="#0053A3"/>
<path d="M224.93 177.79C223.08 177.79 221.35 176.65 220.06 174.69C218.678 172.345 217.95 169.672 217.95 166.95C217.95 164.228 218.678 161.556 220.06 159.21C221.35 157.21 223.06 156.11 224.93 156.11C226.8 156.11 228.5 157.25 229.79 159.21C231.171 161.556 231.9 164.228 231.9 166.95C231.9 169.672 231.171 172.345 229.79 174.69C228.5 176.65 226.77 177.79 224.93 177.79Z" fill="white" stroke="#0053A3"/>
</g>
<defs>
<clipPath id="clip0_51_857">
<rect width="469" height="182" fill="white"/>
</clipPath>
</defs>
</svg>
