<svg width="412" height="190" viewBox="0 0 412 190" fill="none" xmlns="http://www.w3.org/2000/svg">
<g clip-path="url(#clip0_5_327)">
<path fill-rule="evenodd" clip-rule="evenodd" d="M383.107 83.9146L400.098 10.2863L328.089 33.1893L343.264 47.1802L251.349 131.793L129.418 89.021L-34.8638 224.543L-15.1368 248.457L135.656 124.061L258.651 167.207L366.132 68.264L383.107 83.9146Z" fill="#CDE7F7"/>
<path d="M99.7028 131.056C97.9053 128.945 96.4438 127.139 96.4438 127.054C96.4438 126.969 98.1909 125.402 100.308 123.563M99.7028 131.056L102.206 112.254C102.609 114.485 103.331 116.921 104.104 118.658C104.507 119.577 104.558 119.833 104.39 120.003C104.272 120.122 102.441 121.723 100.308 123.563M99.7028 131.056L102.638 134.523L103.002 134.179M99.7028 131.056L107.38 131.005M100.308 123.563L100.636 123.94C100.635 123.94 100.635 123.941 100.635 123.941M100.308 123.563L100.634 123.941C100.634 123.941 100.635 123.941 100.635 123.941M100.635 123.941C99.578 124.859 98.6148 125.708 97.9167 126.338C97.5671 126.653 97.2866 126.91 97.0948 127.093C97.0921 127.096 97.0895 127.098 97.0868 127.101M100.635 123.941C101.702 123.021 102.694 122.16 103.433 121.515C104.159 120.881 104.67 120.431 104.746 120.354C104.847 120.251 104.929 120.119 104.963 119.95C104.994 119.795 104.979 119.644 104.951 119.509C104.896 119.25 104.761 118.91 104.562 118.457L104.561 118.455C103.807 116.76 103.095 114.364 102.698 112.165L102.698 112.164L102.328 110.138L102.265 109.793L101.92 109.734L101.416 109.649L101.404 109.647L101.392 109.646C101.123 109.614 99.3041 109.381 97.2891 109.124L96.9775 109.084L96.9747 109.084L93.5 108.661M97.0868 127.101L103.247 98.2205M97.0868 127.101C97.0899 127.105 97.0931 127.109 97.0963 127.113C97.2575 127.322 97.4933 127.618 97.7873 127.98C98.3745 128.702 99.1868 129.679 100.084 130.732L100.084 130.733L103.002 134.179M97.0868 127.101C96.9943 127.189 96.9275 127.255 96.8854 127.3C96.8749 127.311 96.867 127.319 96.8613 127.326C96.8552 127.332 96.8533 127.335 96.854 127.334C96.8545 127.333 96.8566 127.331 96.8598 127.326C96.8627 127.322 96.8685 127.314 96.8756 127.302C96.8818 127.292 96.8946 127.27 96.9071 127.24C96.9166 127.217 96.9438 127.148 96.9438 127.054C96.9438 126.978 96.9257 126.921 96.92 126.904C96.9121 126.879 96.9041 126.862 96.9003 126.854C96.8926 126.837 96.8869 126.828 96.8884 126.831C96.8906 126.835 96.8994 126.848 96.9187 126.876C96.9546 126.927 97.0105 127.002 97.0868 127.101ZM97.0868 127.101L103.137 134.05M93.5 108.661V109.103H93L93.0605 108.607L93.5 108.661ZM93.5 108.661V108.575C93.5 108.459 93.5637 107.821 93.6714 106.868C93.7764 105.938 93.9174 104.754 94.0611 103.587C94.2048 102.419 94.3511 101.269 94.4665 100.408C94.5214 99.9978 94.5691 99.6552 94.6061 99.4076M94.6061 99.4076C94.5616 99.4036 94.5202 99.4 94.482 99.3968C94.3816 99.3885 94.309 99.3835 94.2631 99.3816C94.2388 99.3805 94.2308 99.3807 94.2332 99.3807C94.2338 99.3807 94.2348 99.3806 94.2363 99.3806C94.2381 99.3805 94.2407 99.3803 94.2438 99.3801C94.2488 99.3798 94.2589 99.379 94.2722 99.377C94.2832 99.3755 94.3099 99.3713 94.3433 99.3609L94.3446 99.3605C94.3614 99.3554 94.4329 99.3334 94.5077 99.273C94.5136 99.2681 94.5197 99.2631 94.5257 99.2577C94.5338 99.2504 94.5414 99.2431 94.5486 99.2358C94.6082 99.1751 94.6359 99.1159 94.6403 99.1064L94.6408 99.1054C94.6528 99.0806 94.6596 99.0609 94.662 99.0538C94.6672 99.0383 94.6692 99.029 94.6682 99.0331C94.6668 99.0388 94.6633 99.0554 94.6574 99.0877C94.6461 99.1499 94.6307 99.2445 94.6118 99.3701C94.6099 99.3824 94.608 99.3949 94.6061 99.4076ZM94.6061 99.4076C94.7937 99.4246 95.0365 99.4489 95.3237 99.4798C96.0336 99.556 97.0044 99.6705 98.0599 99.8064L98.0604 99.8064C100.197 100.079 102.101 100.284 102.294 100.302L102.317 100.304H102.34C102.49 100.304 102.661 100.272 102.827 100.16C102.978 100.057 103.085 99.913 103.17 99.7681C103.332 99.4887 103.498 99.0425 103.721 98.3809M103.721 98.3809L103.247 98.2205M103.721 98.3809C103.721 98.3807 103.721 98.3804 103.721 98.3802L103.247 98.2205M103.721 98.3809C104.66 95.6088 106.463 92.2866 108.245 89.9786L108.243 89.9806L107.85 89.6709C106.036 92.0212 104.205 95.3933 103.247 98.2205M102.101 81.1411L105.208 84.8L108.635 88.8363L108.9 89.1484L108.646 89.4697L108.246 89.9764L130.553 70.7033C130.553 70.7027 130.554 70.7022 130.554 70.7016M102.101 81.1411L101.727 81.4652L101.4 81.0872L101.781 80.7636L102.101 81.1411ZM102.101 81.1411L105.523 78.1782L105.524 78.1781C106.564 77.2762 107.525 76.4512 108.233 75.8476C108.582 75.5509 108.868 75.3083 109.074 75.1366M109.074 75.1366C109.052 75.1134 109.032 75.0913 109.013 75.0704C108.932 74.9836 108.873 74.9211 108.834 74.8825C108.814 74.8619 108.806 74.8551 108.807 74.8562C108.808 74.857 108.812 74.8597 108.816 74.8636C108.821 74.867 108.831 74.8745 108.844 74.8835C108.854 74.8902 108.886 74.9102 108.93 74.9278L108.932 74.9284C108.953 74.9372 109.112 75.0011 109.298 74.9255L109.11 74.4621L109.336 74.9081C109.349 74.9017 109.36 74.8955 109.368 74.8906C109.376 74.8857 109.381 74.8823 109.382 74.8814C109.388 74.8776 109.392 74.8749 109.392 74.8746C109.393 74.8738 109.391 74.8753 109.385 74.8804C109.372 74.8902 109.352 74.9062 109.324 74.9292C109.268 74.9748 109.187 75.0414 109.084 75.1277C109.081 75.1306 109.077 75.1336 109.074 75.1366ZM109.074 75.1366C109.227 75.3045 109.431 75.5319 109.673 75.8045C110.222 76.4244 110.959 77.2698 111.728 78.1609C113.271 79.9487 114.923 81.8997 115.451 82.5844L115.452 82.5866C115.455 82.59 115.458 82.5937 115.461 82.5976C115.516 82.6684 115.63 82.8169 115.81 82.9036C116.027 83.0086 116.246 82.9885 116.428 82.9438C116.605 82.9003 116.817 82.8157 117.071 82.7026C117.331 82.5867 117.665 82.427 118.096 82.2191M118.096 82.2191C118.096 82.2192 118.096 82.2193 118.095 82.2195L117.879 81.7685L118.097 82.2188C118.096 82.2189 118.096 82.219 118.096 82.2191ZM118.096 82.2191C121.065 80.7978 125.046 79.779 127.909 79.6794L127.912 79.6793C128.019 79.675 128.109 79.6751 128.201 79.6753C128.232 79.6754 128.264 79.6754 128.296 79.6753C128.41 79.6749 128.554 79.6727 128.693 79.6429C128.848 79.6097 129.008 79.5408 129.149 79.4035C129.281 79.2746 129.364 79.1155 129.423 78.9553C129.536 78.6504 129.612 78.1992 129.696 77.5721C129.747 77.1908 129.804 76.7205 129.873 76.147C129.921 75.7572 129.973 75.3199 130.034 74.8303L130.034 74.8294C130.269 72.9063 130.504 71.0578 130.554 70.7016M130.554 70.7016C130.563 70.6377 130.575 70.579 130.588 70.5277M130.554 70.7016L130.588 70.5277M130.588 70.5277C130.644 70.534 130.707 70.5413 130.777 70.5494C131.064 70.5828 131.459 70.6308 131.925 70.6886C132.857 70.8042 134.072 70.959 135.28 71.1154C136.488 71.2718 137.688 71.4297 138.588 71.5517C139.016 71.6097 139.376 71.6594 139.636 71.6969C139.616 71.8981 139.588 72.1596 139.555 72.4692C139.473 73.2272 139.356 74.2687 139.222 75.4085C139.15 76.0163 139.08 76.6136 139.014 77.1687C138.834 78.6957 138.692 79.9033 138.667 80.1301L138.666 80.1412L138.666 80.1412L138.615 80.7203L138.585 81.0727L138.907 81.2189L140.671 82.0193C140.671 82.0193 140.671 82.0194 140.671 82.0194C141.635 82.4578 143.006 83.162 143.7 83.6038L143.71 83.6103L143.71 83.6102C144.354 83.9984 145.305 84.6603 146.124 85.2659C146.532 85.5676 146.901 85.8514 147.178 86.0758C147.317 86.1883 147.429 86.2827 147.509 86.3552C147.58 86.4189 147.603 86.4459 147.604 86.4453C147.605 86.445 147.601 86.4402 147.596 86.4315L148.017 86.1625M130.588 70.5277L155.493 97.0113M148.017 86.1625L147.587 86.4171C147.634 86.4976 147.707 86.5731 147.746 86.6131C147.799 86.6674 147.864 86.7296 147.935 86.7947C148.077 86.9253 148.256 87.0803 148.438 87.2298C148.439 87.2299 148.439 87.2301 148.439 87.2302L149.076 87.757L149.401 88.0257L149.721 87.7508L153.484 84.5149L153.485 84.5139C154.516 83.6214 155.467 82.8146 156.167 82.2316C156.509 81.9472 156.79 81.7175 156.99 81.5575C156.991 81.5586 156.992 81.5597 156.993 81.5608C157.178 81.7622 157.436 82.0527 157.744 82.4053C158.36 83.1095 159.168 84.0515 159.973 84.9999C160.777 85.9483 161.576 86.9011 162.173 87.6266C162.472 87.9898 162.718 88.2938 162.889 88.5111C162.895 88.5177 162.9 88.5242 162.905 88.5306C162.899 88.5357 162.894 88.541 162.888 88.5463C162.681 88.7391 162.38 89.0124 162.005 89.3467C161.257 90.0147 160.222 90.9194 159.081 91.897L159.079 91.8987C157.226 93.5047 156.199 94.3814 155.612 94.827C155.429 94.9659 155.306 95.0491 155.227 95.0975C155.195 95.0841 155.157 95.0721 155.114 95.0648C154.987 95.0435 154.837 95.069 154.712 95.17C154.605 95.2559 154.563 95.3598 154.547 95.4106C154.529 95.4661 154.524 95.5136 154.522 95.5406C154.518 95.5949 154.523 95.6418 154.526 95.6675C154.539 95.7669 154.575 95.8983 154.613 96.0252C154.696 96.2999 154.839 96.709 155.026 97.1919M148.017 86.1625C148.067 86.2476 148.403 86.5542 148.756 86.8437L140.877 81.5641C141.852 82.0069 143.246 82.7222 143.968 83.182C145.296 83.9825 147.832 85.873 148.017 86.1625ZM155.026 97.1919C155.026 97.1919 155.026 97.1919 155.026 97.1919L155.493 97.0113M155.026 97.1919C155.026 97.1914 155.026 97.1909 155.026 97.1904L155.493 97.0113M155.026 97.1919C156.067 99.9053 156.76 103.087 156.875 105.787L156.875 105.792L156.875 105.792L156.925 106.729L156.948 107.145L157.361 107.198L162.149 107.811L166.474 108.365M155.493 97.0113C156.551 99.7703 157.257 103.006 157.374 105.765L157.425 106.702L162.212 107.315L167 107.928M166.474 108.365L166.501 107.899L167 107.928M166.474 108.365L166.936 108.424L167 107.928M166.474 108.365L166.467 108.477M167 107.928L166.966 108.507M103.483 134.412C103.768 134.139 105.532 132.606 107.38 131.005M103.483 134.412L103.325 134.561L103.002 134.179M103.483 134.412L103.139 134.049L103.138 134.049M103.483 134.412L103.137 134.05M107.38 131.005L110.773 128.093L111.748 128.962M107.38 131.005L132.511 135.484M103.002 134.179L103.137 134.05M103.137 134.05L103.138 134.049M103.138 134.049C103.437 133.764 105.215 132.22 107.053 130.627L107.054 130.626L110.448 127.714L110.78 127.429L111.106 127.72L112.077 128.585M103.138 134.049L161.356 117.585L161.418 117.089C158.93 116.775 157.489 116.602 156.67 116.547C156.274 116.521 155.968 116.517 155.752 116.56C155.643 116.582 155.49 116.627 155.362 116.744C155.22 116.875 155.168 117.038 155.161 117.179M112.077 128.585C114.345 130.534 117.799 132.512 120.849 133.582L120.848 133.581L120.685 134.054M112.077 128.585C112.076 128.584 112.075 128.583 112.074 128.582L111.748 128.962M112.077 128.585L112.081 128.588L111.748 128.962M120.685 134.054L120.85 133.582L122.427 134.126L122.807 134.257L122.761 134.656L122.66 135.525L122.659 135.528C122.29 138.537 122.072 140.352 121.968 141.421C121.925 141.866 121.902 142.169 121.895 142.371M120.685 134.054L122.264 134.599L122.163 135.467C121.424 141.479 121.29 142.757 121.458 142.808C121.642 142.876 130.092 143.898 130.966 143.966L131.369 144M120.685 134.054C117.577 132.964 114.066 130.954 111.748 128.962M121.895 142.371C121.914 142.374 121.932 142.376 121.952 142.379C122.2 142.413 122.547 142.459 122.962 142.512C123.792 142.618 124.892 142.754 126.014 142.891C128.161 143.151 130.366 143.409 130.934 143.461M121.895 142.371C121.798 142.358 121.72 142.346 121.662 142.337C121.628 142.332 121.604 142.328 121.589 142.325C121.586 142.325 121.583 142.324 121.581 142.324M121.895 142.371C121.894 142.414 121.893 142.452 121.893 142.486C121.893 142.584 121.898 142.62 121.899 142.62C121.899 142.62 121.899 142.62 121.899 142.62L121.898 142.62C121.898 142.619 121.89 142.58 121.86 142.528C121.829 142.476 121.758 142.386 121.631 142.339C121.628 142.338 121.624 142.336 121.621 142.335C121.615 142.333 121.609 142.331 121.603 142.33C121.594 142.327 121.586 142.325 121.581 142.324M130.934 143.461L131.41 139.715L131.907 139.776M130.934 143.461L130.873 143.937L130.967 143.949L130.967 143.949L131.369 144M130.934 143.461C130.961 143.464 130.985 143.466 131.005 143.467L131.008 143.468L131.411 143.502L131.369 144M131.907 139.776L131.411 139.713L131.411 139.714C131.554 138.555 131.692 137.488 131.802 136.705C131.857 136.314 131.905 135.991 131.943 135.762C131.961 135.649 131.978 135.553 131.993 135.481C132.001 135.447 132.009 135.409 132.019 135.374C132.024 135.358 132.032 135.33 132.045 135.299C132.052 135.284 132.064 135.257 132.083 135.226C132.093 135.209 132.127 135.154 132.191 135.101M131.907 139.776C132.192 137.46 132.461 135.519 132.511 135.484M131.907 139.776L131.369 144M132.191 135.101C132.252 135.049 132.311 135.024 132.324 135.018L132.326 135.017C132.356 135.004 132.385 134.993 132.408 134.985C132.454 134.97 132.509 134.954 132.566 134.939C132.682 134.909 132.837 134.873 133.017 134.834C133.379 134.756 133.863 134.661 134.387 134.567M132.191 135.101C132.179 135.111 132.167 135.121 132.155 135.133L132.511 135.484M132.191 135.101C132.203 135.09 132.217 135.08 132.231 135.07L132.511 135.484M134.387 134.567C137.377 134.014 140.514 132.891 142.98 131.474L142.983 131.473C143.274 131.308 143.558 131.155 143.78 131.043C143.891 130.987 143.99 130.938 144.07 130.903C144.109 130.885 144.15 130.868 144.188 130.854C144.207 130.847 144.231 130.839 144.258 130.832C144.276 130.827 144.333 130.812 144.405 130.812C144.519 130.812 144.602 130.851 144.623 130.861L144.623 130.861C144.656 130.877 144.681 130.893 144.695 130.902C144.723 130.921 144.746 130.94 144.759 130.951C144.788 130.976 144.819 131.005 144.847 131.033C144.906 131.091 144.983 131.172 145.074 131.27C145.257 131.466 145.511 131.747 145.816 132.091C146.428 132.779 147.253 133.727 148.145 134.767L148.148 134.771C149.027 135.816 149.844 136.762 150.449 137.446C150.75 137.785 150.996 138.057 151.171 138.244M134.387 134.567C134.387 134.567 134.386 134.567 134.386 134.567L134.477 135.059M134.387 134.567C134.387 134.567 134.388 134.567 134.388 134.567L134.477 135.059M151.171 138.244C151.18 138.237 151.188 138.231 151.196 138.224C151.412 138.053 151.712 137.805 152.07 137.505C152.785 136.904 153.721 136.101 154.652 135.292C155.583 134.483 156.507 133.67 157.198 133.051C157.543 132.741 157.828 132.481 158.025 132.295C158.028 132.293 158.03 132.291 158.032 132.289M151.171 138.244C151.173 138.245 151.175 138.247 151.177 138.249C151.265 138.343 151.331 138.411 151.375 138.453C151.398 138.474 151.407 138.482 151.406 138.482C151.406 138.481 151.403 138.479 151.398 138.475C151.394 138.472 151.385 138.466 151.374 138.459C151.363 138.453 151.341 138.44 151.31 138.427C151.287 138.417 151.218 138.391 151.125 138.391C151.053 138.391 150.999 138.407 150.979 138.413C150.955 138.421 150.937 138.429 150.928 138.433C150.916 138.439 150.908 138.443 150.905 138.445C150.909 138.442 150.924 138.433 150.95 138.413C151.001 138.376 151.075 138.32 151.171 138.244ZM158.032 132.289C157.895 132.112 157.705 131.875 157.475 131.59C156.976 130.973 156.296 130.145 155.576 129.274C154.133 127.53 152.534 125.625 151.893 124.899M158.032 132.289C158.128 132.198 158.199 132.13 158.244 132.084C158.255 132.072 158.264 132.063 158.27 132.056L158.278 132.048C158.28 132.045 158.28 132.045 158.28 132.045L158.276 132.05C158.273 132.054 158.268 132.061 158.261 132.071C158.255 132.08 158.242 132.101 158.228 132.131C158.22 132.15 158.184 132.227 158.184 132.334C158.184 132.425 158.21 132.492 158.215 132.504C158.224 132.528 158.233 132.546 158.236 132.553C158.244 132.568 158.25 132.577 158.248 132.574C158.247 132.571 158.239 132.56 158.222 132.536C158.189 132.491 158.137 132.423 158.067 132.333C158.056 132.319 158.044 132.304 158.032 132.289ZM151.893 124.899C151.889 124.895 151.885 124.89 151.881 124.885C151.814 124.812 151.699 124.683 151.634 124.523C151.546 124.306 151.567 124.097 151.632 123.905C151.69 123.734 151.794 123.544 151.922 123.332C152.054 123.113 152.235 122.833 152.468 122.475M151.893 124.899C151.894 124.9 151.894 124.9 151.894 124.9L152.267 124.568L151.892 124.899C151.893 124.899 151.893 124.899 151.893 124.899ZM152.468 122.475C152.916 121.772 153.6 120.514 154.174 119.37C154.461 118.799 154.717 118.265 154.9 117.849C154.992 117.641 155.063 117.469 155.11 117.34C155.133 117.275 155.148 117.227 155.157 117.195C155.159 117.188 155.16 117.183 155.161 117.179M152.468 122.475C152.468 122.475 152.468 122.476 152.467 122.476L152.889 122.745L152.47 122.473C152.469 122.473 152.469 122.474 152.468 122.475ZM155.161 117.179C155.166 117.158 155.161 117.174 155.161 117.21C155.161 117.2 155.161 117.19 155.161 117.179ZM166.467 108.477C166.467 108.477 166.467 108.477 166.467 108.476L166.966 108.507M166.467 108.477L166.467 108.478L166.966 108.507M166.467 108.477L166.966 108.507M134.477 135.059C133.435 135.246 132.562 135.433 132.511 135.484M134.477 135.059C137.518 134.497 140.709 133.356 143.229 131.908C143.8 131.584 144.338 131.312 144.405 131.312C144.472 131.312 145.984 133.015 147.765 135.093L132.511 135.484M121.581 142.324C121.576 142.323 121.574 142.322 121.575 142.322C121.575 142.322 121.577 142.323 121.581 142.324ZM155.177 96.1471C155.132 96.1469 155.084 96.1423 155.036 96.1314C154.845 96.089 154.723 95.9734 154.651 95.8737L155.022 95.6048C155.022 95.6053 155.023 95.6057 155.023 95.6062L154.659 95.885L154.659 95.8852C154.661 95.8879 154.692 95.9286 154.747 95.9683C154.776 95.9885 154.845 96.0336 154.948 96.0509C155.009 96.0612 155.076 96.0602 155.143 96.0445C155.154 96.0773 155.165 96.1115 155.177 96.1471ZM165.841 117.959L165.362 117.814C165.359 117.826 165.357 117.833 165.357 117.833C165.356 117.833 165.361 117.811 165.37 117.752C165.379 117.69 165.391 117.606 165.405 117.501C165.455 117.503 165.5 117.504 165.54 117.504C165.626 117.504 165.669 117.5 165.683 117.498C165.676 117.5 165.657 117.504 165.631 117.514L165.63 117.515C165.611 117.522 165.458 117.582 165.38 117.765L165.841 117.959Z" fill="white" stroke="#0053A3"/>
<circle cx="130" cy="107" r="9" fill="#0053A3"/>
<path d="M225.703 165.056C223.905 162.945 222.444 161.139 222.444 161.054C222.444 160.969 224.191 159.402 226.308 157.563M225.703 165.056L228.206 146.254C228.609 148.485 229.331 150.921 230.104 152.658C230.507 153.577 230.558 153.833 230.39 154.003C230.272 154.122 228.441 155.723 226.308 157.563M225.703 165.056L228.638 168.523L229.002 168.179M225.703 165.056L233.38 165.005M226.308 157.563L226.636 157.94C226.635 157.94 226.635 157.941 226.635 157.941M226.308 157.563L226.634 157.941C226.634 157.941 226.635 157.941 226.635 157.941M226.635 157.941C225.578 158.859 224.615 159.708 223.917 160.338C223.567 160.653 223.287 160.91 223.095 161.093C223.092 161.096 223.089 161.098 223.087 161.101M226.635 157.941C227.702 157.021 228.694 156.16 229.433 155.515C230.159 154.881 230.67 154.431 230.746 154.354C230.847 154.251 230.929 154.119 230.963 153.95C230.994 153.795 230.979 153.644 230.951 153.509C230.896 153.25 230.761 152.91 230.562 152.457L230.561 152.455C229.807 150.76 229.095 148.364 228.698 146.165L228.698 146.164L228.328 144.138L228.265 143.793L227.92 143.734L227.416 143.649L227.404 143.647L227.392 143.646C227.123 143.614 225.304 143.381 223.289 143.124L222.978 143.084L222.975 143.084L219.5 142.661M223.087 161.101L229.247 132.22M223.087 161.101C223.09 161.105 223.093 161.109 223.096 161.113C223.258 161.322 223.493 161.618 223.787 161.98C224.375 162.702 225.187 163.679 226.084 164.732L226.084 164.733L229.002 168.179M223.087 161.101C222.994 161.189 222.927 161.255 222.885 161.3C222.875 161.311 222.867 161.319 222.861 161.326C222.855 161.332 222.853 161.335 222.854 161.334C222.855 161.333 222.857 161.331 222.86 161.326C222.863 161.322 222.869 161.314 222.876 161.302C222.882 161.292 222.895 161.27 222.907 161.24C222.917 161.217 222.944 161.148 222.944 161.054C222.944 160.978 222.926 160.921 222.92 160.904C222.912 160.879 222.904 160.862 222.9 160.854C222.893 160.837 222.887 160.828 222.888 160.831C222.891 160.835 222.899 160.848 222.919 160.876C222.955 160.927 223.011 161.002 223.087 161.101ZM223.087 161.101L229.137 168.05M219.5 142.661V143.103H219L219.06 142.607L219.5 142.661ZM219.5 142.661V142.575C219.5 142.459 219.564 141.821 219.671 140.868C219.776 139.938 219.917 138.754 220.061 137.587C220.205 136.419 220.351 135.269 220.467 134.408C220.521 133.998 220.569 133.655 220.606 133.408M220.606 133.408C220.562 133.404 220.52 133.4 220.482 133.397C220.382 133.388 220.309 133.384 220.263 133.382C220.239 133.381 220.231 133.381 220.233 133.381C220.234 133.381 220.235 133.381 220.236 133.381C220.238 133.38 220.241 133.38 220.244 133.38C220.249 133.38 220.259 133.379 220.272 133.377C220.283 133.375 220.31 133.371 220.343 133.361L220.345 133.361C220.361 133.355 220.433 133.333 220.508 133.273C220.514 133.268 220.52 133.263 220.526 133.258C220.534 133.25 220.541 133.243 220.549 133.236C220.608 133.175 220.636 133.116 220.64 133.106L220.641 133.105C220.653 133.081 220.66 133.061 220.662 133.054C220.667 133.038 220.669 133.029 220.668 133.033C220.667 133.039 220.663 133.055 220.657 133.088C220.646 133.15 220.631 133.244 220.612 133.37C220.61 133.382 220.608 133.395 220.606 133.408ZM220.606 133.408C220.794 133.425 221.036 133.449 221.324 133.48C222.034 133.556 223.004 133.67 224.06 133.806L224.06 133.806C226.197 134.079 228.101 134.284 228.294 134.302L228.317 134.304H228.34C228.49 134.304 228.661 134.272 228.827 134.16C228.978 134.057 229.085 133.913 229.17 133.768C229.332 133.489 229.498 133.042 229.721 132.381M229.721 132.381L229.247 132.22M229.721 132.381C229.721 132.381 229.721 132.38 229.721 132.38L229.247 132.22M229.721 132.381C230.66 129.609 232.463 126.287 234.245 123.979L234.243 123.981L233.85 123.671C232.036 126.021 230.205 129.393 229.247 132.22M228.101 115.141L231.208 118.8L234.635 122.836L234.9 123.148L234.646 123.47L234.246 123.976L256.553 104.703C256.553 104.703 256.554 104.702 256.554 104.702M228.101 115.141L227.727 115.465L227.4 115.087L227.781 114.764L228.101 115.141ZM228.101 115.141L231.523 112.178L231.524 112.178C232.564 111.276 233.525 110.451 234.233 109.848C234.582 109.551 234.868 109.308 235.074 109.137M235.074 109.137C235.052 109.113 235.032 109.091 235.013 109.07C234.932 108.984 234.873 108.921 234.834 108.882C234.814 108.862 234.806 108.855 234.807 108.856C234.808 108.857 234.812 108.86 234.816 108.864C234.821 108.867 234.831 108.874 234.844 108.883C234.854 108.89 234.886 108.91 234.93 108.928L234.932 108.928C234.953 108.937 235.112 109.001 235.298 108.925L235.11 108.462L235.336 108.908C235.349 108.902 235.36 108.895 235.368 108.891C235.376 108.886 235.381 108.882 235.382 108.881C235.388 108.878 235.392 108.875 235.392 108.875C235.393 108.874 235.391 108.875 235.385 108.88C235.372 108.89 235.352 108.906 235.324 108.929C235.268 108.975 235.187 109.041 235.084 109.128C235.081 109.131 235.077 109.134 235.074 109.137ZM235.074 109.137C235.227 109.304 235.431 109.532 235.673 109.804C236.222 110.424 236.959 111.27 237.728 112.161C239.271 113.949 240.923 115.9 241.451 116.584L241.452 116.587C241.455 116.59 241.458 116.594 241.461 116.598C241.516 116.668 241.63 116.817 241.81 116.904C242.027 117.009 242.246 116.988 242.428 116.944C242.605 116.9 242.817 116.816 243.071 116.703C243.331 116.587 243.665 116.427 244.096 116.219M244.096 116.219C244.096 116.219 244.096 116.219 244.095 116.219L243.879 115.768L244.097 116.219C244.096 116.219 244.096 116.219 244.096 116.219ZM244.096 116.219C247.065 114.798 251.046 113.779 253.909 113.679L253.912 113.679C254.019 113.675 254.109 113.675 254.201 113.675C254.232 113.675 254.264 113.675 254.296 113.675C254.41 113.675 254.554 113.673 254.693 113.643C254.848 113.61 255.008 113.541 255.149 113.403C255.281 113.275 255.364 113.115 255.423 112.955C255.536 112.65 255.612 112.199 255.696 111.572C255.747 111.191 255.804 110.72 255.873 110.147C255.921 109.757 255.973 109.32 256.034 108.83L256.034 108.829C256.269 106.906 256.504 105.058 256.554 104.702M256.554 104.702C256.563 104.638 256.575 104.579 256.588 104.528M256.554 104.702L256.588 104.528M256.588 104.528C256.644 104.534 256.707 104.541 256.777 104.549C257.064 104.583 257.459 104.631 257.925 104.689C258.857 104.804 260.072 104.959 261.28 105.115C262.488 105.272 263.688 105.43 264.588 105.552C265.016 105.61 265.376 105.659 265.636 105.697C265.616 105.898 265.588 106.16 265.555 106.469C265.473 107.227 265.356 108.269 265.222 109.408C265.15 110.016 265.08 110.614 265.014 111.169C264.834 112.696 264.692 113.903 264.667 114.13L264.666 114.141L264.666 114.141L264.615 114.72L264.585 115.073L264.907 115.219L266.671 116.019C266.671 116.019 266.671 116.019 266.671 116.019C267.635 116.458 269.006 117.162 269.7 117.604L269.71 117.61L269.71 117.61C270.354 117.998 271.305 118.66 272.124 119.266C272.532 119.568 272.901 119.851 273.178 120.076C273.317 120.188 273.429 120.283 273.509 120.355C273.58 120.419 273.603 120.446 273.604 120.445C273.605 120.445 273.601 120.44 273.596 120.431L274.017 120.162M256.588 104.528L281.493 131.011M274.017 120.162L273.587 120.417C273.634 120.498 273.707 120.573 273.746 120.613C273.799 120.667 273.864 120.73 273.935 120.795C274.077 120.925 274.256 121.08 274.438 121.23C274.439 121.23 274.439 121.23 274.439 121.23L275.076 121.757L275.401 122.026L275.721 121.751L279.484 118.515L279.485 118.514C280.516 117.621 281.467 116.815 282.167 116.232C282.509 115.947 282.79 115.717 282.99 115.558C282.991 115.559 282.992 115.56 282.993 115.561C283.178 115.762 283.436 116.053 283.744 116.405C284.36 117.109 285.168 118.052 285.973 119C286.777 119.948 287.576 120.901 288.173 121.627C288.472 121.99 288.718 122.294 288.889 122.511C288.895 122.518 288.9 122.524 288.905 122.531C288.899 122.536 288.894 122.541 288.888 122.546C288.681 122.739 288.38 123.012 288.005 123.347C287.257 124.015 286.222 124.919 285.081 125.897L285.079 125.899C283.226 127.505 282.199 128.381 281.612 128.827C281.429 128.966 281.306 129.049 281.227 129.098C281.195 129.084 281.157 129.072 281.114 129.065C280.987 129.043 280.837 129.069 280.712 129.17C280.605 129.256 280.563 129.36 280.547 129.411C280.529 129.466 280.524 129.514 280.522 129.541C280.518 129.595 280.523 129.642 280.526 129.668C280.539 129.767 280.575 129.898 280.613 130.025C280.696 130.3 280.839 130.709 281.026 131.192M274.017 120.162C274.067 120.248 274.403 120.554 274.756 120.844L266.877 115.564C267.852 116.007 269.246 116.722 269.968 117.182C271.296 117.983 273.832 119.873 274.017 120.162ZM281.026 131.192C281.026 131.192 281.026 131.192 281.026 131.192L281.493 131.011M281.026 131.192C281.026 131.191 281.026 131.191 281.026 131.19L281.493 131.011M281.026 131.192C282.067 133.905 282.76 137.087 282.875 139.787L282.875 139.792L282.875 139.792L282.925 140.729L282.948 141.145L283.361 141.198L288.149 141.811L292.474 142.365M281.493 131.011C282.551 133.77 283.257 137.006 283.374 139.765L283.425 140.702L288.212 141.315L293 141.928M292.474 142.365L292.501 141.899L293 141.928M292.474 142.365L292.936 142.424L293 141.928M292.474 142.365L292.467 142.477M293 141.928L292.966 142.507M229.483 168.412C229.768 168.139 231.532 166.606 233.38 165.005M229.483 168.412L229.325 168.561L229.002 168.179M229.483 168.412L229.139 168.049L229.138 168.049M229.483 168.412L229.137 168.05M233.38 165.005L236.773 162.093L237.748 162.962M233.38 165.005L258.511 169.484M229.002 168.179L229.137 168.05M229.137 168.05L229.138 168.049M229.138 168.049C229.437 167.764 231.215 166.22 233.053 164.627L233.054 164.626L236.448 161.714L236.78 161.429L237.106 161.72L238.077 162.585M229.138 168.049L287.356 151.585L287.418 151.089C284.93 150.775 283.489 150.602 282.67 150.547C282.274 150.521 281.968 150.517 281.752 150.56C281.643 150.582 281.49 150.627 281.362 150.744C281.22 150.875 281.168 151.038 281.161 151.179M238.077 162.585C240.345 164.534 243.799 166.512 246.849 167.582L246.848 167.581L246.685 168.054M238.077 162.585C238.076 162.584 238.075 162.583 238.074 162.582L237.748 162.962M238.077 162.585L238.081 162.588L237.748 162.962M246.685 168.054L246.85 167.582L248.427 168.126L248.807 168.257L248.761 168.656L248.66 169.525L248.659 169.528C248.29 172.537 248.072 174.352 247.968 175.421C247.925 175.866 247.902 176.169 247.895 176.371M246.685 168.054L248.264 168.599L248.163 169.467C247.424 175.479 247.29 176.757 247.458 176.808C247.642 176.876 256.092 177.898 256.966 177.966L257.369 178M246.685 168.054C243.577 166.964 240.066 164.954 237.748 162.962M247.895 176.371C247.914 176.374 247.932 176.376 247.952 176.379C248.2 176.413 248.547 176.459 248.962 176.512C249.792 176.618 250.892 176.754 252.014 176.891C254.161 177.151 256.366 177.409 256.934 177.461M247.895 176.371C247.798 176.358 247.72 176.346 247.662 176.337C247.628 176.332 247.604 176.328 247.589 176.325C247.586 176.325 247.583 176.324 247.581 176.324M247.895 176.371C247.894 176.414 247.893 176.452 247.893 176.486C247.893 176.584 247.898 176.62 247.899 176.62C247.899 176.62 247.899 176.62 247.899 176.62L247.898 176.62C247.898 176.619 247.89 176.58 247.86 176.528C247.829 176.476 247.758 176.386 247.631 176.339C247.628 176.338 247.624 176.336 247.621 176.335C247.615 176.333 247.609 176.331 247.603 176.33C247.594 176.327 247.586 176.325 247.581 176.324M256.934 177.461L257.41 173.715L257.907 173.776M256.934 177.461L256.873 177.937L256.967 177.949L256.967 177.949L257.369 178M256.934 177.461C256.961 177.464 256.985 177.466 257.005 177.467L257.008 177.468L257.411 177.502L257.369 178M257.907 173.776L257.411 173.713L257.411 173.714C257.554 172.555 257.692 171.488 257.802 170.705C257.857 170.314 257.905 169.991 257.943 169.762C257.961 169.649 257.978 169.553 257.993 169.481C258.001 169.447 258.009 169.409 258.019 169.374C258.024 169.358 258.032 169.33 258.045 169.299C258.052 169.284 258.064 169.257 258.083 169.226C258.093 169.209 258.127 169.154 258.191 169.101M257.907 173.776C258.192 171.46 258.461 169.519 258.511 169.484M257.907 173.776L257.369 178M258.191 169.101C258.252 169.049 258.311 169.024 258.324 169.018L258.326 169.017C258.356 169.004 258.385 168.993 258.408 168.985C258.454 168.97 258.509 168.954 258.566 168.939C258.682 168.909 258.837 168.873 259.017 168.834C259.379 168.756 259.863 168.661 260.387 168.567M258.191 169.101C258.179 169.111 258.167 169.121 258.155 169.133L258.511 169.484M258.191 169.101C258.203 169.09 258.217 169.08 258.231 169.07L258.511 169.484M260.387 168.567C263.377 168.014 266.514 166.891 268.98 165.474L268.983 165.473C269.274 165.308 269.558 165.155 269.78 165.043C269.891 164.987 269.99 164.938 270.07 164.903C270.109 164.885 270.15 164.868 270.188 164.854C270.207 164.847 270.231 164.839 270.258 164.832C270.276 164.827 270.333 164.812 270.405 164.812C270.519 164.812 270.602 164.851 270.623 164.861L270.623 164.861C270.656 164.877 270.681 164.893 270.695 164.902C270.723 164.921 270.746 164.94 270.759 164.951C270.788 164.976 270.819 165.005 270.847 165.033C270.906 165.091 270.983 165.172 271.074 165.27C271.257 165.466 271.511 165.747 271.816 166.091C272.428 166.779 273.253 167.727 274.145 168.767L274.148 168.771C275.027 169.816 275.844 170.762 276.449 171.446C276.75 171.785 276.996 172.057 277.171 172.244M260.387 168.567C260.387 168.567 260.386 168.567 260.386 168.567L260.477 169.059M260.387 168.567C260.387 168.567 260.388 168.567 260.388 168.567L260.477 169.059M277.171 172.244C277.18 172.237 277.188 172.231 277.196 172.224C277.412 172.053 277.712 171.805 278.07 171.505C278.785 170.904 279.721 170.101 280.652 169.292C281.583 168.483 282.507 167.67 283.198 167.051C283.543 166.741 283.828 166.481 284.025 166.295C284.028 166.293 284.03 166.291 284.032 166.289M277.171 172.244C277.173 172.245 277.175 172.247 277.177 172.249C277.265 172.343 277.331 172.411 277.375 172.453C277.398 172.474 277.407 172.482 277.406 172.482C277.406 172.481 277.403 172.479 277.398 172.475C277.394 172.472 277.385 172.466 277.374 172.459C277.363 172.453 277.341 172.44 277.31 172.427C277.287 172.417 277.218 172.391 277.125 172.391C277.053 172.391 276.999 172.407 276.979 172.413C276.955 172.421 276.937 172.429 276.928 172.433C276.916 172.439 276.908 172.443 276.905 172.445C276.909 172.442 276.924 172.433 276.95 172.413C277.001 172.376 277.075 172.32 277.171 172.244ZM284.032 166.289C283.895 166.112 283.705 165.875 283.475 165.59C282.976 164.973 282.296 164.145 281.576 163.274C280.133 161.53 278.534 159.625 277.893 158.899M284.032 166.289C284.128 166.198 284.199 166.13 284.244 166.084C284.255 166.072 284.264 166.063 284.27 166.056L284.278 166.048C284.28 166.045 284.28 166.045 284.28 166.045L284.276 166.05C284.273 166.054 284.268 166.061 284.261 166.071C284.255 166.08 284.242 166.101 284.228 166.131C284.22 166.15 284.184 166.227 284.184 166.334C284.184 166.425 284.21 166.492 284.215 166.504C284.224 166.528 284.233 166.546 284.236 166.553C284.244 166.568 284.25 166.577 284.248 166.574C284.247 166.571 284.239 166.56 284.222 166.536C284.189 166.491 284.137 166.423 284.067 166.333C284.056 166.319 284.044 166.304 284.032 166.289ZM277.893 158.899C277.889 158.895 277.885 158.89 277.881 158.885C277.814 158.812 277.699 158.683 277.634 158.523C277.546 158.306 277.567 158.097 277.632 157.905C277.69 157.734 277.794 157.544 277.922 157.332C278.054 157.113 278.235 156.833 278.468 156.475M277.893 158.899C277.894 158.9 277.894 158.9 277.894 158.9L278.267 158.568L277.892 158.899C277.893 158.899 277.893 158.899 277.893 158.899ZM278.468 156.475C278.916 155.772 279.6 154.514 280.174 153.37C280.461 152.799 280.717 152.265 280.9 151.849C280.992 151.641 281.063 151.469 281.11 151.34C281.133 151.275 281.148 151.227 281.157 151.195C281.159 151.188 281.16 151.183 281.161 151.179M278.468 156.475C278.468 156.475 278.468 156.476 278.467 156.476L278.889 156.745L278.47 156.473C278.469 156.473 278.469 156.474 278.468 156.475ZM281.161 151.179C281.166 151.158 281.161 151.174 281.161 151.21C281.161 151.2 281.161 151.19 281.161 151.179ZM292.467 142.477C292.467 142.477 292.467 142.477 292.467 142.476L292.966 142.507M292.467 142.477L292.467 142.478L292.966 142.507M292.467 142.477L292.966 142.507M260.477 169.059C259.435 169.246 258.562 169.433 258.511 169.484M260.477 169.059C263.518 168.497 266.709 167.356 269.229 165.908C269.8 165.584 270.338 165.312 270.405 165.312C270.472 165.312 271.984 167.015 273.765 169.093L258.511 169.484M247.581 176.324C247.576 176.323 247.574 176.322 247.575 176.322C247.575 176.322 247.577 176.323 247.581 176.324ZM281.177 130.147C281.132 130.147 281.084 130.142 281.036 130.131C280.845 130.089 280.723 129.973 280.651 129.874L281.022 129.605C281.022 129.605 281.023 129.606 281.023 129.606L280.659 129.885L280.659 129.885C280.661 129.888 280.692 129.929 280.747 129.968C280.776 129.989 280.845 130.034 280.948 130.051C281.009 130.061 281.076 130.06 281.143 130.044C281.154 130.077 281.165 130.111 281.177 130.147ZM291.841 151.959L291.362 151.814C291.359 151.826 291.357 151.833 291.357 151.833C291.356 151.833 291.361 151.811 291.37 151.752C291.379 151.69 291.391 151.606 291.405 151.501C291.455 151.503 291.5 151.504 291.54 151.504C291.626 151.504 291.669 151.5 291.683 151.498C291.676 151.5 291.657 151.504 291.631 151.514L291.63 151.515C291.611 151.522 291.458 151.582 291.38 151.765L291.841 151.959Z" fill="white" stroke="#0053A3"/>
<circle cx="256" cy="141" r="9" fill="#0053A3"/>
</g>
<defs>
<clipPath id="clip0_5_327">
<rect width="412" height="190" fill="white"/>
</clipPath>
</defs>
</svg>
