<svg width="438" height="222" viewBox="0 0 438 222" fill="none" xmlns="http://www.w3.org/2000/svg">
<path fill-rule="evenodd" clip-rule="evenodd" d="M308.955 84.0786L328.878 0L246.383 25.7065L266.466 44.441L161.062 149.757L97.3275 86.0757L0 183.322L20.4086 203.747L97.3275 126.893L161.062 190.574L287.592 64.1495L308.955 84.0786Z" fill="#CDE7F7"/>
<path d="M201.002 184.615C200.862 185.025 200.702 185.425 200.532 185.835C198.482 190.665 194.222 195.235 187.732 199.005C168.692 210.075 137.602 210.075 118.432 199.005C111.832 195.195 107.492 190.565 105.412 185.675C105.242 185.265 105.092 184.855 104.942 184.445C101.862 175.475 106.272 165.805 118.212 158.865C120.532 157.515 123.032 156.335 125.672 155.315C126.352 155.055 127.042 154.795 127.742 154.565C143.112 149.245 162.502 149.245 177.932 154.565C178.632 154.805 179.322 155.055 180.002 155.315C182.652 156.335 185.162 157.515 187.502 158.865C199.592 165.855 204.102 175.605 201.002 184.615Z" fill="white"/>
<path d="M202.753 176.475C202.603 175.445 202.353 174.425 202.003 173.415C200.143 167.935 195.553 162.705 188.213 158.465C186.183 157.295 184.023 156.245 181.763 155.325C181.123 155.055 180.473 154.805 179.823 154.575C163.403 148.475 142.193 148.475 125.843 154.575C125.193 154.805 124.552 155.055 123.923 155.325C121.673 156.245 119.522 157.295 117.502 158.465C110.232 162.685 105.692 167.915 103.892 173.365C103.532 174.445 103.282 175.535 103.142 176.635C102.953 178.095 102.953 179.565 103.142 181.025C103.282 182.125 103.532 183.225 103.892 184.315C104.033 184.765 104.202 185.215 104.382 185.655C104.552 186.065 104.743 186.485 104.943 186.895C107.222 191.485 111.482 195.805 117.732 199.415C137.292 210.715 169.013 210.705 188.443 199.415C194.563 195.855 198.753 191.595 201.003 187.065C201.202 186.655 201.393 186.255 201.562 185.845C201.723 185.455 201.873 185.065 202.003 184.675C202.342 183.675 202.592 182.675 202.753 181.665C203.013 179.935 203.022 178.185 202.753 176.475ZM201.003 184.615C200.863 185.025 200.702 185.425 200.533 185.835C198.482 190.665 194.223 195.235 187.733 199.005C168.693 210.075 137.603 210.075 118.432 199.005C111.833 195.195 107.493 190.565 105.413 185.675C105.243 185.265 105.093 184.855 104.943 184.445C101.863 175.475 106.273 165.805 118.212 158.865C120.532 157.515 123.033 156.335 125.673 155.315C126.353 155.055 127.042 154.795 127.743 154.565C143.112 149.245 162.503 149.245 177.933 154.565C178.632 154.805 179.323 155.055 180.003 155.315C182.653 156.335 185.163 157.515 187.503 158.865C199.592 165.855 204.103 175.605 201.003 184.615Z" fill="#0053A3"/>
<path d="M166.572 172.255L162.482 169.895L150.182 177.045L153.402 178.905C155.252 179.975 157.012 180.765 158.682 181.265C160.382 181.795 162.032 181.995 163.632 181.865C165.232 181.745 166.812 181.225 168.382 180.315C170.432 179.125 171.312 177.875 171.032 176.555C170.752 175.245 169.272 173.815 166.572 172.255ZM151.282 177.035L162.482 170.525L166.022 172.575C168.672 174.105 170.022 175.455 170.262 176.615C170.512 177.755 169.762 178.875 167.832 179.995C166.342 180.865 164.902 181.315 163.522 181.415C162.112 181.525 160.632 181.345 159.042 180.855C157.472 180.375 155.772 179.625 153.952 178.565L151.282 177.035ZM138.692 174.375L142.122 172.385L146.082 174.675L161.812 165.535L170.372 170.475C174.342 172.765 176.492 174.925 176.802 176.955C177.142 179.005 175.792 180.915 172.752 182.685C170.702 183.875 168.472 184.635 166.062 184.945C163.672 185.245 161.172 185.085 158.532 184.475C155.932 183.875 153.282 182.805 150.582 181.245L146.762 179.045L142.742 181.385L150.242 185.715L147.302 187.425L139.802 183.095L133.652 186.665L129.552 184.295L135.702 180.725L131.742 178.435L134.682 176.725L138.642 179.015L142.662 176.675L138.692 174.375ZM170.922 170.145L161.812 164.885L146.082 174.025L142.122 171.735L137.582 174.375L141.542 176.665L138.622 178.365L134.662 176.075L130.632 178.415L134.592 180.705L128.442 184.275L133.642 187.275L139.792 183.705L147.302 188.035L151.332 185.695L143.822 181.365L146.742 179.665L150.012 181.555C152.762 183.145 155.502 184.265 158.232 184.885C160.982 185.525 163.652 185.695 166.212 185.385H166.222C168.802 185.045 171.162 184.245 173.302 183.005C176.472 181.165 177.952 179.125 177.572 176.915C177.242 174.725 174.942 172.475 170.922 170.145Z" fill="#0053A3"/>
<path d="M202.753 195.205C202.603 196.235 202.353 197.255 202.003 198.275C200.173 203.685 195.653 208.845 188.443 213.035C169.013 224.335 137.293 224.335 117.733 213.035C110.333 208.765 105.723 203.485 103.893 197.955C103.533 196.875 103.283 195.785 103.143 194.685V181.035C103.283 182.135 103.533 183.235 103.893 184.325C104.033 184.775 104.203 185.225 104.383 185.665C104.553 186.075 104.743 186.495 104.943 186.905C107.223 191.495 111.483 195.815 117.733 199.425C137.293 210.725 169.013 210.715 188.443 199.425C194.563 195.855 198.753 191.595 201.003 187.065C201.203 186.655 201.393 186.255 201.563 185.845C201.723 185.455 201.873 185.065 202.003 184.675C202.343 183.675 202.593 182.675 202.753 181.665V190.085C203.013 191.795 203.013 193.505 202.753 195.205Z" fill="#CDE7F7"/>
<path d="M314.002 184.615C313.862 185.025 313.702 185.425 313.532 185.835C311.482 190.665 307.222 195.235 300.732 199.005C281.692 210.075 250.602 210.075 231.432 199.005C224.832 195.195 220.492 190.565 218.412 185.675C218.242 185.265 218.092 184.855 217.942 184.445C214.862 175.475 219.272 165.805 231.212 158.865C233.532 157.515 236.032 156.335 238.672 155.315C239.352 155.055 240.042 154.795 240.742 154.565C256.112 149.245 275.502 149.245 290.932 154.565C291.632 154.805 292.322 155.055 293.002 155.315C295.652 156.335 298.162 157.515 300.502 158.865C312.592 165.855 317.102 175.605 314.002 184.615Z" fill="white"/>
<path d="M315.753 176.475C315.603 175.445 315.353 174.425 315.003 173.415C313.143 167.935 308.553 162.705 301.213 158.465C299.183 157.295 297.023 156.245 294.763 155.325C294.123 155.055 293.473 154.805 292.823 154.575C276.403 148.475 255.193 148.475 238.843 154.575C238.193 154.805 237.552 155.055 236.923 155.325C234.673 156.245 232.522 157.295 230.502 158.465C223.232 162.685 218.692 167.915 216.892 173.365C216.532 174.445 216.282 175.535 216.142 176.635C215.953 178.095 215.953 179.565 216.142 181.025C216.282 182.125 216.532 183.225 216.892 184.315C217.033 184.765 217.202 185.215 217.382 185.655C217.552 186.065 217.743 186.485 217.943 186.895C220.222 191.485 224.482 195.805 230.732 199.415C250.292 210.715 282.013 210.705 301.443 199.415C307.563 195.855 311.753 191.595 314.003 187.065C314.202 186.655 314.393 186.255 314.562 185.845C314.723 185.455 314.873 185.065 315.003 184.675C315.342 183.675 315.592 182.675 315.753 181.665C316.013 179.935 316.022 178.185 315.753 176.475ZM314.003 184.615C313.863 185.025 313.702 185.425 313.533 185.835C311.482 190.665 307.223 195.235 300.733 199.005C281.693 210.075 250.603 210.075 231.432 199.005C224.833 195.195 220.493 190.565 218.413 185.675C218.243 185.265 218.093 184.855 217.943 184.445C214.863 175.475 219.273 165.805 231.212 158.865C233.532 157.515 236.033 156.335 238.673 155.315C239.353 155.055 240.042 154.795 240.743 154.565C256.112 149.245 275.503 149.245 290.933 154.565C291.632 154.805 292.323 155.055 293.003 155.315C295.653 156.335 298.163 157.515 300.503 158.865C312.592 165.855 317.103 175.605 314.003 184.615Z" fill="#0053A3"/>
<path d="M279.572 172.255L275.482 169.895L263.182 177.045L266.402 178.905C268.252 179.975 270.012 180.765 271.682 181.265C273.382 181.795 275.032 181.995 276.632 181.865C278.232 181.745 279.812 181.225 281.382 180.315C283.432 179.125 284.312 177.875 284.032 176.555C283.752 175.245 282.272 173.815 279.572 172.255ZM264.282 177.035L275.482 170.525L279.022 172.575C281.672 174.105 283.022 175.455 283.262 176.615C283.512 177.755 282.762 178.875 280.832 179.995C279.342 180.865 277.902 181.315 276.522 181.415C275.112 181.525 273.632 181.345 272.042 180.855C270.472 180.375 268.772 179.625 266.952 178.565L264.282 177.035ZM251.692 174.375L255.122 172.385L259.082 174.675L274.812 165.535L283.372 170.475C287.342 172.765 289.492 174.925 289.802 176.955C290.142 179.005 288.792 180.915 285.752 182.685C283.702 183.875 281.472 184.635 279.062 184.945C276.672 185.245 274.172 185.085 271.532 184.475C268.932 183.875 266.282 182.805 263.582 181.245L259.762 179.045L255.742 181.385L263.242 185.715L260.302 187.425L252.802 183.095L246.652 186.665L242.552 184.295L248.702 180.725L244.742 178.435L247.682 176.725L251.642 179.015L255.662 176.675L251.692 174.375ZM283.922 170.145L274.812 164.885L259.082 174.025L255.122 171.735L250.582 174.375L254.542 176.665L251.622 178.365L247.662 176.075L243.632 178.415L247.592 180.705L241.442 184.275L246.642 187.275L252.792 183.705L260.302 188.035L264.332 185.695L256.822 181.365L259.742 179.665L263.012 181.555C265.762 183.145 268.502 184.265 271.232 184.885C273.982 185.525 276.652 185.695 279.212 185.385H279.222C281.802 185.045 284.162 184.245 286.302 183.005C289.472 181.165 290.952 179.125 290.572 176.915C290.242 174.725 287.942 172.475 283.922 170.145Z" fill="#0053A3"/>
<path d="M315.753 195.205C315.603 196.235 315.353 197.255 315.003 198.275C313.173 203.685 308.653 208.845 301.443 213.035C282.013 224.335 250.293 224.335 230.733 213.035C223.333 208.765 218.723 203.485 216.893 197.955C216.533 196.875 216.283 195.785 216.143 194.685V181.035C216.283 182.135 216.533 183.235 216.893 184.325C217.033 184.775 217.203 185.225 217.383 185.665C217.553 186.075 217.743 186.495 217.943 186.905C220.223 191.495 224.483 195.815 230.733 199.425C250.293 210.725 282.013 210.715 301.443 199.425C307.563 195.855 311.753 191.595 314.003 187.065C314.203 186.655 314.393 186.255 314.563 185.845C314.723 185.455 314.873 185.065 315.003 184.675C315.343 183.675 315.593 182.675 315.753 181.665V190.085C316.013 191.795 316.013 193.505 315.753 195.205Z" fill="#CDE7F7"/>
<path d="M436.002 184.615C435.862 185.025 435.702 185.425 435.532 185.835C433.482 190.665 429.222 195.235 422.732 199.005C403.692 210.075 372.602 210.075 353.432 199.005C346.832 195.195 342.492 190.565 340.412 185.675C340.242 185.265 340.092 184.855 339.942 184.445C336.862 175.475 341.272 165.805 353.212 158.865C355.532 157.515 358.032 156.335 360.672 155.315C361.352 155.055 362.042 154.795 362.742 154.565C378.112 149.245 397.502 149.245 412.932 154.565C413.632 154.805 414.322 155.055 415.002 155.315C417.652 156.335 420.162 157.515 422.502 158.865C434.592 165.855 439.102 175.605 436.002 184.615Z" fill="white"/>
<path d="M437.753 176.475C437.603 175.445 437.353 174.425 437.003 173.415C435.143 167.935 430.553 162.705 423.213 158.465C421.183 157.295 419.023 156.245 416.763 155.325C416.123 155.055 415.473 154.805 414.823 154.575C398.403 148.475 377.193 148.475 360.843 154.575C360.193 154.805 359.552 155.055 358.923 155.325C356.673 156.245 354.522 157.295 352.502 158.465C345.232 162.685 340.692 167.915 338.892 173.365C338.532 174.445 338.282 175.535 338.142 176.635C337.953 178.095 337.953 179.565 338.142 181.025C338.282 182.125 338.532 183.225 338.892 184.315C339.033 184.765 339.202 185.215 339.382 185.655C339.552 186.065 339.743 186.485 339.943 186.895C342.222 191.485 346.482 195.805 352.732 199.415C372.292 210.715 404.013 210.705 423.443 199.415C429.563 195.855 433.753 191.595 436.003 187.065C436.202 186.655 436.393 186.255 436.562 185.845C436.723 185.455 436.873 185.065 437.003 184.675C437.342 183.675 437.592 182.675 437.753 181.665C438.013 179.935 438.022 178.185 437.753 176.475ZM436.003 184.615C435.863 185.025 435.702 185.425 435.533 185.835C433.482 190.665 429.223 195.235 422.733 199.005C403.693 210.075 372.603 210.075 353.432 199.005C346.833 195.195 342.493 190.565 340.413 185.675C340.243 185.265 340.093 184.855 339.943 184.445C336.863 175.475 341.273 165.805 353.212 158.865C355.532 157.515 358.033 156.335 360.673 155.315C361.353 155.055 362.042 154.795 362.743 154.565C378.112 149.245 397.503 149.245 412.933 154.565C413.632 154.805 414.323 155.055 415.003 155.315C417.653 156.335 420.163 157.515 422.503 158.865C434.592 165.855 439.103 175.605 436.003 184.615Z" fill="#0053A3"/>
<path d="M401.572 172.255L397.482 169.895L385.182 177.045L388.402 178.905C390.252 179.975 392.012 180.765 393.682 181.265C395.382 181.795 397.032 181.995 398.632 181.865C400.232 181.745 401.812 181.225 403.382 180.315C405.432 179.125 406.312 177.875 406.032 176.555C405.752 175.245 404.272 173.815 401.572 172.255ZM386.282 177.035L397.482 170.525L401.022 172.575C403.672 174.105 405.022 175.455 405.262 176.615C405.512 177.755 404.762 178.875 402.832 179.995C401.342 180.865 399.902 181.315 398.522 181.415C397.112 181.525 395.632 181.345 394.042 180.855C392.472 180.375 390.772 179.625 388.952 178.565L386.282 177.035ZM373.692 174.375L377.122 172.385L381.082 174.675L396.812 165.535L405.372 170.475C409.342 172.765 411.492 174.925 411.802 176.955C412.142 179.005 410.792 180.915 407.752 182.685C405.702 183.875 403.472 184.635 401.062 184.945C398.672 185.245 396.172 185.085 393.532 184.475C390.932 183.875 388.282 182.805 385.582 181.245L381.762 179.045L377.742 181.385L385.242 185.715L382.302 187.425L374.802 183.095L368.652 186.665L364.552 184.295L370.702 180.725L366.742 178.435L369.682 176.725L373.642 179.015L377.662 176.675L373.692 174.375ZM405.922 170.145L396.812 164.885L381.082 174.025L377.122 171.735L372.582 174.375L376.542 176.665L373.622 178.365L369.662 176.075L365.632 178.415L369.592 180.705L363.442 184.275L368.642 187.275L374.792 183.705L382.302 188.035L386.332 185.695L378.822 181.365L381.742 179.665L385.012 181.555C387.762 183.145 390.502 184.265 393.232 184.885C395.982 185.525 398.652 185.695 401.212 185.385H401.222C403.802 185.045 406.162 184.245 408.302 183.005C411.472 181.165 412.952 179.125 412.572 176.915C412.242 174.725 409.942 172.475 405.922 170.145Z" fill="#0053A3"/>
<path d="M437.753 195.205C437.603 196.235 437.353 197.255 437.003 198.275C435.173 203.685 430.653 208.845 423.443 213.035C404.013 224.335 372.293 224.335 352.733 213.035C345.333 208.765 340.723 203.485 338.893 197.955C338.533 196.875 338.283 195.785 338.143 194.685V181.035C338.283 182.135 338.533 183.235 338.893 184.325C339.033 184.775 339.203 185.225 339.383 185.665C339.553 186.075 339.743 186.495 339.943 186.905C342.223 191.495 346.483 195.815 352.733 199.425C372.293 210.725 404.013 210.715 423.443 199.425C429.563 195.855 433.753 191.595 436.003 187.065C436.203 186.655 436.393 186.255 436.563 185.845C436.723 185.455 436.873 185.065 437.003 184.675C437.343 183.675 437.593 182.675 437.753 181.665V190.085C438.013 191.795 438.013 193.505 437.753 195.205Z" fill="#CDE7F7"/>
<path d="M314.002 163.615C313.862 164.025 313.702 164.425 313.532 164.835C311.482 169.665 307.222 174.235 300.732 178.005C281.692 189.075 250.602 189.075 231.432 178.005C224.832 174.195 220.492 169.565 218.412 164.675C218.242 164.265 218.092 163.855 217.942 163.445C214.862 154.475 219.272 144.805 231.212 137.865C233.532 136.515 236.032 135.335 238.672 134.315C239.352 134.055 240.042 133.795 240.742 133.565C256.112 128.245 275.502 128.245 290.932 133.565C291.632 133.805 292.322 134.055 293.002 134.315C295.652 135.335 298.162 136.515 300.502 137.865C312.592 144.855 317.102 154.605 314.002 163.615Z" fill="white"/>
<path d="M315.753 155.475C315.603 154.445 315.353 153.425 315.003 152.415C313.143 146.935 308.553 141.705 301.213 137.465C299.183 136.295 297.023 135.245 294.763 134.325C294.123 134.055 293.473 133.805 292.823 133.575C276.403 127.475 255.193 127.475 238.843 133.575C238.193 133.805 237.552 134.055 236.923 134.325C234.673 135.245 232.522 136.295 230.502 137.465C223.232 141.685 218.692 146.915 216.892 152.365C216.532 153.445 216.282 154.535 216.142 155.635C215.953 157.095 215.953 158.565 216.142 160.025C216.282 161.125 216.532 162.225 216.892 163.315C217.033 163.765 217.202 164.215 217.382 164.655C217.552 165.065 217.743 165.485 217.943 165.895C220.222 170.485 224.482 174.805 230.732 178.415C250.292 189.715 282.013 189.705 301.443 178.415C307.563 174.855 311.753 170.595 314.003 166.065C314.202 165.655 314.393 165.255 314.562 164.845C314.723 164.455 314.873 164.065 315.003 163.675C315.342 162.675 315.592 161.675 315.753 160.665C316.013 158.935 316.022 157.185 315.753 155.475ZM314.003 163.615C313.863 164.025 313.702 164.425 313.533 164.835C311.482 169.665 307.223 174.235 300.733 178.005C281.693 189.075 250.603 189.075 231.432 178.005C224.833 174.195 220.493 169.565 218.413 164.675C218.243 164.265 218.093 163.855 217.943 163.445C214.863 154.475 219.273 144.805 231.212 137.865C233.532 136.515 236.033 135.335 238.673 134.315C239.353 134.055 240.042 133.795 240.743 133.565C256.112 128.245 275.503 128.245 290.933 133.565C291.632 133.805 292.323 134.055 293.003 134.315C295.653 135.335 298.163 136.515 300.503 137.865C312.592 144.855 317.103 154.605 314.003 163.615Z" fill="#0053A3"/>
<path d="M279.572 151.255L275.482 148.895L263.182 156.045L266.402 157.905C268.252 158.975 270.012 159.765 271.682 160.265C273.382 160.795 275.032 160.995 276.632 160.865C278.232 160.745 279.812 160.225 281.382 159.315C283.432 158.125 284.312 156.875 284.032 155.555C283.752 154.245 282.272 152.815 279.572 151.255ZM264.282 156.035L275.482 149.525L279.022 151.575C281.672 153.105 283.022 154.455 283.262 155.615C283.512 156.755 282.762 157.875 280.832 158.995C279.342 159.865 277.902 160.315 276.522 160.415C275.112 160.525 273.632 160.345 272.042 159.855C270.472 159.375 268.772 158.625 266.952 157.565L264.282 156.035ZM251.692 153.375L255.122 151.385L259.082 153.675L274.812 144.535L283.372 149.475C287.342 151.765 289.492 153.925 289.802 155.955C290.142 158.005 288.792 159.915 285.752 161.685C283.702 162.875 281.472 163.635 279.062 163.945C276.672 164.245 274.172 164.085 271.532 163.475C268.932 162.875 266.282 161.805 263.582 160.245L259.762 158.045L255.742 160.385L263.242 164.715L260.302 166.425L252.802 162.095L246.652 165.665L242.552 163.295L248.702 159.725L244.742 157.435L247.682 155.725L251.642 158.015L255.662 155.675L251.692 153.375ZM283.922 149.145L274.812 143.885L259.082 153.025L255.122 150.735L250.582 153.375L254.542 155.665L251.622 157.365L247.662 155.075L243.632 157.415L247.592 159.705L241.442 163.275L246.642 166.275L252.792 162.705L260.302 167.035L264.332 164.695L256.822 160.365L259.742 158.665L263.012 160.555C265.762 162.145 268.502 163.265 271.232 163.885C273.982 164.525 276.652 164.695 279.212 164.385H279.222C281.802 164.045 284.162 163.245 286.302 162.005C289.472 160.165 290.952 158.125 290.572 155.915C290.242 153.725 287.942 151.475 283.922 149.145Z" fill="#0053A3"/>
<path d="M315.753 174.205C315.603 175.235 315.353 176.255 315.003 177.275C313.173 182.685 308.653 187.845 301.443 192.035C282.013 203.335 250.293 203.335 230.733 192.035C223.333 187.765 218.723 182.485 216.893 176.955C216.533 175.875 216.283 174.785 216.143 173.685V160.035C216.283 161.135 216.533 162.235 216.893 163.325C217.033 163.775 217.203 164.225 217.383 164.665C217.553 165.075 217.743 165.495 217.943 165.905C220.223 170.495 224.483 174.815 230.733 178.425C250.293 189.725 282.013 189.715 301.443 178.425C307.563 174.855 311.753 170.595 314.003 166.065C314.203 165.655 314.393 165.255 314.563 164.845C314.723 164.455 314.873 164.065 315.003 163.675C315.343 162.675 315.593 161.675 315.753 160.665V169.085C316.013 170.795 316.013 172.505 315.753 174.205Z" fill="#CDE7F7"/>
<path d="M436.002 163.615C435.862 164.025 435.702 164.425 435.532 164.835C433.482 169.665 429.222 174.235 422.732 178.005C403.692 189.075 372.602 189.075 353.432 178.005C346.832 174.195 342.492 169.565 340.412 164.675C340.242 164.265 340.092 163.855 339.942 163.445C336.862 154.475 341.272 144.805 353.212 137.865C355.532 136.515 358.032 135.335 360.672 134.315C361.352 134.055 362.042 133.795 362.742 133.565C378.112 128.245 397.502 128.245 412.932 133.565C413.632 133.805 414.322 134.055 415.002 134.315C417.652 135.335 420.162 136.515 422.502 137.865C434.592 144.855 439.102 154.605 436.002 163.615Z" fill="white"/>
<path d="M437.753 155.475C437.603 154.445 437.353 153.425 437.003 152.415C435.143 146.935 430.553 141.705 423.213 137.465C421.183 136.295 419.023 135.245 416.763 134.325C416.123 134.055 415.473 133.805 414.823 133.575C398.403 127.475 377.193 127.475 360.843 133.575C360.193 133.805 359.552 134.055 358.923 134.325C356.673 135.245 354.522 136.295 352.502 137.465C345.232 141.685 340.692 146.915 338.892 152.365C338.532 153.445 338.282 154.535 338.142 155.635C337.953 157.095 337.953 158.565 338.142 160.025C338.282 161.125 338.532 162.225 338.892 163.315C339.033 163.765 339.202 164.215 339.382 164.655C339.552 165.065 339.743 165.485 339.943 165.895C342.222 170.485 346.482 174.805 352.732 178.415C372.292 189.715 404.013 189.705 423.443 178.415C429.563 174.855 433.753 170.595 436.003 166.065C436.202 165.655 436.393 165.255 436.562 164.845C436.723 164.455 436.873 164.065 437.003 163.675C437.342 162.675 437.592 161.675 437.753 160.665C438.013 158.935 438.022 157.185 437.753 155.475ZM436.003 163.615C435.863 164.025 435.702 164.425 435.533 164.835C433.482 169.665 429.223 174.235 422.733 178.005C403.693 189.075 372.603 189.075 353.432 178.005C346.833 174.195 342.493 169.565 340.413 164.675C340.243 164.265 340.093 163.855 339.943 163.445C336.863 154.475 341.273 144.805 353.212 137.865C355.532 136.515 358.033 135.335 360.673 134.315C361.353 134.055 362.042 133.795 362.743 133.565C378.112 128.245 397.503 128.245 412.933 133.565C413.632 133.805 414.323 134.055 415.003 134.315C417.653 135.335 420.163 136.515 422.503 137.865C434.592 144.855 439.103 154.605 436.003 163.615Z" fill="#0053A3"/>
<path d="M401.572 151.255L397.482 148.895L385.182 156.045L388.402 157.905C390.252 158.975 392.012 159.765 393.682 160.265C395.382 160.795 397.032 160.995 398.632 160.865C400.232 160.745 401.812 160.225 403.382 159.315C405.432 158.125 406.312 156.875 406.032 155.555C405.752 154.245 404.272 152.815 401.572 151.255ZM386.282 156.035L397.482 149.525L401.022 151.575C403.672 153.105 405.022 154.455 405.262 155.615C405.512 156.755 404.762 157.875 402.832 158.995C401.342 159.865 399.902 160.315 398.522 160.415C397.112 160.525 395.632 160.345 394.042 159.855C392.472 159.375 390.772 158.625 388.952 157.565L386.282 156.035ZM373.692 153.375L377.122 151.385L381.082 153.675L396.812 144.535L405.372 149.475C409.342 151.765 411.492 153.925 411.802 155.955C412.142 158.005 410.792 159.915 407.752 161.685C405.702 162.875 403.472 163.635 401.062 163.945C398.672 164.245 396.172 164.085 393.532 163.475C390.932 162.875 388.282 161.805 385.582 160.245L381.762 158.045L377.742 160.385L385.242 164.715L382.302 166.425L374.802 162.095L368.652 165.665L364.552 163.295L370.702 159.725L366.742 157.435L369.682 155.725L373.642 158.015L377.662 155.675L373.692 153.375ZM405.922 149.145L396.812 143.885L381.082 153.025L377.122 150.735L372.582 153.375L376.542 155.665L373.622 157.365L369.662 155.075L365.632 157.415L369.592 159.705L363.442 163.275L368.642 166.275L374.792 162.705L382.302 167.035L386.332 164.695L378.822 160.365L381.742 158.665L385.012 160.555C387.762 162.145 390.502 163.265 393.232 163.885C395.982 164.525 398.652 164.695 401.212 164.385H401.222C403.802 164.045 406.162 163.245 408.302 162.005C411.472 160.165 412.952 158.125 412.572 155.915C412.242 153.725 409.942 151.475 405.922 149.145Z" fill="#0053A3"/>
<path d="M437.753 174.205C437.603 175.235 437.353 176.255 437.003 177.275C435.173 182.685 430.653 187.845 423.443 192.035C404.013 203.335 372.293 203.335 352.733 192.035C345.333 187.765 340.723 182.485 338.893 176.955C338.533 175.875 338.283 174.785 338.143 173.685V160.035C338.283 161.135 338.533 162.235 338.893 163.325C339.033 163.775 339.203 164.225 339.383 164.665C339.553 165.075 339.743 165.495 339.943 165.905C342.223 170.495 346.483 174.815 352.733 178.425C372.293 189.725 404.013 189.715 423.443 178.425C429.563 174.855 433.753 170.595 436.003 166.065C436.203 165.655 436.393 165.255 436.563 164.845C436.723 164.455 436.873 164.065 437.003 163.675C437.343 162.675 437.593 161.675 437.753 160.665V169.085C438.013 170.795 438.013 172.505 437.753 174.205Z" fill="#CDE7F7"/>
<path d="M314.002 142.615C313.862 143.025 313.702 143.425 313.532 143.835C311.482 148.665 307.222 153.235 300.732 157.005C281.692 168.075 250.602 168.075 231.432 157.005C224.832 153.195 220.492 148.565 218.412 143.675C218.242 143.265 218.092 142.855 217.942 142.445C214.862 133.475 219.272 123.805 231.212 116.865C233.532 115.515 236.032 114.335 238.672 113.315C239.352 113.055 240.042 112.795 240.742 112.565C256.112 107.245 275.502 107.245 290.932 112.565C291.632 112.805 292.322 113.055 293.002 113.315C295.652 114.335 298.162 115.515 300.502 116.865C312.592 123.855 317.102 133.605 314.002 142.615Z" fill="white"/>
<path d="M315.753 134.475C315.603 133.445 315.353 132.425 315.003 131.415C313.143 125.935 308.553 120.705 301.213 116.465C299.183 115.295 297.023 114.245 294.763 113.325C294.123 113.055 293.473 112.805 292.823 112.575C276.403 106.475 255.193 106.475 238.843 112.575C238.193 112.805 237.552 113.055 236.923 113.325C234.673 114.245 232.522 115.295 230.502 116.465C223.232 120.685 218.692 125.915 216.892 131.365C216.532 132.445 216.282 133.535 216.142 134.635C215.953 136.095 215.953 137.565 216.142 139.025C216.282 140.125 216.532 141.225 216.892 142.315C217.033 142.765 217.202 143.215 217.382 143.655C217.552 144.065 217.743 144.485 217.943 144.895C220.222 149.485 224.482 153.805 230.732 157.415C250.292 168.715 282.013 168.705 301.443 157.415C307.563 153.855 311.753 149.595 314.003 145.065C314.202 144.655 314.393 144.255 314.562 143.845C314.723 143.455 314.873 143.065 315.003 142.675C315.342 141.675 315.592 140.675 315.753 139.665C316.013 137.935 316.022 136.185 315.753 134.475ZM314.003 142.615C313.863 143.025 313.702 143.425 313.533 143.835C311.482 148.665 307.223 153.235 300.733 157.005C281.693 168.075 250.603 168.075 231.432 157.005C224.833 153.195 220.493 148.565 218.413 143.675C218.243 143.265 218.093 142.855 217.943 142.445C214.863 133.475 219.273 123.805 231.212 116.865C233.532 115.515 236.033 114.335 238.673 113.315C239.353 113.055 240.042 112.795 240.743 112.565C256.112 107.245 275.503 107.245 290.933 112.565C291.632 112.805 292.323 113.055 293.003 113.315C295.653 114.335 298.163 115.515 300.503 116.865C312.592 123.855 317.103 133.605 314.003 142.615Z" fill="#0053A3"/>
<path d="M279.572 130.255L275.482 127.895L263.182 135.045L266.402 136.905C268.252 137.975 270.012 138.765 271.682 139.265C273.382 139.795 275.032 139.995 276.632 139.865C278.232 139.745 279.812 139.225 281.382 138.315C283.432 137.125 284.312 135.875 284.032 134.555C283.752 133.245 282.272 131.815 279.572 130.255ZM264.282 135.035L275.482 128.525L279.022 130.575C281.672 132.105 283.022 133.455 283.262 134.615C283.512 135.755 282.762 136.875 280.832 137.995C279.342 138.865 277.902 139.315 276.522 139.415C275.112 139.525 273.632 139.345 272.042 138.855C270.472 138.375 268.772 137.625 266.952 136.565L264.282 135.035ZM251.692 132.375L255.122 130.385L259.082 132.675L274.812 123.535L283.372 128.475C287.342 130.765 289.492 132.925 289.802 134.955C290.142 137.005 288.792 138.915 285.752 140.685C283.702 141.875 281.472 142.635 279.062 142.945C276.672 143.245 274.172 143.085 271.532 142.475C268.932 141.875 266.282 140.805 263.582 139.245L259.762 137.045L255.742 139.385L263.242 143.715L260.302 145.425L252.802 141.095L246.652 144.665L242.552 142.295L248.702 138.725L244.742 136.435L247.682 134.725L251.642 137.015L255.662 134.675L251.692 132.375ZM283.922 128.145L274.812 122.885L259.082 132.025L255.122 129.735L250.582 132.375L254.542 134.665L251.622 136.365L247.662 134.075L243.632 136.415L247.592 138.705L241.442 142.275L246.642 145.275L252.792 141.705L260.302 146.035L264.332 143.695L256.822 139.365L259.742 137.665L263.012 139.555C265.762 141.145 268.502 142.265 271.232 142.885C273.982 143.525 276.652 143.695 279.212 143.385H279.222C281.802 143.045 284.162 142.245 286.302 141.005C289.472 139.165 290.952 137.125 290.572 134.915C290.242 132.725 287.942 130.475 283.922 128.145Z" fill="#0053A3"/>
<path d="M315.753 153.205C315.603 154.235 315.353 155.255 315.003 156.275C313.173 161.685 308.653 166.845 301.443 171.035C282.013 182.335 250.293 182.335 230.733 171.035C223.333 166.765 218.723 161.485 216.893 155.955C216.533 154.875 216.283 153.785 216.143 152.685V139.035C216.283 140.135 216.533 141.235 216.893 142.325C217.033 142.775 217.203 143.225 217.383 143.665C217.553 144.075 217.743 144.495 217.943 144.905C220.223 149.495 224.483 153.815 230.733 157.425C250.293 168.725 282.013 168.715 301.443 157.425C307.563 153.855 311.753 149.595 314.003 145.065C314.203 144.655 314.393 144.255 314.563 143.845C314.723 143.455 314.873 143.065 315.003 142.675C315.343 141.675 315.593 140.675 315.753 139.665V148.085C316.013 149.795 316.013 151.505 315.753 153.205Z" fill="#CDE7F7"/>
<path d="M436.002 142.615C435.862 143.025 435.702 143.425 435.532 143.835C433.482 148.665 429.222 153.235 422.732 157.005C403.692 168.075 372.602 168.075 353.432 157.005C346.832 153.195 342.492 148.565 340.412 143.675C340.242 143.265 340.092 142.855 339.942 142.445C336.862 133.475 341.272 123.805 353.212 116.865C355.532 115.515 358.032 114.335 360.672 113.315C361.352 113.055 362.042 112.795 362.742 112.565C378.112 107.245 397.502 107.245 412.932 112.565C413.632 112.805 414.322 113.055 415.002 113.315C417.652 114.335 420.162 115.515 422.502 116.865C434.592 123.855 439.102 133.605 436.002 142.615Z" fill="white"/>
<path d="M437.753 134.475C437.603 133.445 437.353 132.425 437.003 131.415C435.143 125.935 430.553 120.705 423.213 116.465C421.183 115.295 419.023 114.245 416.763 113.325C416.123 113.055 415.473 112.805 414.823 112.575C398.403 106.475 377.193 106.475 360.843 112.575C360.193 112.805 359.552 113.055 358.923 113.325C356.673 114.245 354.522 115.295 352.502 116.465C345.232 120.685 340.692 125.915 338.892 131.365C338.532 132.445 338.282 133.535 338.142 134.635C337.953 136.095 337.953 137.565 338.142 139.025C338.282 140.125 338.532 141.225 338.892 142.315C339.033 142.765 339.202 143.215 339.382 143.655C339.552 144.065 339.743 144.485 339.943 144.895C342.222 149.485 346.482 153.805 352.732 157.415C372.292 168.715 404.013 168.705 423.443 157.415C429.563 153.855 433.753 149.595 436.003 145.065C436.202 144.655 436.393 144.255 436.562 143.845C436.723 143.455 436.873 143.065 437.003 142.675C437.342 141.675 437.592 140.675 437.753 139.665C438.013 137.935 438.022 136.185 437.753 134.475ZM436.003 142.615C435.863 143.025 435.702 143.425 435.533 143.835C433.482 148.665 429.223 153.235 422.733 157.005C403.693 168.075 372.603 168.075 353.432 157.005C346.833 153.195 342.493 148.565 340.413 143.675C340.243 143.265 340.093 142.855 339.943 142.445C336.863 133.475 341.273 123.805 353.212 116.865C355.532 115.515 358.033 114.335 360.673 113.315C361.353 113.055 362.042 112.795 362.743 112.565C378.112 107.245 397.503 107.245 412.933 112.565C413.632 112.805 414.323 113.055 415.003 113.315C417.653 114.335 420.163 115.515 422.503 116.865C434.592 123.855 439.103 133.605 436.003 142.615Z" fill="#0053A3"/>
<path d="M401.572 130.255L397.482 127.895L385.182 135.045L388.402 136.905C390.252 137.975 392.012 138.765 393.682 139.265C395.382 139.795 397.032 139.995 398.632 139.865C400.232 139.745 401.812 139.225 403.382 138.315C405.432 137.125 406.312 135.875 406.032 134.555C405.752 133.245 404.272 131.815 401.572 130.255ZM386.282 135.035L397.482 128.525L401.022 130.575C403.672 132.105 405.022 133.455 405.262 134.615C405.512 135.755 404.762 136.875 402.832 137.995C401.342 138.865 399.902 139.315 398.522 139.415C397.112 139.525 395.632 139.345 394.042 138.855C392.472 138.375 390.772 137.625 388.952 136.565L386.282 135.035ZM373.692 132.375L377.122 130.385L381.082 132.675L396.812 123.535L405.372 128.475C409.342 130.765 411.492 132.925 411.802 134.955C412.142 137.005 410.792 138.915 407.752 140.685C405.702 141.875 403.472 142.635 401.062 142.945C398.672 143.245 396.172 143.085 393.532 142.475C390.932 141.875 388.282 140.805 385.582 139.245L381.762 137.045L377.742 139.385L385.242 143.715L382.302 145.425L374.802 141.095L368.652 144.665L364.552 142.295L370.702 138.725L366.742 136.435L369.682 134.725L373.642 137.015L377.662 134.675L373.692 132.375ZM405.922 128.145L396.812 122.885L381.082 132.025L377.122 129.735L372.582 132.375L376.542 134.665L373.622 136.365L369.662 134.075L365.632 136.415L369.592 138.705L363.442 142.275L368.642 145.275L374.792 141.705L382.302 146.035L386.332 143.695L378.822 139.365L381.742 137.665L385.012 139.555C387.762 141.145 390.502 142.265 393.232 142.885C395.982 143.525 398.652 143.695 401.212 143.385H401.222C403.802 143.045 406.162 142.245 408.302 141.005C411.472 139.165 412.952 137.125 412.572 134.915C412.242 132.725 409.942 130.475 405.922 128.145Z" fill="#0053A3"/>
<path d="M437.753 153.205C437.603 154.235 437.353 155.255 437.003 156.275C435.173 161.685 430.653 166.845 423.443 171.035C404.013 182.335 372.293 182.335 352.733 171.035C345.333 166.765 340.723 161.485 338.893 155.955C338.533 154.875 338.283 153.785 338.143 152.685V139.035C338.283 140.135 338.533 141.235 338.893 142.325C339.033 142.775 339.203 143.225 339.383 143.665C339.553 144.075 339.743 144.495 339.943 144.905C342.223 149.495 346.483 153.815 352.733 157.425C372.293 168.725 404.013 168.715 423.443 157.425C429.563 153.855 433.753 149.595 436.003 145.065C436.203 144.655 436.393 144.255 436.563 143.845C436.723 143.455 436.873 143.065 437.003 142.675C437.343 141.675 437.593 140.675 437.753 139.665V148.085C438.013 149.795 438.013 151.505 437.753 153.205Z" fill="#CDE7F7"/>
<path d="M436.002 121.615C435.862 122.025 435.702 122.425 435.532 122.835C433.482 127.665 429.222 132.235 422.732 136.005C403.692 147.075 372.602 147.075 353.432 136.005C346.832 132.195 342.492 127.565 340.412 122.675C340.242 122.265 340.092 121.855 339.942 121.445C336.862 112.475 341.272 102.805 353.212 95.865C355.532 94.515 358.032 93.335 360.672 92.315C361.352 92.055 362.042 91.795 362.742 91.565C378.112 86.245 397.502 86.245 412.932 91.565C413.632 91.805 414.322 92.055 415.002 92.315C417.652 93.335 420.162 94.515 422.502 95.865C434.592 102.855 439.102 112.605 436.002 121.615Z" fill="white"/>
<path d="M437.753 113.475C437.603 112.445 437.353 111.425 437.003 110.415C435.143 104.935 430.553 99.705 423.213 95.465C421.183 94.295 419.023 93.245 416.763 92.325C416.123 92.055 415.473 91.805 414.823 91.575C398.403 85.475 377.193 85.475 360.843 91.575C360.193 91.805 359.552 92.055 358.923 92.325C356.673 93.245 354.522 94.295 352.502 95.465C345.232 99.685 340.692 104.915 338.892 110.365C338.532 111.445 338.282 112.535 338.142 113.635C337.953 115.095 337.953 116.565 338.142 118.025C338.282 119.125 338.532 120.225 338.892 121.315C339.033 121.765 339.202 122.215 339.382 122.655C339.552 123.065 339.743 123.485 339.943 123.895C342.222 128.485 346.482 132.805 352.732 136.415C372.292 147.715 404.013 147.705 423.443 136.415C429.563 132.855 433.753 128.595 436.003 124.065C436.202 123.655 436.393 123.255 436.562 122.845C436.723 122.455 436.873 122.065 437.003 121.675C437.342 120.675 437.592 119.675 437.753 118.665C438.013 116.935 438.022 115.185 437.753 113.475ZM436.003 121.615C435.863 122.025 435.702 122.425 435.533 122.835C433.482 127.665 429.223 132.235 422.733 136.005C403.693 147.075 372.603 147.075 353.432 136.005C346.833 132.195 342.493 127.565 340.413 122.675C340.243 122.265 340.093 121.855 339.943 121.445C336.863 112.475 341.273 102.805 353.212 95.865C355.532 94.515 358.033 93.335 360.673 92.315C361.353 92.055 362.042 91.795 362.743 91.565C378.112 86.245 397.503 86.245 412.933 91.565C413.632 91.805 414.323 92.055 415.003 92.315C417.653 93.335 420.163 94.515 422.503 95.865C434.592 102.855 439.103 112.605 436.003 121.615Z" fill="#0053A3"/>
<path d="M401.572 109.255L397.482 106.895L385.182 114.045L388.402 115.905C390.252 116.975 392.012 117.765 393.682 118.265C395.382 118.795 397.032 118.995 398.632 118.865C400.232 118.745 401.812 118.225 403.382 117.315C405.432 116.125 406.312 114.875 406.032 113.555C405.752 112.245 404.272 110.815 401.572 109.255ZM386.282 114.035L397.482 107.525L401.022 109.575C403.672 111.105 405.022 112.455 405.262 113.615C405.512 114.755 404.762 115.875 402.832 116.995C401.342 117.865 399.902 118.315 398.522 118.415C397.112 118.525 395.632 118.345 394.042 117.855C392.472 117.375 390.772 116.625 388.952 115.565L386.282 114.035ZM373.692 111.375L377.122 109.385L381.082 111.675L396.812 102.535L405.372 107.475C409.342 109.765 411.492 111.925 411.802 113.955C412.142 116.005 410.792 117.915 407.752 119.685C405.702 120.875 403.472 121.635 401.062 121.945C398.672 122.245 396.172 122.085 393.532 121.475C390.932 120.875 388.282 119.805 385.582 118.245L381.762 116.045L377.742 118.385L385.242 122.715L382.302 124.425L374.802 120.095L368.652 123.665L364.552 121.295L370.702 117.725L366.742 115.435L369.682 113.725L373.642 116.015L377.662 113.675L373.692 111.375ZM405.922 107.145L396.812 101.885L381.082 111.025L377.122 108.735L372.582 111.375L376.542 113.665L373.622 115.365L369.662 113.075L365.632 115.415L369.592 117.705L363.442 121.275L368.642 124.275L374.792 120.705L382.302 125.035L386.332 122.695L378.822 118.365L381.742 116.665L385.012 118.555C387.762 120.145 390.502 121.265 393.232 121.885C395.982 122.525 398.652 122.695 401.212 122.385H401.222C403.802 122.045 406.162 121.245 408.302 120.005C411.472 118.165 412.952 116.125 412.572 113.915C412.242 111.725 409.942 109.475 405.922 107.145Z" fill="#0053A3"/>
<path d="M437.753 132.205C437.603 133.235 437.353 134.255 437.003 135.275C435.173 140.685 430.653 145.845 423.443 150.035C404.013 161.335 372.293 161.335 352.733 150.035C345.333 145.765 340.723 140.485 338.893 134.955C338.533 133.875 338.283 132.785 338.143 131.685V118.035C338.283 119.135 338.533 120.235 338.893 121.325C339.033 121.775 339.203 122.225 339.383 122.665C339.553 123.075 339.743 123.495 339.943 123.905C342.223 128.495 346.483 132.815 352.733 136.425C372.293 147.725 404.013 147.715 423.443 136.425C429.563 132.855 433.753 128.595 436.003 124.065C436.203 123.655 436.393 123.255 436.563 122.845C436.723 122.455 436.873 122.065 437.003 121.675C437.343 120.675 437.593 119.675 437.753 118.665V127.085C438.013 128.795 438.013 130.505 437.753 132.205Z" fill="#CDE7F7"/>
</svg>
