<svg width="352" height="241" viewBox="0 0 352 241" fill="none" xmlns="http://www.w3.org/2000/svg">
<path opacity="0.5" d="M118.003 124.523L119.57 121.965L117.501 120.697L115.828 122.456L118.003 124.523ZM177.517 161L175.949 163.558L178.031 164.834L179.703 163.054L177.517 161ZM279 53L245.834 63.0018L271.079 86.7233L279 53ZM34.1744 217.067L120.177 126.59L115.828 122.456L29.8256 212.933L34.1744 217.067ZM116.435 127.081L175.949 163.558L179.084 158.442L119.57 121.965L116.435 127.081ZM179.703 163.054L262.697 74.7306L258.325 70.622L175.33 158.946L179.703 163.054Z" fill="#CDE7F7"/>
<path d="M349.143 53.2082C345.305 39.845 337.755 27.8447 327.37 18.6002C316.985 9.35585 304.191 3.24661 290.473 0.981747L285.684 29.989C293.914 31.348 301.591 35.0135 307.822 40.5601C314.053 46.1068 318.583 53.307 320.886 61.3249L349.143 53.2082Z" fill="#0053A3"/>
<mask id="path-3-inside-1_8_3036" fill="white">
<path d="M263.124 145.374C273.73 147.643 284.706 147.536 295.266 145.062C305.825 142.588 315.707 137.808 324.201 131.065C332.695 124.321 339.591 115.781 344.396 106.058C349.2 96.3343 351.793 85.6681 351.988 74.8242L322.593 74.2945C322.476 80.8008 320.92 87.2006 318.037 93.0347C315.155 98.8688 311.017 103.993 305.92 108.039C300.824 112.085 294.895 114.953 288.559 116.437C282.224 117.922 275.638 117.986 269.274 116.624L263.124 145.374Z"/>
</mask>
<path d="M263.124 145.374C273.73 147.643 284.706 147.536 295.266 145.062C305.825 142.588 315.707 137.808 324.201 131.065C332.695 124.321 339.591 115.781 344.396 106.058C349.2 96.3343 351.793 85.6681 351.988 74.8242L322.593 74.2945C322.476 80.8008 320.92 87.2006 318.037 93.0347C315.155 98.8688 311.017 103.993 305.92 108.039C300.824 112.085 294.895 114.953 288.559 116.437C282.224 117.922 275.638 117.986 269.274 116.624L263.124 145.374Z" fill="white" stroke="#CDE7F7" stroke-width="2" mask="url(#path-3-inside-1_8_3036)"/>
<path d="M278.5 -3.21279e-06C261.613 -2.47461e-06 245.24 5.81531 232.136 16.4679C219.033 27.1205 209.997 41.9605 206.549 58.4922C203.1 75.0239 205.45 92.2388 213.203 107.242C220.955 122.244 233.638 134.12 249.117 140.871L260.87 113.923C251.583 109.872 243.973 102.747 239.322 93.745C234.67 84.7433 233.26 74.4144 235.329 64.4953C237.398 54.5763 242.82 45.6723 250.682 39.2807C258.544 32.8892 268.368 29.4 278.5 29.4L278.5 -3.21279e-06Z" fill="#CDE7F7"/>
<path d="M331.002 203.615C330.862 204.025 330.702 204.425 330.532 204.835C328.482 209.665 324.222 214.235 317.732 218.005C298.692 229.075 267.602 229.075 248.432 218.005C241.832 214.195 237.492 209.565 235.412 204.675C235.242 204.265 235.092 203.855 234.942 203.445C231.862 194.475 236.272 184.805 248.212 177.865C250.532 176.515 253.032 175.335 255.672 174.315C256.352 174.055 257.042 173.795 257.742 173.565C273.112 168.245 292.502 168.245 307.932 173.565C308.632 173.805 309.322 174.055 310.002 174.315C312.652 175.335 315.162 176.515 317.502 177.865C329.592 184.855 334.102 194.605 331.002 203.615Z" fill="white"/>
<path d="M332.753 195.475C332.603 194.445 332.353 193.425 332.003 192.415C330.143 186.935 325.553 181.705 318.213 177.465C316.183 176.295 314.023 175.245 311.763 174.325C311.123 174.055 310.473 173.805 309.823 173.575C293.403 167.475 272.193 167.475 255.843 173.575C255.193 173.805 254.552 174.055 253.923 174.325C251.673 175.245 249.522 176.295 247.502 177.465C240.232 181.685 235.692 186.915 233.892 192.365C233.532 193.445 233.282 194.535 233.142 195.635C232.953 197.095 232.953 198.565 233.142 200.025C233.282 201.125 233.532 202.225 233.892 203.315C234.033 203.765 234.202 204.215 234.382 204.655C234.552 205.065 234.743 205.485 234.943 205.895C237.222 210.485 241.482 214.805 247.732 218.415C267.292 229.715 299.013 229.705 318.443 218.415C324.563 214.855 328.753 210.595 331.003 206.065C331.202 205.655 331.393 205.255 331.562 204.845C331.723 204.455 331.873 204.065 332.003 203.675C332.342 202.675 332.592 201.675 332.753 200.665C333.013 198.935 333.022 197.185 332.753 195.475ZM331.003 203.615C330.863 204.025 330.702 204.425 330.533 204.835C328.482 209.665 324.223 214.235 317.733 218.005C298.693 229.075 267.603 229.075 248.432 218.005C241.833 214.195 237.493 209.565 235.413 204.675C235.243 204.265 235.093 203.855 234.943 203.445C231.863 194.475 236.273 184.805 248.212 177.865C250.532 176.515 253.033 175.335 255.673 174.315C256.353 174.055 257.042 173.795 257.743 173.565C273.112 168.245 292.503 168.245 307.933 173.565C308.632 173.805 309.323 174.055 310.003 174.315C312.653 175.335 315.163 176.515 317.503 177.865C329.592 184.855 334.103 194.605 331.003 203.615Z" fill="#0053A3"/>
<path d="M296.572 191.255L292.482 188.895L280.182 196.045L283.402 197.905C285.252 198.975 287.012 199.765 288.682 200.265C290.382 200.795 292.032 200.995 293.632 200.865C295.232 200.745 296.812 200.225 298.382 199.315C300.432 198.125 301.312 196.875 301.032 195.555C300.752 194.245 299.272 192.815 296.572 191.255ZM281.282 196.035L292.482 189.525L296.022 191.575C298.672 193.105 300.022 194.455 300.262 195.615C300.512 196.755 299.762 197.875 297.832 198.995C296.342 199.865 294.902 200.315 293.522 200.415C292.112 200.525 290.632 200.345 289.042 199.855C287.472 199.375 285.772 198.625 283.952 197.565L281.282 196.035ZM268.692 193.375L272.122 191.385L276.082 193.675L291.812 184.535L300.372 189.475C304.342 191.765 306.492 193.925 306.802 195.955C307.142 198.005 305.792 199.915 302.752 201.685C300.702 202.875 298.472 203.635 296.062 203.945C293.672 204.245 291.172 204.085 288.532 203.475C285.932 202.875 283.282 201.805 280.582 200.245L276.762 198.045L272.742 200.385L280.242 204.715L277.302 206.425L269.802 202.095L263.652 205.665L259.552 203.295L265.702 199.725L261.742 197.435L264.682 195.725L268.642 198.015L272.662 195.675L268.692 193.375ZM300.922 189.145L291.812 183.885L276.082 193.025L272.122 190.735L267.582 193.375L271.542 195.665L268.622 197.365L264.662 195.075L260.632 197.415L264.592 199.705L258.442 203.275L263.642 206.275L269.792 202.705L277.302 207.035L281.332 204.695L273.822 200.365L276.742 198.665L280.012 200.555C282.762 202.145 285.502 203.265 288.232 203.885C290.982 204.525 293.652 204.695 296.212 204.385H296.222C298.802 204.045 301.162 203.245 303.302 202.005C306.472 200.165 307.952 198.125 307.572 195.915C307.242 193.725 304.942 191.475 300.922 189.145Z" fill="#0053A3"/>
<path d="M332.753 214.205C332.603 215.235 332.353 216.255 332.003 217.275C330.173 222.685 325.653 227.845 318.443 232.035C299.013 243.335 267.293 243.335 247.733 232.035C240.333 227.765 235.723 222.485 233.893 216.955C233.533 215.875 233.283 214.785 233.143 213.685V200.035C233.283 201.135 233.533 202.235 233.893 203.325C234.033 203.775 234.203 204.225 234.383 204.665C234.553 205.075 234.743 205.495 234.943 205.905C237.223 210.495 241.483 214.815 247.733 218.425C267.293 229.725 299.013 229.715 318.443 218.425C324.563 214.855 328.753 210.595 331.003 206.065C331.203 205.655 331.393 205.255 331.563 204.845C331.723 204.455 331.873 204.065 332.003 203.675C332.343 202.675 332.593 201.675 332.753 200.665V209.085C333.013 210.795 333.013 212.505 332.753 214.205Z" fill="#CDE7F7"/>
<path d="M331.002 173.615C330.862 174.025 330.702 174.425 330.532 174.835C328.482 179.665 324.222 184.235 317.732 188.005C298.692 199.075 267.602 199.075 248.432 188.005C241.832 184.195 237.492 179.565 235.412 174.675C235.242 174.265 235.092 173.855 234.942 173.445C231.862 164.475 236.272 154.805 248.212 147.865C250.532 146.515 253.032 145.335 255.672 144.315C256.352 144.055 257.042 143.795 257.742 143.565C273.112 138.245 292.502 138.245 307.932 143.565C308.632 143.805 309.322 144.055 310.002 144.315C312.652 145.335 315.162 146.515 317.502 147.865C329.592 154.855 334.102 164.605 331.002 173.615Z" fill="white"/>
<path d="M332.753 165.475C332.603 164.445 332.353 163.425 332.003 162.415C330.143 156.935 325.553 151.705 318.213 147.465C316.183 146.295 314.023 145.245 311.763 144.325C311.123 144.055 310.473 143.805 309.823 143.575C293.403 137.475 272.193 137.475 255.843 143.575C255.193 143.805 254.552 144.055 253.923 144.325C251.673 145.245 249.522 146.295 247.502 147.465C240.232 151.685 235.692 156.915 233.892 162.365C233.532 163.445 233.282 164.535 233.142 165.635C232.953 167.095 232.953 168.565 233.142 170.025C233.282 171.125 233.532 172.225 233.892 173.315C234.033 173.765 234.202 174.215 234.382 174.655C234.552 175.065 234.743 175.485 234.943 175.895C237.222 180.485 241.482 184.805 247.732 188.415C267.292 199.715 299.013 199.705 318.443 188.415C324.563 184.855 328.753 180.595 331.003 176.065C331.202 175.655 331.393 175.255 331.562 174.845C331.723 174.455 331.873 174.065 332.003 173.675C332.342 172.675 332.592 171.675 332.753 170.665C333.013 168.935 333.022 167.185 332.753 165.475ZM331.003 173.615C330.863 174.025 330.702 174.425 330.533 174.835C328.482 179.665 324.223 184.235 317.733 188.005C298.693 199.075 267.603 199.075 248.432 188.005C241.833 184.195 237.493 179.565 235.413 174.675C235.243 174.265 235.093 173.855 234.943 173.445C231.863 164.475 236.273 154.805 248.212 147.865C250.532 146.515 253.033 145.335 255.673 144.315C256.353 144.055 257.042 143.795 257.743 143.565C273.112 138.245 292.503 138.245 307.933 143.565C308.632 143.805 309.323 144.055 310.003 144.315C312.653 145.335 315.163 146.515 317.503 147.865C329.592 154.855 334.103 164.605 331.003 173.615Z" fill="#0053A3"/>
<path d="M296.572 161.255L292.482 158.895L280.182 166.045L283.402 167.905C285.252 168.975 287.012 169.765 288.682 170.265C290.382 170.795 292.032 170.995 293.632 170.865C295.232 170.745 296.812 170.225 298.382 169.315C300.432 168.125 301.312 166.875 301.032 165.555C300.752 164.245 299.272 162.815 296.572 161.255ZM281.282 166.035L292.482 159.525L296.022 161.575C298.672 163.105 300.022 164.455 300.262 165.615C300.512 166.755 299.762 167.875 297.832 168.995C296.342 169.865 294.902 170.315 293.522 170.415C292.112 170.525 290.632 170.345 289.042 169.855C287.472 169.375 285.772 168.625 283.952 167.565L281.282 166.035ZM268.692 163.375L272.122 161.385L276.082 163.675L291.812 154.535L300.372 159.475C304.342 161.765 306.492 163.925 306.802 165.955C307.142 168.005 305.792 169.915 302.752 171.685C300.702 172.875 298.472 173.635 296.062 173.945C293.672 174.245 291.172 174.085 288.532 173.475C285.932 172.875 283.282 171.805 280.582 170.245L276.762 168.045L272.742 170.385L280.242 174.715L277.302 176.425L269.802 172.095L263.652 175.665L259.552 173.295L265.702 169.725L261.742 167.435L264.682 165.725L268.642 168.015L272.662 165.675L268.692 163.375ZM300.922 159.145L291.812 153.885L276.082 163.025L272.122 160.735L267.582 163.375L271.542 165.665L268.622 167.365L264.662 165.075L260.632 167.415L264.592 169.705L258.442 173.275L263.642 176.275L269.792 172.705L277.302 177.035L281.332 174.695L273.822 170.365L276.742 168.665L280.012 170.555C282.762 172.145 285.502 173.265 288.232 173.885C290.982 174.525 293.652 174.695 296.212 174.385H296.222C298.802 174.045 301.162 173.245 303.302 172.005C306.472 170.165 307.952 168.125 307.572 165.915C307.242 163.725 304.942 161.475 300.922 159.145Z" fill="#0053A3"/>
<path d="M332.753 184.205C332.603 185.235 332.353 186.255 332.003 187.275C330.173 192.685 325.653 197.845 318.443 202.035C299.013 213.335 267.293 213.335 247.733 202.035C240.333 197.765 235.723 192.485 233.893 186.955C233.533 185.875 233.283 184.785 233.143 183.685V170.035C233.283 171.135 233.533 172.235 233.893 173.325C234.033 173.775 234.203 174.225 234.383 174.665C234.553 175.075 234.743 175.495 234.943 175.905C237.223 180.495 241.483 184.815 247.733 188.425C267.293 199.725 299.013 199.715 318.443 188.425C324.563 184.855 328.753 180.595 331.003 176.065C331.203 175.655 331.393 175.255 331.563 174.845C331.723 174.455 331.873 174.065 332.003 173.675C332.343 172.675 332.593 171.675 332.753 170.665V179.085C333.013 180.795 333.013 182.505 332.753 184.205Z" fill="#CDE7F7"/>
<path d="M331.002 143.615C330.862 144.025 330.702 144.425 330.532 144.835C328.482 149.665 324.222 154.235 317.732 158.005C298.692 169.075 267.602 169.075 248.432 158.005C241.832 154.195 237.492 149.565 235.412 144.675C235.242 144.265 235.092 143.855 234.942 143.445C231.862 134.475 236.272 124.805 248.212 117.865C250.532 116.515 253.032 115.335 255.672 114.315C256.352 114.055 257.042 113.795 257.742 113.565C273.112 108.245 292.502 108.245 307.932 113.565C308.632 113.805 309.322 114.055 310.002 114.315C312.652 115.335 315.162 116.515 317.502 117.865C329.592 124.855 334.102 134.605 331.002 143.615Z" fill="white"/>
<path d="M332.753 135.475C332.603 134.445 332.353 133.425 332.003 132.415C330.143 126.935 325.553 121.705 318.213 117.465C316.183 116.295 314.023 115.245 311.763 114.325C311.123 114.055 310.473 113.805 309.823 113.575C293.403 107.475 272.193 107.475 255.843 113.575C255.193 113.805 254.552 114.055 253.923 114.325C251.673 115.245 249.522 116.295 247.502 117.465C240.232 121.685 235.692 126.915 233.892 132.365C233.532 133.445 233.282 134.535 233.142 135.635C232.953 137.095 232.953 138.565 233.142 140.025C233.282 141.125 233.532 142.225 233.892 143.315C234.033 143.765 234.202 144.215 234.382 144.655C234.552 145.065 234.743 145.485 234.943 145.895C237.222 150.485 241.482 154.805 247.732 158.415C267.292 169.715 299.013 169.705 318.443 158.415C324.563 154.855 328.753 150.595 331.003 146.065C331.202 145.655 331.393 145.255 331.562 144.845C331.723 144.455 331.873 144.065 332.003 143.675C332.342 142.675 332.592 141.675 332.753 140.665C333.013 138.935 333.022 137.185 332.753 135.475ZM331.003 143.615C330.863 144.025 330.702 144.425 330.533 144.835C328.482 149.665 324.223 154.235 317.733 158.005C298.693 169.075 267.603 169.075 248.432 158.005C241.833 154.195 237.493 149.565 235.413 144.675C235.243 144.265 235.093 143.855 234.943 143.445C231.863 134.475 236.273 124.805 248.212 117.865C250.532 116.515 253.033 115.335 255.673 114.315C256.353 114.055 257.042 113.795 257.743 113.565C273.112 108.245 292.503 108.245 307.933 113.565C308.632 113.805 309.323 114.055 310.003 114.315C312.653 115.335 315.163 116.515 317.503 117.865C329.592 124.855 334.103 134.605 331.003 143.615Z" fill="#0053A3"/>
<path d="M296.572 131.255L292.482 128.895L280.182 136.045L283.402 137.905C285.252 138.975 287.012 139.765 288.682 140.265C290.382 140.795 292.032 140.995 293.632 140.865C295.232 140.745 296.812 140.225 298.382 139.315C300.432 138.125 301.312 136.875 301.032 135.555C300.752 134.245 299.272 132.815 296.572 131.255ZM281.282 136.035L292.482 129.525L296.022 131.575C298.672 133.105 300.022 134.455 300.262 135.615C300.512 136.755 299.762 137.875 297.832 138.995C296.342 139.865 294.902 140.315 293.522 140.415C292.112 140.525 290.632 140.345 289.042 139.855C287.472 139.375 285.772 138.625 283.952 137.565L281.282 136.035ZM268.692 133.375L272.122 131.385L276.082 133.675L291.812 124.535L300.372 129.475C304.342 131.765 306.492 133.925 306.802 135.955C307.142 138.005 305.792 139.915 302.752 141.685C300.702 142.875 298.472 143.635 296.062 143.945C293.672 144.245 291.172 144.085 288.532 143.475C285.932 142.875 283.282 141.805 280.582 140.245L276.762 138.045L272.742 140.385L280.242 144.715L277.302 146.425L269.802 142.095L263.652 145.665L259.552 143.295L265.702 139.725L261.742 137.435L264.682 135.725L268.642 138.015L272.662 135.675L268.692 133.375ZM300.922 129.145L291.812 123.885L276.082 133.025L272.122 130.735L267.582 133.375L271.542 135.665L268.622 137.365L264.662 135.075L260.632 137.415L264.592 139.705L258.442 143.275L263.642 146.275L269.792 142.705L277.302 147.035L281.332 144.695L273.822 140.365L276.742 138.665L280.012 140.555C282.762 142.145 285.502 143.265 288.232 143.885C290.982 144.525 293.652 144.695 296.212 144.385H296.222C298.802 144.045 301.162 143.245 303.302 142.005C306.472 140.165 307.952 138.125 307.572 135.915C307.242 133.725 304.942 131.475 300.922 129.145Z" fill="#0053A3"/>
<path d="M332.753 154.205C332.603 155.235 332.353 156.255 332.003 157.275C330.173 162.685 325.653 167.845 318.443 172.035C299.013 183.335 267.293 183.335 247.733 172.035C240.333 167.765 235.723 162.485 233.893 156.955C233.533 155.875 233.283 154.785 233.143 153.685V140.035C233.283 141.135 233.533 142.235 233.893 143.325C234.033 143.775 234.203 144.225 234.383 144.665C234.553 145.075 234.743 145.495 234.943 145.905C237.223 150.495 241.483 154.815 247.733 158.425C267.293 169.725 299.013 169.715 318.443 158.425C324.563 154.855 328.753 150.595 331.003 146.065C331.203 145.655 331.393 145.255 331.563 144.845C331.723 144.455 331.873 144.065 332.003 143.675C332.343 142.675 332.593 141.675 332.753 140.665V149.085C333.013 150.795 333.013 152.505 332.753 154.205Z" fill="#CDE7F7"/>
<path d="M215.002 203.615C214.862 204.025 214.702 204.425 214.532 204.835C212.482 209.665 208.222 214.235 201.732 218.005C182.692 229.075 151.602 229.075 132.432 218.005C125.832 214.195 121.492 209.565 119.412 204.675C119.242 204.265 119.092 203.855 118.942 203.445C115.862 194.475 120.272 184.805 132.212 177.865C134.532 176.515 137.032 175.335 139.672 174.315C140.352 174.055 141.042 173.795 141.742 173.565C157.112 168.245 176.502 168.245 191.932 173.565C192.632 173.805 193.322 174.055 194.002 174.315C196.652 175.335 199.162 176.515 201.502 177.865C213.592 184.855 218.102 194.605 215.002 203.615Z" fill="white"/>
<path d="M216.753 195.475C216.603 194.445 216.353 193.425 216.003 192.415C214.143 186.935 209.553 181.705 202.213 177.465C200.183 176.295 198.023 175.245 195.763 174.325C195.123 174.055 194.473 173.805 193.823 173.575C177.403 167.475 156.193 167.475 139.843 173.575C139.193 173.805 138.552 174.055 137.923 174.325C135.673 175.245 133.522 176.295 131.502 177.465C124.232 181.685 119.692 186.915 117.892 192.365C117.532 193.445 117.282 194.535 117.142 195.635C116.953 197.095 116.953 198.565 117.142 200.025C117.282 201.125 117.532 202.225 117.892 203.315C118.033 203.765 118.202 204.215 118.382 204.655C118.552 205.065 118.743 205.485 118.943 205.895C121.222 210.485 125.482 214.805 131.732 218.415C151.292 229.715 183.013 229.705 202.443 218.415C208.563 214.855 212.753 210.595 215.003 206.065C215.202 205.655 215.393 205.255 215.562 204.845C215.723 204.455 215.873 204.065 216.003 203.675C216.342 202.675 216.592 201.675 216.753 200.665C217.013 198.935 217.022 197.185 216.753 195.475ZM215.003 203.615C214.863 204.025 214.702 204.425 214.533 204.835C212.482 209.665 208.223 214.235 201.733 218.005C182.693 229.075 151.603 229.075 132.432 218.005C125.833 214.195 121.493 209.565 119.413 204.675C119.243 204.265 119.093 203.855 118.943 203.445C115.863 194.475 120.273 184.805 132.212 177.865C134.532 176.515 137.033 175.335 139.673 174.315C140.353 174.055 141.042 173.795 141.743 173.565C157.112 168.245 176.503 168.245 191.933 173.565C192.632 173.805 193.323 174.055 194.003 174.315C196.653 175.335 199.163 176.515 201.503 177.865C213.592 184.855 218.103 194.605 215.003 203.615Z" fill="#0053A3"/>
<path d="M180.572 191.255L176.482 188.895L164.182 196.045L167.402 197.905C169.252 198.975 171.012 199.765 172.682 200.265C174.382 200.795 176.032 200.995 177.632 200.865C179.232 200.745 180.812 200.225 182.382 199.315C184.432 198.125 185.312 196.875 185.032 195.555C184.752 194.245 183.272 192.815 180.572 191.255ZM165.282 196.035L176.482 189.525L180.022 191.575C182.672 193.105 184.022 194.455 184.262 195.615C184.512 196.755 183.762 197.875 181.832 198.995C180.342 199.865 178.902 200.315 177.522 200.415C176.112 200.525 174.632 200.345 173.042 199.855C171.472 199.375 169.772 198.625 167.952 197.565L165.282 196.035ZM152.692 193.375L156.122 191.385L160.082 193.675L175.812 184.535L184.372 189.475C188.342 191.765 190.492 193.925 190.802 195.955C191.142 198.005 189.792 199.915 186.752 201.685C184.702 202.875 182.472 203.635 180.062 203.945C177.672 204.245 175.172 204.085 172.532 203.475C169.932 202.875 167.282 201.805 164.582 200.245L160.762 198.045L156.742 200.385L164.242 204.715L161.302 206.425L153.802 202.095L147.652 205.665L143.552 203.295L149.702 199.725L145.742 197.435L148.682 195.725L152.642 198.015L156.662 195.675L152.692 193.375ZM184.922 189.145L175.812 183.885L160.082 193.025L156.122 190.735L151.582 193.375L155.542 195.665L152.622 197.365L148.662 195.075L144.632 197.415L148.592 199.705L142.442 203.275L147.642 206.275L153.792 202.705L161.302 207.035L165.332 204.695L157.822 200.365L160.742 198.665L164.012 200.555C166.762 202.145 169.502 203.265 172.232 203.885C174.982 204.525 177.652 204.695 180.212 204.385H180.222C182.802 204.045 185.162 203.245 187.302 202.005C190.472 200.165 191.952 198.125 191.572 195.915C191.242 193.725 188.942 191.475 184.922 189.145Z" fill="#0053A3"/>
<path d="M216.753 214.205C216.603 215.235 216.353 216.255 216.003 217.275C214.173 222.685 209.653 227.845 202.443 232.035C183.013 243.335 151.293 243.335 131.733 232.035C124.333 227.765 119.723 222.485 117.893 216.955C117.533 215.875 117.283 214.785 117.143 213.685V200.035C117.283 201.135 117.533 202.235 117.893 203.325C118.033 203.775 118.203 204.225 118.383 204.665C118.553 205.075 118.743 205.495 118.943 205.905C121.223 210.495 125.483 214.815 131.733 218.425C151.293 229.725 183.013 229.715 202.443 218.425C208.563 214.855 212.753 210.595 215.003 206.065C215.203 205.655 215.393 205.255 215.563 204.845C215.723 204.455 215.873 204.065 216.003 203.675C216.343 202.675 216.593 201.675 216.753 200.665V209.085C217.013 210.795 217.013 212.505 216.753 214.205Z" fill="#CDE7F7"/>
<path d="M215.002 173.615C214.862 174.025 214.702 174.425 214.532 174.835C212.482 179.665 208.222 184.235 201.732 188.005C182.692 199.075 151.602 199.075 132.432 188.005C125.832 184.195 121.492 179.565 119.412 174.675C119.242 174.265 119.092 173.855 118.942 173.445C115.862 164.475 120.272 154.805 132.212 147.865C134.532 146.515 137.032 145.335 139.672 144.315C140.352 144.055 141.042 143.795 141.742 143.565C157.112 138.245 176.502 138.245 191.932 143.565C192.632 143.805 193.322 144.055 194.002 144.315C196.652 145.335 199.162 146.515 201.502 147.865C213.592 154.855 218.102 164.605 215.002 173.615Z" fill="white"/>
<path d="M216.753 165.475C216.603 164.445 216.353 163.425 216.003 162.415C214.143 156.935 209.553 151.705 202.213 147.465C200.183 146.295 198.023 145.245 195.763 144.325C195.123 144.055 194.473 143.805 193.823 143.575C177.403 137.475 156.193 137.475 139.843 143.575C139.193 143.805 138.552 144.055 137.923 144.325C135.673 145.245 133.522 146.295 131.502 147.465C124.232 151.685 119.692 156.915 117.892 162.365C117.532 163.445 117.282 164.535 117.142 165.635C116.953 167.095 116.953 168.565 117.142 170.025C117.282 171.125 117.532 172.225 117.892 173.315C118.033 173.765 118.202 174.215 118.382 174.655C118.552 175.065 118.743 175.485 118.943 175.895C121.222 180.485 125.482 184.805 131.732 188.415C151.292 199.715 183.013 199.705 202.443 188.415C208.563 184.855 212.753 180.595 215.003 176.065C215.202 175.655 215.393 175.255 215.562 174.845C215.723 174.455 215.873 174.065 216.003 173.675C216.342 172.675 216.592 171.675 216.753 170.665C217.013 168.935 217.022 167.185 216.753 165.475ZM215.003 173.615C214.863 174.025 214.702 174.425 214.533 174.835C212.482 179.665 208.223 184.235 201.733 188.005C182.693 199.075 151.603 199.075 132.432 188.005C125.833 184.195 121.493 179.565 119.413 174.675C119.243 174.265 119.093 173.855 118.943 173.445C115.863 164.475 120.273 154.805 132.212 147.865C134.532 146.515 137.033 145.335 139.673 144.315C140.353 144.055 141.042 143.795 141.743 143.565C157.112 138.245 176.503 138.245 191.933 143.565C192.632 143.805 193.323 144.055 194.003 144.315C196.653 145.335 199.163 146.515 201.503 147.865C213.592 154.855 218.103 164.605 215.003 173.615Z" fill="#0053A3"/>
<path d="M180.572 161.255L176.482 158.895L164.182 166.045L167.402 167.905C169.252 168.975 171.012 169.765 172.682 170.265C174.382 170.795 176.032 170.995 177.632 170.865C179.232 170.745 180.812 170.225 182.382 169.315C184.432 168.125 185.312 166.875 185.032 165.555C184.752 164.245 183.272 162.815 180.572 161.255ZM165.282 166.035L176.482 159.525L180.022 161.575C182.672 163.105 184.022 164.455 184.262 165.615C184.512 166.755 183.762 167.875 181.832 168.995C180.342 169.865 178.902 170.315 177.522 170.415C176.112 170.525 174.632 170.345 173.042 169.855C171.472 169.375 169.772 168.625 167.952 167.565L165.282 166.035ZM152.692 163.375L156.122 161.385L160.082 163.675L175.812 154.535L184.372 159.475C188.342 161.765 190.492 163.925 190.802 165.955C191.142 168.005 189.792 169.915 186.752 171.685C184.702 172.875 182.472 173.635 180.062 173.945C177.672 174.245 175.172 174.085 172.532 173.475C169.932 172.875 167.282 171.805 164.582 170.245L160.762 168.045L156.742 170.385L164.242 174.715L161.302 176.425L153.802 172.095L147.652 175.665L143.552 173.295L149.702 169.725L145.742 167.435L148.682 165.725L152.642 168.015L156.662 165.675L152.692 163.375ZM184.922 159.145L175.812 153.885L160.082 163.025L156.122 160.735L151.582 163.375L155.542 165.665L152.622 167.365L148.662 165.075L144.632 167.415L148.592 169.705L142.442 173.275L147.642 176.275L153.792 172.705L161.302 177.035L165.332 174.695L157.822 170.365L160.742 168.665L164.012 170.555C166.762 172.145 169.502 173.265 172.232 173.885C174.982 174.525 177.652 174.695 180.212 174.385H180.222C182.802 174.045 185.162 173.245 187.302 172.005C190.472 170.165 191.952 168.125 191.572 165.915C191.242 163.725 188.942 161.475 184.922 159.145Z" fill="#0053A3"/>
<path d="M216.753 184.205C216.603 185.235 216.353 186.255 216.003 187.275C214.173 192.685 209.653 197.845 202.443 202.035C183.013 213.335 151.293 213.335 131.733 202.035C124.333 197.765 119.723 192.485 117.893 186.955C117.533 185.875 117.283 184.785 117.143 183.685V170.035C117.283 171.135 117.533 172.235 117.893 173.325C118.033 173.775 118.203 174.225 118.383 174.665C118.553 175.075 118.743 175.495 118.943 175.905C121.223 180.495 125.483 184.815 131.733 188.425C151.293 199.725 183.013 199.715 202.443 188.425C208.563 184.855 212.753 180.595 215.003 176.065C215.203 175.655 215.393 175.255 215.563 174.845C215.723 174.455 215.873 174.065 216.003 173.675C216.343 172.675 216.593 171.675 216.753 170.665V179.085C217.013 180.795 217.013 182.505 216.753 184.205Z" fill="#CDE7F7"/>
<path d="M98.0025 203.615C97.8625 204.025 97.7025 204.425 97.5325 204.835C95.4825 209.665 91.2225 214.235 84.7325 218.005C65.6925 229.075 34.6025 229.075 15.4325 218.005C8.83248 214.195 4.49248 209.565 2.41248 204.675C2.24248 204.265 2.09248 203.855 1.94248 203.445C-1.13752 194.475 3.27248 184.805 15.2125 177.865C17.5325 176.515 20.0325 175.335 22.6725 174.315C23.3525 174.055 24.0425 173.795 24.7425 173.565C40.1125 168.245 59.5025 168.245 74.9325 173.565C75.6325 173.805 76.3225 174.055 77.0025 174.315C79.6525 175.335 82.1625 176.515 84.5025 177.865C96.5925 184.855 101.102 194.605 98.0025 203.615Z" fill="white"/>
<path d="M99.7525 195.475C99.6025 194.445 99.3525 193.425 99.0025 192.415C97.1425 186.935 92.5525 181.705 85.2125 177.465C83.1825 176.295 81.0225 175.245 78.7625 174.325C78.1225 174.055 77.4725 173.805 76.8225 173.575C60.4025 167.475 39.1925 167.475 22.8425 173.575C22.1925 173.805 21.5525 174.055 20.9225 174.325C18.6725 175.245 16.5225 176.295 14.5025 177.465C7.2325 181.685 2.6925 186.915 0.8925 192.365C0.5325 193.445 0.2825 194.535 0.1425 195.635C-0.0475 197.095 -0.0475 198.565 0.1425 200.025C0.2825 201.125 0.5325 202.225 0.8925 203.315C1.0325 203.765 1.2025 204.215 1.3825 204.655C1.5525 205.065 1.7425 205.485 1.9425 205.895C4.2225 210.485 8.4825 214.805 14.7325 218.415C34.2925 229.715 66.0125 229.705 85.4425 218.415C91.5625 214.855 95.7525 210.595 98.0025 206.065C98.2025 205.655 98.3925 205.255 98.5625 204.845C98.7225 204.455 98.8725 204.065 99.0025 203.675C99.3425 202.675 99.5925 201.675 99.7525 200.665C100.013 198.935 100.022 197.185 99.7525 195.475ZM98.0025 203.615C97.8625 204.025 97.7025 204.425 97.5325 204.835C95.4825 209.665 91.2225 214.235 84.7325 218.005C65.6925 229.075 34.6025 229.075 15.4325 218.005C8.8325 214.195 4.4925 209.565 2.4125 204.675C2.2425 204.265 2.0925 203.855 1.9425 203.445C-1.1375 194.475 3.2725 184.805 15.2125 177.865C17.5325 176.515 20.0325 175.335 22.6725 174.315C23.3525 174.055 24.0425 173.795 24.7425 173.565C40.1125 168.245 59.5025 168.245 74.9325 173.565C75.6325 173.805 76.3225 174.055 77.0025 174.315C79.6525 175.335 82.1625 176.515 84.5025 177.865C96.5925 184.855 101.103 194.605 98.0025 203.615Z" fill="#0053A3"/>
<path d="M63.5724 191.255L59.4824 188.895L47.1824 196.045L50.4024 197.905C52.2524 198.975 54.0124 199.765 55.6824 200.265C57.3824 200.795 59.0324 200.995 60.6324 200.865C62.2324 200.745 63.8124 200.225 65.3824 199.315C67.4324 198.125 68.3124 196.875 68.0324 195.555C67.7524 194.245 66.2724 192.815 63.5724 191.255ZM48.2824 196.035L59.4824 189.525L63.0224 191.575C65.6724 193.105 67.0224 194.455 67.2624 195.615C67.5124 196.755 66.7624 197.875 64.8324 198.995C63.3424 199.865 61.9024 200.315 60.5224 200.415C59.1124 200.525 57.6324 200.345 56.0424 199.855C54.4724 199.375 52.7724 198.625 50.9524 197.565L48.2824 196.035ZM35.6924 193.375L39.1224 191.385L43.0824 193.675L58.8124 184.535L67.3724 189.475C71.3424 191.765 73.4924 193.925 73.8024 195.955C74.1424 198.005 72.7924 199.915 69.7524 201.685C67.7024 202.875 65.4724 203.635 63.0624 203.945C60.6724 204.245 58.1724 204.085 55.5324 203.475C52.9324 202.875 50.2824 201.805 47.5824 200.245L43.7624 198.045L39.7424 200.385L47.2424 204.715L44.3024 206.425L36.8024 202.095L30.6524 205.665L26.5524 203.295L32.7024 199.725L28.7424 197.435L31.6824 195.725L35.6424 198.015L39.6624 195.675L35.6924 193.375ZM67.9224 189.145L58.8124 183.885L43.0824 193.025L39.1224 190.735L34.5824 193.375L38.5424 195.665L35.6224 197.365L31.6624 195.075L27.6324 197.415L31.5924 199.705L25.4424 203.275L30.6424 206.275L36.7924 202.705L44.3024 207.035L48.3324 204.695L40.8224 200.365L43.7424 198.665L47.0124 200.555C49.7624 202.145 52.5024 203.265 55.2324 203.885C57.9824 204.525 60.6524 204.695 63.2124 204.385H63.2224C65.8024 204.045 68.1624 203.245 70.3024 202.005C73.4724 200.165 74.9524 198.125 74.5724 195.915C74.2424 193.725 71.9424 191.475 67.9224 189.145Z" fill="#0053A3"/>
<path d="M99.7526 214.205C99.6026 215.235 99.3526 216.255 99.0026 217.275C97.1726 222.685 92.6526 227.845 85.4426 232.035C66.0126 243.335 34.2926 243.335 14.7326 232.035C7.33258 227.765 2.72258 222.485 0.892578 216.955C0.532578 215.875 0.282578 214.785 0.142578 213.685V200.035C0.282578 201.135 0.532578 202.235 0.892578 203.325C1.03258 203.775 1.20258 204.225 1.38258 204.665C1.55258 205.075 1.74258 205.495 1.94258 205.905C4.22258 210.495 8.48258 214.815 14.7326 218.425C34.2926 229.725 66.0126 229.715 85.4426 218.425C91.5626 214.855 95.7526 210.595 98.0026 206.065C98.2026 205.655 98.3926 205.255 98.5626 204.845C98.7226 204.455 98.8726 204.065 99.0026 203.675C99.3426 202.675 99.5926 201.675 99.7526 200.665V209.085C100.013 210.795 100.013 212.505 99.7526 214.205Z" fill="#CDE7F7"/>
</svg>
