<svg width="29" height="29" viewBox="0 0 29 29" fill="none" xmlns="http://www.w3.org/2000/svg">
<path d="M0.32373 1.6908C0.32373 1.13851 0.771446 0.690796 1.32373 0.690796H27.3237C27.876 0.690796 28.3237 1.13851 28.3237 1.6908V27.6908C28.3237 28.2431 27.876 28.6908 27.3237 28.6908H1.32373C0.771445 28.6908 0.32373 28.2431 0.32373 27.6908V1.6908Z" fill="white"/>
<path fill-rule="evenodd" clip-rule="evenodd" d="M1.82373 2.1908V27.1908H26.8237V2.1908H1.82373ZM1.32373 0.690796C0.771446 0.690796 0.32373 1.13851 0.32373 1.6908V27.6908C0.32373 28.2431 0.771445 28.6908 1.32373 28.6908H27.3237C27.876 28.6908 28.3237 28.2431 28.3237 27.6908V1.6908C28.3237 1.13851 27.876 0.690796 27.3237 0.690796H1.32373Z" fill="#0053A3"/>
<path fill-rule="evenodd" clip-rule="evenodd" d="M4.75781 23.6635C4.75781 23.2493 5.0936 22.9135 5.50781 22.9135H11.7001C12.1143 22.9135 12.4501 23.2493 12.4501 23.6635C12.4501 24.0777 12.1143 24.4135 11.7001 24.4135H5.50781C5.0936 24.4135 4.75781 24.0777 4.75781 23.6635Z" fill="#CDE7F7"/>
<path fill-rule="evenodd" clip-rule="evenodd" d="M16.1968 23.6635C16.1968 23.2493 16.5326 22.9135 16.9468 22.9135H23.1391C23.5533 22.9135 23.8891 23.2493 23.8891 23.6635C23.8891 24.0777 23.5533 24.4135 23.1391 24.4135H16.9468C16.5326 24.4135 16.1968 24.0777 16.1968 23.6635Z" fill="#CDE7F7"/>
<path fill-rule="evenodd" clip-rule="evenodd" d="M4.75781 18.6635C4.75781 18.2493 5.0936 17.9135 5.50781 17.9135H11.7001C12.1143 17.9135 12.4501 18.2493 12.4501 18.6635C12.4501 19.0777 12.1143 19.4135 11.7001 19.4135H5.50781C5.0936 19.4135 4.75781 19.0777 4.75781 18.6635Z" fill="#0053A3"/>
<path fill-rule="evenodd" clip-rule="evenodd" d="M16.1968 18.6635C16.1968 18.2493 16.5326 17.9135 16.9468 17.9135H23.1391C23.5533 17.9135 23.8891 18.2493 23.8891 18.6635C23.8891 19.0777 23.5533 19.4135 23.1391 19.4135H16.9468C16.5326 19.4135 16.1968 19.0777 16.1968 18.6635Z" fill="#0053A3"/>
<path d="M1.8125 2.21307H26.8347V14.9187H1.8125V2.21307Z" fill="#CDE7F7"/>
<path d="M5.24784 4.84965L6.82516 10.066C6.96216 10.5232 7.39907 10.84 7.89151 10.84H11.9533C12.4531 10.84 12.8938 10.5124 13.027 10.0444L13.986 6.61364C14.0416 6.42284 13.9268 6.22485 13.7268 6.17445C13.6972 6.16365 13.6639 6.16005 13.6306 6.16005H6.41417L5.95875 4.64446C5.84026 4.26286 5.47741 4.00006 5.07012 4.00006H4.37403C4.17038 3.99646 4.00006 4.15486 4.00006 4.35646C3.99636 4.55446 4.15927 4.71646 4.36292 4.72006H5.07012C5.15158 4.72006 5.22193 4.77046 5.24784 4.84965ZM11.2239 10.12C10.9166 10.12 10.6685 9.87882 10.6685 9.58002C10.6685 9.28122 10.9166 9.04003 11.2239 9.04003C11.5312 9.04003 11.7793 9.28122 11.7793 9.58002C11.7793 9.87882 11.5312 10.12 11.2239 10.12ZM11.6867 7.00244C11.8237 7.15364 11.8052 7.38044 11.6534 7.51004L8.69128 10.03C8.62093 10.0912 8.53207 10.12 8.44691 10.12C8.34323 10.12 8.24326 10.0768 8.16921 9.99762C8.03221 9.84642 8.05073 9.61962 8.20253 9.49002L11.1646 6.97004C11.3201 6.83684 11.5534 6.85124 11.6867 7.00244ZM8.63204 6.88004C8.93935 6.88004 9.18743 7.12124 9.18743 7.42004C9.18743 7.71883 8.93935 7.96003 8.63204 7.96003C8.32472 7.96003 8.07664 7.71883 8.07664 7.42004C8.07664 7.12124 8.32472 6.88004 8.63204 6.88004ZM8.07664 11.56C7.88025 11.56 7.69189 11.6359 7.55302 11.7709C7.41414 11.9059 7.33612 12.089 7.33612 12.28C7.33612 12.471 7.41414 12.6541 7.55302 12.7891C7.69189 12.9241 7.88025 13 8.07664 13C8.27304 13 8.4614 12.9241 8.60027 12.7891C8.73915 12.6541 8.81717 12.471 8.81717 12.28C8.81717 12.089 8.73915 11.9059 8.60027 11.7709C8.4614 11.6359 8.27304 11.56 8.07664 11.56ZM11.7793 11.56C11.5829 11.56 11.3945 11.6359 11.2556 11.7709C11.1168 11.9059 11.0387 12.089 11.0387 12.28C11.0387 12.471 11.1168 12.6541 11.2556 12.7891C11.3945 12.9241 11.5829 13 11.7793 13C11.9757 13 12.164 12.9241 12.3029 12.7891C12.4418 12.6541 12.5198 12.471 12.5198 12.28C12.5198 12.089 12.4418 11.9059 12.3029 11.7709C12.164 11.6359 11.9757 11.56 11.7793 11.56Z" fill="#0053A3"/>
</svg>
