<svg width="370" height="168" viewBox="0 0 370 168" fill="none" xmlns="http://www.w3.org/2000/svg">
<g clip-path="url(#clip0_8_2624)">
<path d="M28.2769 11.0331C38.555 4.16556 50.6387 0.5 63 0.5C79.5761 0.5 95.4732 7.0848 107.194 18.8058C118.915 30.5268 125.5 46.424 125.5 63C125.5 75.3613 121.834 87.4451 114.967 97.7231C108.099 108.001 98.3381 116.012 86.9177 120.742C75.4974 125.473 62.9307 126.711 50.8069 124.299C38.6831 121.888 27.5466 115.935 18.8059 107.194C10.0651 98.4534 4.11252 87.317 1.70095 75.1931C-0.710628 63.0693 0.52708 50.5027 5.25756 39.0823C9.98803 27.6619 17.9988 17.9007 28.2769 11.0331ZM66.4375 117.928V118.466L66.9737 118.427C80.2999 117.46 92.8327 111.728 102.281 102.281C111.728 92.8327 117.46 80.2999 118.427 66.9737L118.466 66.4375H117.928H102.875V59.5625H117.928H118.466L118.427 59.0263C117.46 45.7001 111.728 33.1673 102.281 23.7195C92.8327 14.2717 80.2999 8.54024 66.9737 7.57319L66.4375 7.53428V8.07187V23.125H59.5625V8.07187V7.53428L59.0263 7.57319C45.7002 8.54024 33.1673 14.2717 23.7195 23.7195C14.2717 33.1673 8.54026 45.7001 7.57321 59.0263L7.5343 59.5625H8.0719H23.125V66.4375H8.0719H7.5343L7.57321 66.9737C8.54026 80.2999 14.2717 92.8327 23.7195 102.281C33.1673 111.728 45.7002 117.46 59.0263 118.427L59.5625 118.466V117.928V102.875H66.4375V117.928Z" stroke="#0053A3"/>
<path d="M66.9376 35.4375H59.0626V63C59.0596 63.5182 59.1589 64.0319 59.3548 64.5116C59.5508 64.9914 59.8395 65.4277 60.2044 65.7956L79.8919 85.4831L85.4438 79.9313L66.9376 61.3856V35.4375Z" fill="#CDE7F7"/>
</g>
<path d="M133.002 130.615C132.862 131.025 132.702 131.425 132.532 131.835C130.482 136.665 126.222 141.235 119.732 145.005C100.692 156.075 69.6025 156.075 50.4325 145.005C43.8325 141.195 39.4925 136.565 37.4125 131.675C37.2425 131.265 37.0925 130.855 36.9425 130.445C33.8625 121.475 38.2725 111.805 50.2125 104.865C52.5325 103.515 55.0325 102.335 57.6725 101.315C58.3525 101.055 59.0425 100.795 59.7425 100.565C75.1125 95.245 94.5025 95.245 109.932 100.565C110.632 100.805 111.322 101.055 112.002 101.315C114.652 102.335 117.162 103.515 119.502 104.865C131.592 111.855 136.102 121.605 133.002 130.615Z" fill="white"/>
<path d="M134.753 122.475C134.603 121.445 134.353 120.425 134.003 119.415C132.143 113.935 127.553 108.705 120.213 104.465C118.183 103.295 116.023 102.245 113.763 101.325C113.123 101.055 112.473 100.805 111.823 100.575C95.4025 94.475 74.1925 94.475 57.8425 100.575C57.1925 100.805 56.5525 101.055 55.9225 101.325C53.6725 102.245 51.5225 103.295 49.5025 104.465C42.2325 108.685 37.6925 113.915 35.8925 119.365C35.5325 120.445 35.2825 121.535 35.1425 122.635C34.9525 124.095 34.9525 125.565 35.1425 127.025C35.2825 128.125 35.5325 129.225 35.8925 130.315C36.0325 130.765 36.2025 131.215 36.3825 131.655C36.5525 132.065 36.7425 132.485 36.9425 132.895C39.2225 137.485 43.4825 141.805 49.7325 145.415C69.2925 156.715 101.013 156.705 120.443 145.415C126.563 141.855 130.753 137.595 133.003 133.065C133.202 132.655 133.393 132.255 133.562 131.845C133.723 131.455 133.873 131.065 134.003 130.675C134.342 129.675 134.592 128.675 134.753 127.665C135.013 125.935 135.022 124.185 134.753 122.475ZM133.003 130.615C132.863 131.025 132.702 131.425 132.533 131.835C130.482 136.665 126.223 141.235 119.733 145.005C100.693 156.075 69.6025 156.075 50.4325 145.005C43.8325 141.195 39.4925 136.565 37.4125 131.675C37.2425 131.265 37.0925 130.855 36.9425 130.445C33.8625 121.475 38.2725 111.805 50.2125 104.865C52.5325 103.515 55.0325 102.335 57.6725 101.315C58.3525 101.055 59.0425 100.795 59.7425 100.565C75.1125 95.245 94.5025 95.245 109.933 100.565C110.632 100.805 111.323 101.055 112.003 101.315C114.653 102.335 117.163 103.515 119.503 104.865C131.592 111.855 136.103 121.605 133.003 130.615Z" fill="#0053A3"/>
<path d="M98.5724 118.255L94.4824 115.895L82.1824 123.045L85.4024 124.905C87.2524 125.975 89.0124 126.765 90.6824 127.265C92.3824 127.795 94.0324 127.995 95.6324 127.865C97.2324 127.745 98.8124 127.225 100.382 126.315C102.432 125.125 103.312 123.875 103.032 122.555C102.752 121.245 101.272 119.815 98.5724 118.255ZM83.2824 123.035L94.4824 116.525L98.0224 118.575C100.672 120.105 102.022 121.455 102.262 122.615C102.512 123.755 101.762 124.875 99.8324 125.995C98.3424 126.865 96.9024 127.315 95.5224 127.415C94.1124 127.525 92.6324 127.345 91.0424 126.855C89.4724 126.375 87.7724 125.625 85.9524 124.565L83.2824 123.035ZM70.6924 120.375L74.1224 118.385L78.0824 120.675L93.8124 111.535L102.372 116.475C106.342 118.765 108.492 120.925 108.802 122.955C109.142 125.005 107.792 126.915 104.752 128.685C102.702 129.875 100.472 130.635 98.0624 130.945C95.6724 131.245 93.1724 131.085 90.5324 130.475C87.9324 129.875 85.2824 128.805 82.5824 127.245L78.7624 125.045L74.7424 127.385L82.2424 131.715L79.3024 133.425L71.8024 129.095L65.6524 132.665L61.5524 130.295L67.7024 126.725L63.7424 124.435L66.6824 122.725L70.6424 125.015L74.6624 122.675L70.6924 120.375ZM102.922 116.145L93.8124 110.885L78.0824 120.025L74.1224 117.735L69.5824 120.375L73.5424 122.665L70.6224 124.365L66.6624 122.075L62.6324 124.415L66.5924 126.705L60.4424 130.275L65.6424 133.275L71.7924 129.705L79.3024 134.035L83.3324 131.695L75.8224 127.365L78.7424 125.665L82.0124 127.555C84.7624 129.145 87.5024 130.265 90.2324 130.885C92.9824 131.525 95.6524 131.695 98.2124 131.385H98.2224C100.802 131.045 103.162 130.245 105.302 129.005C108.472 127.165 109.952 125.125 109.572 122.915C109.242 120.725 106.942 118.475 102.922 116.145Z" fill="#0053A3"/>
<path d="M134.753 141.205C134.603 142.235 134.353 143.255 134.003 144.275C132.173 149.685 127.653 154.845 120.443 159.035C101.013 170.335 69.2926 170.335 49.7326 159.035C42.3326 154.765 37.7226 149.485 35.8926 143.955C35.5326 142.875 35.2826 141.785 35.1426 140.685V127.035C35.2826 128.135 35.5326 129.235 35.8926 130.325C36.0326 130.775 36.2026 131.225 36.3826 131.665C36.5526 132.075 36.7426 132.495 36.9426 132.905C39.2226 137.495 43.4826 141.815 49.7326 145.425C69.2926 156.725 101.013 156.715 120.443 145.425C126.563 141.855 130.753 137.595 133.003 133.065C133.203 132.655 133.393 132.255 133.563 131.845C133.723 131.455 133.873 131.065 134.003 130.675C134.343 129.675 134.593 128.675 134.753 127.665V136.085C135.013 137.795 135.013 139.505 134.753 141.205Z" fill="#CDE7F7"/>
<path d="M246.002 130.615C245.862 131.025 245.702 131.425 245.532 131.835C243.482 136.665 239.222 141.235 232.732 145.005C213.692 156.075 182.602 156.075 163.432 145.005C156.832 141.195 152.492 136.565 150.412 131.675C150.242 131.265 150.092 130.855 149.942 130.445C146.862 121.475 151.272 111.805 163.212 104.865C165.532 103.515 168.032 102.335 170.672 101.315C171.352 101.055 172.042 100.795 172.742 100.565C188.112 95.245 207.502 95.245 222.932 100.565C223.632 100.805 224.322 101.055 225.002 101.315C227.652 102.335 230.162 103.515 232.502 104.865C244.592 111.855 249.102 121.605 246.002 130.615Z" fill="white"/>
<path d="M247.753 122.475C247.603 121.445 247.353 120.425 247.003 119.415C245.143 113.935 240.553 108.705 233.213 104.465C231.183 103.295 229.023 102.245 226.763 101.325C226.123 101.055 225.473 100.805 224.823 100.575C208.403 94.475 187.193 94.475 170.843 100.575C170.193 100.805 169.552 101.055 168.923 101.325C166.673 102.245 164.522 103.295 162.502 104.465C155.232 108.685 150.692 113.915 148.892 119.365C148.532 120.445 148.282 121.535 148.142 122.635C147.953 124.095 147.953 125.565 148.142 127.025C148.282 128.125 148.532 129.225 148.892 130.315C149.033 130.765 149.202 131.215 149.382 131.655C149.552 132.065 149.743 132.485 149.943 132.895C152.222 137.485 156.482 141.805 162.732 145.415C182.292 156.715 214.013 156.705 233.443 145.415C239.563 141.855 243.753 137.595 246.003 133.065C246.202 132.655 246.393 132.255 246.562 131.845C246.723 131.455 246.873 131.065 247.003 130.675C247.342 129.675 247.592 128.675 247.753 127.665C248.013 125.935 248.022 124.185 247.753 122.475ZM246.003 130.615C245.863 131.025 245.702 131.425 245.533 131.835C243.482 136.665 239.223 141.235 232.733 145.005C213.693 156.075 182.603 156.075 163.432 145.005C156.833 141.195 152.493 136.565 150.413 131.675C150.243 131.265 150.093 130.855 149.943 130.445C146.863 121.475 151.273 111.805 163.212 104.865C165.532 103.515 168.033 102.335 170.673 101.315C171.353 101.055 172.042 100.795 172.743 100.565C188.112 95.245 207.503 95.245 222.933 100.565C223.632 100.805 224.323 101.055 225.003 101.315C227.653 102.335 230.163 103.515 232.503 104.865C244.592 111.855 249.103 121.605 246.003 130.615Z" fill="#0053A3"/>
<path d="M211.572 118.255L207.482 115.895L195.182 123.045L198.402 124.905C200.252 125.975 202.012 126.765 203.682 127.265C205.382 127.795 207.032 127.995 208.632 127.865C210.232 127.745 211.812 127.225 213.382 126.315C215.432 125.125 216.312 123.875 216.032 122.555C215.752 121.245 214.272 119.815 211.572 118.255ZM196.282 123.035L207.482 116.525L211.022 118.575C213.672 120.105 215.022 121.455 215.262 122.615C215.512 123.755 214.762 124.875 212.832 125.995C211.342 126.865 209.902 127.315 208.522 127.415C207.112 127.525 205.632 127.345 204.042 126.855C202.472 126.375 200.772 125.625 198.952 124.565L196.282 123.035ZM183.692 120.375L187.122 118.385L191.082 120.675L206.812 111.535L215.372 116.475C219.342 118.765 221.492 120.925 221.802 122.955C222.142 125.005 220.792 126.915 217.752 128.685C215.702 129.875 213.472 130.635 211.062 130.945C208.672 131.245 206.172 131.085 203.532 130.475C200.932 129.875 198.282 128.805 195.582 127.245L191.762 125.045L187.742 127.385L195.242 131.715L192.302 133.425L184.802 129.095L178.652 132.665L174.552 130.295L180.702 126.725L176.742 124.435L179.682 122.725L183.642 125.015L187.662 122.675L183.692 120.375ZM215.922 116.145L206.812 110.885L191.082 120.025L187.122 117.735L182.582 120.375L186.542 122.665L183.622 124.365L179.662 122.075L175.632 124.415L179.592 126.705L173.442 130.275L178.642 133.275L184.792 129.705L192.302 134.035L196.332 131.695L188.822 127.365L191.742 125.665L195.012 127.555C197.762 129.145 200.502 130.265 203.232 130.885C205.982 131.525 208.652 131.695 211.212 131.385H211.222C213.802 131.045 216.162 130.245 218.302 129.005C221.472 127.165 222.952 125.125 222.572 122.915C222.242 120.725 219.942 118.475 215.922 116.145Z" fill="#0053A3"/>
<path d="M247.753 141.205C247.603 142.235 247.353 143.255 247.003 144.275C245.173 149.685 240.653 154.845 233.443 159.035C214.013 170.335 182.293 170.335 162.733 159.035C155.333 154.765 150.723 149.485 148.893 143.955C148.533 142.875 148.283 141.785 148.143 140.685V127.035C148.283 128.135 148.533 129.235 148.893 130.325C149.033 130.775 149.203 131.225 149.383 131.665C149.553 132.075 149.743 132.495 149.943 132.905C152.223 137.495 156.483 141.815 162.733 145.425C182.293 156.725 214.013 156.715 233.443 145.425C239.563 141.855 243.753 137.595 246.003 133.065C246.203 132.655 246.393 132.255 246.563 131.845C246.723 131.455 246.873 131.065 247.003 130.675C247.343 129.675 247.593 128.675 247.753 127.665V136.085C248.013 137.795 248.013 139.505 247.753 141.205Z" fill="#CDE7F7"/>
<path d="M368.002 130.615C367.862 131.025 367.702 131.425 367.532 131.835C365.482 136.665 361.222 141.235 354.732 145.005C335.692 156.075 304.602 156.075 285.432 145.005C278.832 141.195 274.492 136.565 272.412 131.675C272.242 131.265 272.092 130.855 271.942 130.445C268.862 121.475 273.272 111.805 285.212 104.865C287.532 103.515 290.032 102.335 292.672 101.315C293.352 101.055 294.042 100.795 294.742 100.565C310.112 95.245 329.502 95.245 344.932 100.565C345.632 100.805 346.322 101.055 347.002 101.315C349.652 102.335 352.162 103.515 354.502 104.865C366.592 111.855 371.102 121.605 368.002 130.615Z" fill="white"/>
<path d="M369.753 122.475C369.603 121.445 369.353 120.425 369.003 119.415C367.143 113.935 362.553 108.705 355.213 104.465C353.183 103.295 351.023 102.245 348.763 101.325C348.123 101.055 347.473 100.805 346.823 100.575C330.403 94.475 309.193 94.475 292.843 100.575C292.193 100.805 291.552 101.055 290.923 101.325C288.673 102.245 286.522 103.295 284.502 104.465C277.232 108.685 272.692 113.915 270.892 119.365C270.532 120.445 270.282 121.535 270.142 122.635C269.953 124.095 269.953 125.565 270.142 127.025C270.282 128.125 270.532 129.225 270.892 130.315C271.033 130.765 271.202 131.215 271.382 131.655C271.552 132.065 271.743 132.485 271.943 132.895C274.222 137.485 278.482 141.805 284.732 145.415C304.292 156.715 336.013 156.705 355.443 145.415C361.563 141.855 365.753 137.595 368.003 133.065C368.202 132.655 368.393 132.255 368.562 131.845C368.723 131.455 368.873 131.065 369.003 130.675C369.342 129.675 369.592 128.675 369.753 127.665C370.013 125.935 370.022 124.185 369.753 122.475ZM368.003 130.615C367.863 131.025 367.702 131.425 367.533 131.835C365.482 136.665 361.223 141.235 354.733 145.005C335.693 156.075 304.603 156.075 285.432 145.005C278.833 141.195 274.493 136.565 272.413 131.675C272.243 131.265 272.093 130.855 271.943 130.445C268.863 121.475 273.273 111.805 285.212 104.865C287.532 103.515 290.033 102.335 292.673 101.315C293.353 101.055 294.042 100.795 294.743 100.565C310.112 95.245 329.503 95.245 344.933 100.565C345.632 100.805 346.323 101.055 347.003 101.315C349.653 102.335 352.163 103.515 354.503 104.865C366.592 111.855 371.103 121.605 368.003 130.615Z" fill="#0053A3"/>
<path d="M333.572 118.255L329.482 115.895L317.182 123.045L320.402 124.905C322.252 125.975 324.012 126.765 325.682 127.265C327.382 127.795 329.032 127.995 330.632 127.865C332.232 127.745 333.812 127.225 335.382 126.315C337.432 125.125 338.312 123.875 338.032 122.555C337.752 121.245 336.272 119.815 333.572 118.255ZM318.282 123.035L329.482 116.525L333.022 118.575C335.672 120.105 337.022 121.455 337.262 122.615C337.512 123.755 336.762 124.875 334.832 125.995C333.342 126.865 331.902 127.315 330.522 127.415C329.112 127.525 327.632 127.345 326.042 126.855C324.472 126.375 322.772 125.625 320.952 124.565L318.282 123.035ZM305.692 120.375L309.122 118.385L313.082 120.675L328.812 111.535L337.372 116.475C341.342 118.765 343.492 120.925 343.802 122.955C344.142 125.005 342.792 126.915 339.752 128.685C337.702 129.875 335.472 130.635 333.062 130.945C330.672 131.245 328.172 131.085 325.532 130.475C322.932 129.875 320.282 128.805 317.582 127.245L313.762 125.045L309.742 127.385L317.242 131.715L314.302 133.425L306.802 129.095L300.652 132.665L296.552 130.295L302.702 126.725L298.742 124.435L301.682 122.725L305.642 125.015L309.662 122.675L305.692 120.375ZM337.922 116.145L328.812 110.885L313.082 120.025L309.122 117.735L304.582 120.375L308.542 122.665L305.622 124.365L301.662 122.075L297.632 124.415L301.592 126.705L295.442 130.275L300.642 133.275L306.792 129.705L314.302 134.035L318.332 131.695L310.822 127.365L313.742 125.665L317.012 127.555C319.762 129.145 322.502 130.265 325.232 130.885C327.982 131.525 330.652 131.695 333.212 131.385H333.222C335.802 131.045 338.162 130.245 340.302 129.005C343.472 127.165 344.952 125.125 344.572 122.915C344.242 120.725 341.942 118.475 337.922 116.145Z" fill="#0053A3"/>
<path d="M369.753 141.205C369.603 142.235 369.353 143.255 369.003 144.275C367.173 149.685 362.653 154.845 355.443 159.035C336.013 170.335 304.293 170.335 284.733 159.035C277.333 154.765 272.723 149.485 270.893 143.955C270.533 142.875 270.283 141.785 270.143 140.685V127.035C270.283 128.135 270.533 129.235 270.893 130.325C271.033 130.775 271.203 131.225 271.383 131.665C271.553 132.075 271.743 132.495 271.943 132.905C274.223 137.495 278.483 141.815 284.733 145.425C304.293 156.725 336.013 156.715 355.443 145.425C361.563 141.855 365.753 137.595 368.003 133.065C368.203 132.655 368.393 132.255 368.563 131.845C368.723 131.455 368.873 131.065 369.003 130.675C369.343 129.675 369.593 128.675 369.753 127.665V136.085C370.013 137.795 370.013 139.505 369.753 141.205Z" fill="#CDE7F7"/>
<path d="M246.002 109.615C245.862 110.025 245.702 110.425 245.532 110.835C243.482 115.665 239.222 120.235 232.732 124.005C213.692 135.075 182.602 135.075 163.432 124.005C156.832 120.195 152.492 115.565 150.412 110.675C150.242 110.265 150.092 109.855 149.942 109.445C146.862 100.475 151.272 90.805 163.212 83.865C165.532 82.515 168.032 81.335 170.672 80.315C171.352 80.055 172.042 79.795 172.742 79.565C188.112 74.245 207.502 74.245 222.932 79.565C223.632 79.805 224.322 80.055 225.002 80.315C227.652 81.335 230.162 82.515 232.502 83.865C244.592 90.855 249.102 100.605 246.002 109.615Z" fill="white"/>
<path d="M247.753 101.475C247.603 100.445 247.353 99.425 247.003 98.415C245.143 92.935 240.553 87.705 233.213 83.465C231.183 82.295 229.023 81.245 226.763 80.325C226.123 80.055 225.473 79.805 224.823 79.575C208.403 73.475 187.193 73.475 170.843 79.575C170.193 79.805 169.552 80.055 168.923 80.325C166.673 81.245 164.522 82.295 162.502 83.465C155.232 87.685 150.692 92.915 148.892 98.365C148.532 99.445 148.282 100.535 148.142 101.635C147.953 103.095 147.953 104.565 148.142 106.025C148.282 107.125 148.532 108.225 148.892 109.315C149.033 109.765 149.202 110.215 149.382 110.655C149.552 111.065 149.743 111.485 149.943 111.895C152.222 116.485 156.482 120.805 162.732 124.415C182.292 135.715 214.013 135.705 233.443 124.415C239.563 120.855 243.753 116.595 246.003 112.065C246.202 111.655 246.393 111.255 246.562 110.845C246.723 110.455 246.873 110.065 247.003 109.675C247.342 108.675 247.592 107.675 247.753 106.665C248.013 104.935 248.022 103.185 247.753 101.475ZM246.003 109.615C245.863 110.025 245.702 110.425 245.533 110.835C243.482 115.665 239.223 120.235 232.733 124.005C213.693 135.075 182.603 135.075 163.432 124.005C156.833 120.195 152.493 115.565 150.413 110.675C150.243 110.265 150.093 109.855 149.943 109.445C146.863 100.475 151.273 90.805 163.212 83.865C165.532 82.515 168.033 81.335 170.673 80.315C171.353 80.055 172.042 79.795 172.743 79.565C188.112 74.245 207.503 74.245 222.933 79.565C223.632 79.805 224.323 80.055 225.003 80.315C227.653 81.335 230.163 82.515 232.503 83.865C244.592 90.855 249.103 100.605 246.003 109.615Z" fill="#0053A3"/>
<path d="M211.572 97.255L207.482 94.895L195.182 102.045L198.402 103.905C200.252 104.975 202.012 105.765 203.682 106.265C205.382 106.795 207.032 106.995 208.632 106.865C210.232 106.745 211.812 106.225 213.382 105.315C215.432 104.125 216.312 102.875 216.032 101.555C215.752 100.245 214.272 98.815 211.572 97.255ZM196.282 102.035L207.482 95.525L211.022 97.575C213.672 99.105 215.022 100.455 215.262 101.615C215.512 102.755 214.762 103.875 212.832 104.995C211.342 105.865 209.902 106.315 208.522 106.415C207.112 106.525 205.632 106.345 204.042 105.855C202.472 105.375 200.772 104.625 198.952 103.565L196.282 102.035ZM183.692 99.375L187.122 97.385L191.082 99.675L206.812 90.535L215.372 95.475C219.342 97.765 221.492 99.925 221.802 101.955C222.142 104.005 220.792 105.915 217.752 107.685C215.702 108.875 213.472 109.635 211.062 109.945C208.672 110.245 206.172 110.085 203.532 109.475C200.932 108.875 198.282 107.805 195.582 106.245L191.762 104.045L187.742 106.385L195.242 110.715L192.302 112.425L184.802 108.095L178.652 111.665L174.552 109.295L180.702 105.725L176.742 103.435L179.682 101.725L183.642 104.015L187.662 101.675L183.692 99.375ZM215.922 95.145L206.812 89.885L191.082 99.025L187.122 96.735L182.582 99.375L186.542 101.665L183.622 103.365L179.662 101.075L175.632 103.415L179.592 105.705L173.442 109.275L178.642 112.275L184.792 108.705L192.302 113.035L196.332 110.695L188.822 106.365L191.742 104.665L195.012 106.555C197.762 108.145 200.502 109.265 203.232 109.885C205.982 110.525 208.652 110.695 211.212 110.385H211.222C213.802 110.045 216.162 109.245 218.302 108.005C221.472 106.165 222.952 104.125 222.572 101.915C222.242 99.725 219.942 97.475 215.922 95.145Z" fill="#0053A3"/>
<path d="M247.753 120.205C247.603 121.235 247.353 122.255 247.003 123.275C245.173 128.685 240.653 133.845 233.443 138.035C214.013 149.335 182.293 149.335 162.733 138.035C155.333 133.765 150.723 128.485 148.893 122.955C148.533 121.875 148.283 120.785 148.143 119.685V106.035C148.283 107.135 148.533 108.235 148.893 109.325C149.033 109.775 149.203 110.225 149.383 110.665C149.553 111.075 149.743 111.495 149.943 111.905C152.223 116.495 156.483 120.815 162.733 124.425C182.293 135.725 214.013 135.715 233.443 124.425C239.563 120.855 243.753 116.595 246.003 112.065C246.203 111.655 246.393 111.255 246.563 110.845C246.723 110.455 246.873 110.065 247.003 109.675C247.343 108.675 247.593 107.675 247.753 106.665V115.085C248.013 116.795 248.013 118.505 247.753 120.205Z" fill="#CDE7F7"/>
<path d="M368.002 109.615C367.862 110.025 367.702 110.425 367.532 110.835C365.482 115.665 361.222 120.235 354.732 124.005C335.692 135.075 304.602 135.075 285.432 124.005C278.832 120.195 274.492 115.565 272.412 110.675C272.242 110.265 272.092 109.855 271.942 109.445C268.862 100.475 273.272 90.805 285.212 83.865C287.532 82.515 290.032 81.335 292.672 80.315C293.352 80.055 294.042 79.795 294.742 79.565C310.112 74.245 329.502 74.245 344.932 79.565C345.632 79.805 346.322 80.055 347.002 80.315C349.652 81.335 352.162 82.515 354.502 83.865C366.592 90.855 371.102 100.605 368.002 109.615Z" fill="white"/>
<path d="M369.753 101.475C369.603 100.445 369.353 99.425 369.003 98.415C367.143 92.935 362.553 87.705 355.213 83.465C353.183 82.295 351.023 81.245 348.763 80.325C348.123 80.055 347.473 79.805 346.823 79.575C330.403 73.475 309.193 73.475 292.843 79.575C292.193 79.805 291.552 80.055 290.923 80.325C288.673 81.245 286.522 82.295 284.502 83.465C277.232 87.685 272.692 92.915 270.892 98.365C270.532 99.445 270.282 100.535 270.142 101.635C269.953 103.095 269.953 104.565 270.142 106.025C270.282 107.125 270.532 108.225 270.892 109.315C271.033 109.765 271.202 110.215 271.382 110.655C271.552 111.065 271.743 111.485 271.943 111.895C274.222 116.485 278.482 120.805 284.732 124.415C304.292 135.715 336.013 135.705 355.443 124.415C361.563 120.855 365.753 116.595 368.003 112.065C368.202 111.655 368.393 111.255 368.562 110.845C368.723 110.455 368.873 110.065 369.003 109.675C369.342 108.675 369.592 107.675 369.753 106.665C370.013 104.935 370.022 103.185 369.753 101.475ZM368.003 109.615C367.863 110.025 367.702 110.425 367.533 110.835C365.482 115.665 361.223 120.235 354.733 124.005C335.693 135.075 304.603 135.075 285.432 124.005C278.833 120.195 274.493 115.565 272.413 110.675C272.243 110.265 272.093 109.855 271.943 109.445C268.863 100.475 273.273 90.805 285.212 83.865C287.532 82.515 290.033 81.335 292.673 80.315C293.353 80.055 294.042 79.795 294.743 79.565C310.112 74.245 329.503 74.245 344.933 79.565C345.632 79.805 346.323 80.055 347.003 80.315C349.653 81.335 352.163 82.515 354.503 83.865C366.592 90.855 371.103 100.605 368.003 109.615Z" fill="#0053A3"/>
<path d="M333.572 97.255L329.482 94.895L317.182 102.045L320.402 103.905C322.252 104.975 324.012 105.765 325.682 106.265C327.382 106.795 329.032 106.995 330.632 106.865C332.232 106.745 333.812 106.225 335.382 105.315C337.432 104.125 338.312 102.875 338.032 101.555C337.752 100.245 336.272 98.815 333.572 97.255ZM318.282 102.035L329.482 95.525L333.022 97.575C335.672 99.105 337.022 100.455 337.262 101.615C337.512 102.755 336.762 103.875 334.832 104.995C333.342 105.865 331.902 106.315 330.522 106.415C329.112 106.525 327.632 106.345 326.042 105.855C324.472 105.375 322.772 104.625 320.952 103.565L318.282 102.035ZM305.692 99.375L309.122 97.385L313.082 99.675L328.812 90.535L337.372 95.475C341.342 97.765 343.492 99.925 343.802 101.955C344.142 104.005 342.792 105.915 339.752 107.685C337.702 108.875 335.472 109.635 333.062 109.945C330.672 110.245 328.172 110.085 325.532 109.475C322.932 108.875 320.282 107.805 317.582 106.245L313.762 104.045L309.742 106.385L317.242 110.715L314.302 112.425L306.802 108.095L300.652 111.665L296.552 109.295L302.702 105.725L298.742 103.435L301.682 101.725L305.642 104.015L309.662 101.675L305.692 99.375ZM337.922 95.145L328.812 89.885L313.082 99.025L309.122 96.735L304.582 99.375L308.542 101.665L305.622 103.365L301.662 101.075L297.632 103.415L301.592 105.705L295.442 109.275L300.642 112.275L306.792 108.705L314.302 113.035L318.332 110.695L310.822 106.365L313.742 104.665L317.012 106.555C319.762 108.145 322.502 109.265 325.232 109.885C327.982 110.525 330.652 110.695 333.212 110.385H333.222C335.802 110.045 338.162 109.245 340.302 108.005C343.472 106.165 344.952 104.125 344.572 101.915C344.242 99.725 341.942 97.475 337.922 95.145Z" fill="#0053A3"/>
<path d="M369.753 120.205C369.603 121.235 369.353 122.255 369.003 123.275C367.173 128.685 362.653 133.845 355.443 138.035C336.013 149.335 304.293 149.335 284.733 138.035C277.333 133.765 272.723 128.485 270.893 122.955C270.533 121.875 270.283 120.785 270.143 119.685V106.035C270.283 107.135 270.533 108.235 270.893 109.325C271.033 109.775 271.203 110.225 271.383 110.665C271.553 111.075 271.743 111.495 271.943 111.905C274.223 116.495 278.483 120.815 284.733 124.425C304.293 135.725 336.013 135.715 355.443 124.425C361.563 120.855 365.753 116.595 368.003 112.065C368.203 111.655 368.393 111.255 368.563 110.845C368.723 110.455 368.873 110.065 369.003 109.675C369.343 108.675 369.593 107.675 369.753 106.665V115.085C370.013 116.795 370.013 118.505 369.753 120.205Z" fill="#CDE7F7"/>
<path d="M246.002 88.6149C245.862 89.0249 245.702 89.4249 245.532 89.8349C243.482 94.6649 239.222 99.2349 232.732 103.005C213.692 114.075 182.602 114.075 163.432 103.005C156.832 99.1949 152.492 94.5649 150.412 89.6749C150.242 89.2649 150.092 88.8549 149.942 88.445C146.862 79.4749 151.272 69.805 163.212 62.865C165.532 61.515 168.032 60.335 170.672 59.315C171.352 59.055 172.042 58.795 172.742 58.565C188.112 53.245 207.502 53.245 222.932 58.565C223.632 58.805 224.322 59.055 225.002 59.315C227.652 60.335 230.162 61.515 232.502 62.865C244.592 69.855 249.102 79.6049 246.002 88.6149Z" fill="white"/>
<path d="M247.753 80.475C247.603 79.445 247.353 78.425 247.003 77.415C245.143 71.935 240.553 66.705 233.213 62.465C231.183 61.295 229.023 60.245 226.763 59.325C226.123 59.055 225.473 58.805 224.823 58.575C208.403 52.475 187.193 52.475 170.843 58.575C170.193 58.805 169.552 59.055 168.923 59.325C166.673 60.245 164.522 61.295 162.502 62.465C155.232 66.685 150.692 71.915 148.892 77.365C148.532 78.445 148.282 79.535 148.142 80.635C147.953 82.095 147.953 83.565 148.142 85.025C148.282 86.125 148.532 87.225 148.892 88.315C149.033 88.765 149.202 89.215 149.382 89.655C149.552 90.065 149.743 90.485 149.943 90.895C152.222 95.485 156.482 99.805 162.732 103.415C182.292 114.715 214.013 114.705 233.443 103.415C239.563 99.855 243.753 95.595 246.003 91.065C246.202 90.655 246.393 90.255 246.562 89.845C246.723 89.455 246.873 89.065 247.003 88.675C247.342 87.675 247.592 86.675 247.753 85.665C248.013 83.935 248.022 82.185 247.753 80.475ZM246.003 88.615C245.863 89.025 245.702 89.425 245.533 89.835C243.482 94.665 239.223 99.235 232.733 103.005C213.693 114.075 182.603 114.075 163.432 103.005C156.833 99.195 152.493 94.565 150.413 89.675C150.243 89.265 150.093 88.855 149.943 88.445C146.863 79.475 151.273 69.805 163.212 62.865C165.532 61.515 168.033 60.335 170.673 59.315C171.353 59.055 172.042 58.795 172.743 58.565C188.112 53.245 207.503 53.245 222.933 58.565C223.632 58.805 224.323 59.055 225.003 59.315C227.653 60.335 230.163 61.515 232.503 62.865C244.592 69.855 249.103 79.605 246.003 88.615Z" fill="#0053A3"/>
<path d="M211.572 76.255L207.482 73.895L195.182 81.045L198.402 82.905C200.252 83.975 202.012 84.765 203.682 85.265C205.382 85.795 207.032 85.995 208.632 85.865C210.232 85.745 211.812 85.225 213.382 84.315C215.432 83.125 216.312 81.875 216.032 80.555C215.752 79.245 214.272 77.815 211.572 76.255ZM196.282 81.035L207.482 74.525L211.022 76.575C213.672 78.105 215.022 79.455 215.262 80.615C215.512 81.755 214.762 82.875 212.832 83.995C211.342 84.865 209.902 85.315 208.522 85.415C207.112 85.525 205.632 85.345 204.042 84.855C202.472 84.375 200.772 83.625 198.952 82.565L196.282 81.035ZM183.692 78.375L187.122 76.385L191.082 78.675L206.812 69.535L215.372 74.475C219.342 76.765 221.492 78.925 221.802 80.955C222.142 83.005 220.792 84.915 217.752 86.685C215.702 87.875 213.472 88.635 211.062 88.945C208.672 89.245 206.172 89.085 203.532 88.475C200.932 87.875 198.282 86.805 195.582 85.245L191.762 83.045L187.742 85.385L195.242 89.715L192.302 91.425L184.802 87.095L178.652 90.665L174.552 88.295L180.702 84.725L176.742 82.435L179.682 80.725L183.642 83.015L187.662 80.675L183.692 78.375ZM215.922 74.145L206.812 68.885L191.082 78.025L187.122 75.735L182.582 78.375L186.542 80.665L183.622 82.365L179.662 80.075L175.632 82.415L179.592 84.705L173.442 88.275L178.642 91.275L184.792 87.705L192.302 92.035L196.332 89.695L188.822 85.365L191.742 83.665L195.012 85.555C197.762 87.145 200.502 88.265 203.232 88.885C205.982 89.525 208.652 89.695 211.212 89.385H211.222C213.802 89.045 216.162 88.245 218.302 87.005C221.472 85.165 222.952 83.125 222.572 80.915C222.242 78.725 219.942 76.475 215.922 74.145Z" fill="#0053A3"/>
<path d="M247.753 99.205C247.603 100.235 247.353 101.255 247.003 102.275C245.173 107.685 240.653 112.845 233.443 117.035C214.013 128.335 182.293 128.335 162.733 117.035C155.333 112.765 150.723 107.485 148.893 101.955C148.533 100.875 148.283 99.785 148.143 98.685V85.035C148.283 86.135 148.533 87.235 148.893 88.325C149.033 88.775 149.203 89.225 149.383 89.665C149.553 90.075 149.743 90.495 149.943 90.905C152.223 95.495 156.483 99.815 162.733 103.425C182.293 114.725 214.013 114.715 233.443 103.425C239.563 99.855 243.753 95.595 246.003 91.065C246.203 90.655 246.393 90.255 246.563 89.845C246.723 89.455 246.873 89.065 247.003 88.675C247.343 87.675 247.593 86.675 247.753 85.665V94.085C248.013 95.795 248.013 97.505 247.753 99.205Z" fill="#CDE7F7"/>
<path d="M368.002 88.6149C367.862 89.0249 367.702 89.4249 367.532 89.8349C365.482 94.6649 361.222 99.2349 354.732 103.005C335.692 114.075 304.602 114.075 285.432 103.005C278.832 99.1949 274.492 94.5649 272.412 89.6749C272.242 89.2649 272.092 88.8549 271.942 88.445C268.862 79.4749 273.272 69.805 285.212 62.865C287.532 61.515 290.032 60.335 292.672 59.315C293.352 59.055 294.042 58.795 294.742 58.565C310.112 53.245 329.502 53.245 344.932 58.565C345.632 58.805 346.322 59.055 347.002 59.315C349.652 60.335 352.162 61.515 354.502 62.865C366.592 69.855 371.102 79.6049 368.002 88.6149Z" fill="white"/>
<path d="M369.753 80.475C369.603 79.445 369.353 78.425 369.003 77.415C367.143 71.935 362.553 66.705 355.213 62.465C353.183 61.295 351.023 60.245 348.763 59.325C348.123 59.055 347.473 58.805 346.823 58.575C330.403 52.475 309.193 52.475 292.843 58.575C292.193 58.805 291.552 59.055 290.923 59.325C288.673 60.245 286.522 61.295 284.502 62.465C277.232 66.685 272.692 71.915 270.892 77.365C270.532 78.445 270.282 79.535 270.142 80.635C269.953 82.095 269.953 83.565 270.142 85.025C270.282 86.125 270.532 87.225 270.892 88.315C271.033 88.765 271.202 89.215 271.382 89.655C271.552 90.065 271.743 90.485 271.943 90.895C274.222 95.485 278.482 99.805 284.732 103.415C304.292 114.715 336.013 114.705 355.443 103.415C361.563 99.855 365.753 95.595 368.003 91.065C368.202 90.655 368.393 90.255 368.562 89.845C368.723 89.455 368.873 89.065 369.003 88.675C369.342 87.675 369.592 86.675 369.753 85.665C370.013 83.935 370.022 82.185 369.753 80.475ZM368.003 88.615C367.863 89.025 367.702 89.425 367.533 89.835C365.482 94.665 361.223 99.235 354.733 103.005C335.693 114.075 304.603 114.075 285.432 103.005C278.833 99.195 274.493 94.565 272.413 89.675C272.243 89.265 272.093 88.855 271.943 88.445C268.863 79.475 273.273 69.805 285.212 62.865C287.532 61.515 290.033 60.335 292.673 59.315C293.353 59.055 294.042 58.795 294.743 58.565C310.112 53.245 329.503 53.245 344.933 58.565C345.632 58.805 346.323 59.055 347.003 59.315C349.653 60.335 352.163 61.515 354.503 62.865C366.592 69.855 371.103 79.605 368.003 88.615Z" fill="#0053A3"/>
<path d="M333.572 76.255L329.482 73.895L317.182 81.045L320.402 82.905C322.252 83.975 324.012 84.765 325.682 85.265C327.382 85.795 329.032 85.995 330.632 85.865C332.232 85.745 333.812 85.225 335.382 84.315C337.432 83.125 338.312 81.875 338.032 80.555C337.752 79.245 336.272 77.815 333.572 76.255ZM318.282 81.035L329.482 74.525L333.022 76.575C335.672 78.105 337.022 79.455 337.262 80.615C337.512 81.755 336.762 82.875 334.832 83.995C333.342 84.865 331.902 85.315 330.522 85.415C329.112 85.525 327.632 85.345 326.042 84.855C324.472 84.375 322.772 83.625 320.952 82.565L318.282 81.035ZM305.692 78.375L309.122 76.385L313.082 78.675L328.812 69.535L337.372 74.475C341.342 76.765 343.492 78.925 343.802 80.955C344.142 83.005 342.792 84.915 339.752 86.685C337.702 87.875 335.472 88.635 333.062 88.945C330.672 89.245 328.172 89.085 325.532 88.475C322.932 87.875 320.282 86.805 317.582 85.245L313.762 83.045L309.742 85.385L317.242 89.715L314.302 91.425L306.802 87.095L300.652 90.665L296.552 88.295L302.702 84.725L298.742 82.435L301.682 80.725L305.642 83.015L309.662 80.675L305.692 78.375ZM337.922 74.145L328.812 68.885L313.082 78.025L309.122 75.735L304.582 78.375L308.542 80.665L305.622 82.365L301.662 80.075L297.632 82.415L301.592 84.705L295.442 88.275L300.642 91.275L306.792 87.705L314.302 92.035L318.332 89.695L310.822 85.365L313.742 83.665L317.012 85.555C319.762 87.145 322.502 88.265 325.232 88.885C327.982 89.525 330.652 89.695 333.212 89.385H333.222C335.802 89.045 338.162 88.245 340.302 87.005C343.472 85.165 344.952 83.125 344.572 80.915C344.242 78.725 341.942 76.475 337.922 74.145Z" fill="#0053A3"/>
<path d="M369.753 99.205C369.603 100.235 369.353 101.255 369.003 102.275C367.173 107.685 362.653 112.845 355.443 117.035C336.013 128.335 304.293 128.335 284.733 117.035C277.333 112.765 272.723 107.485 270.893 101.955C270.533 100.875 270.283 99.785 270.143 98.685V85.035C270.283 86.135 270.533 87.235 270.893 88.325C271.033 88.775 271.203 89.225 271.383 89.665C271.553 90.075 271.743 90.495 271.943 90.905C274.223 95.495 278.483 99.815 284.733 103.425C304.293 114.725 336.013 114.715 355.443 103.425C361.563 99.855 365.753 95.595 368.003 91.065C368.203 90.655 368.393 90.255 368.563 89.845C368.723 89.455 368.873 89.065 369.003 88.675C369.343 87.675 369.593 86.675 369.753 85.665V94.085C370.013 95.795 370.013 97.505 369.753 99.205Z" fill="#CDE7F7"/>
<path d="M368.002 67.6149C367.862 68.0249 367.702 68.4249 367.532 68.8349C365.482 73.6649 361.222 78.2349 354.732 82.0049C335.692 93.0749 304.602 93.0749 285.432 82.0049C278.832 78.1949 274.492 73.5649 272.412 68.6749C272.242 68.2649 272.092 67.8549 271.942 67.445C268.862 58.4749 273.272 48.805 285.212 41.865C287.532 40.515 290.032 39.335 292.672 38.315C293.352 38.055 294.042 37.795 294.742 37.565C310.112 32.245 329.502 32.245 344.932 37.565C345.632 37.805 346.322 38.055 347.002 38.315C349.652 39.335 352.162 40.515 354.502 41.865C366.592 48.855 371.102 58.6049 368.002 67.6149Z" fill="white"/>
<path d="M369.753 59.475C369.603 58.445 369.353 57.425 369.003 56.415C367.143 50.935 362.553 45.705 355.213 41.465C353.183 40.295 351.023 39.245 348.763 38.325C348.123 38.055 347.473 37.805 346.823 37.575C330.403 31.475 309.193 31.475 292.843 37.575C292.193 37.805 291.552 38.055 290.923 38.325C288.673 39.245 286.522 40.295 284.502 41.465C277.232 45.685 272.692 50.915 270.892 56.365C270.532 57.445 270.282 58.535 270.142 59.635C269.953 61.095 269.953 62.565 270.142 64.025C270.282 65.125 270.532 66.225 270.892 67.315C271.033 67.765 271.202 68.215 271.382 68.655C271.552 69.065 271.743 69.485 271.943 69.895C274.222 74.485 278.482 78.805 284.732 82.415C304.292 93.715 336.013 93.705 355.443 82.415C361.563 78.855 365.753 74.595 368.003 70.065C368.202 69.655 368.393 69.255 368.562 68.845C368.723 68.455 368.873 68.065 369.003 67.675C369.342 66.675 369.592 65.675 369.753 64.665C370.013 62.935 370.022 61.185 369.753 59.475ZM368.003 67.615C367.863 68.025 367.702 68.425 367.533 68.835C365.482 73.665 361.223 78.235 354.733 82.005C335.693 93.075 304.603 93.075 285.432 82.005C278.833 78.195 274.493 73.565 272.413 68.675C272.243 68.265 272.093 67.855 271.943 67.445C268.863 58.475 273.273 48.805 285.212 41.865C287.532 40.515 290.033 39.335 292.673 38.315C293.353 38.055 294.042 37.795 294.743 37.565C310.112 32.245 329.503 32.245 344.933 37.565C345.632 37.805 346.323 38.055 347.003 38.315C349.653 39.335 352.163 40.515 354.503 41.865C366.592 48.855 371.103 58.605 368.003 67.615Z" fill="#0053A3"/>
<path d="M333.572 55.255L329.482 52.895L317.182 60.045L320.402 61.905C322.252 62.975 324.012 63.765 325.682 64.265C327.382 64.795 329.032 64.995 330.632 64.865C332.232 64.745 333.812 64.225 335.382 63.315C337.432 62.125 338.312 60.875 338.032 59.555C337.752 58.245 336.272 56.815 333.572 55.255ZM318.282 60.035L329.482 53.525L333.022 55.575C335.672 57.105 337.022 58.455 337.262 59.615C337.512 60.755 336.762 61.875 334.832 62.995C333.342 63.865 331.902 64.315 330.522 64.415C329.112 64.525 327.632 64.345 326.042 63.855C324.472 63.375 322.772 62.625 320.952 61.565L318.282 60.035ZM305.692 57.375L309.122 55.385L313.082 57.675L328.812 48.535L337.372 53.475C341.342 55.765 343.492 57.925 343.802 59.955C344.142 62.005 342.792 63.915 339.752 65.685C337.702 66.875 335.472 67.635 333.062 67.945C330.672 68.245 328.172 68.085 325.532 67.475C322.932 66.875 320.282 65.805 317.582 64.245L313.762 62.045L309.742 64.385L317.242 68.715L314.302 70.425L306.802 66.095L300.652 69.665L296.552 67.295L302.702 63.725L298.742 61.435L301.682 59.725L305.642 62.015L309.662 59.675L305.692 57.375ZM337.922 53.145L328.812 47.885L313.082 57.025L309.122 54.735L304.582 57.375L308.542 59.665L305.622 61.365L301.662 59.075L297.632 61.415L301.592 63.705L295.442 67.275L300.642 70.275L306.792 66.705L314.302 71.035L318.332 68.695L310.822 64.365L313.742 62.665L317.012 64.555C319.762 66.145 322.502 67.265 325.232 67.885C327.982 68.525 330.652 68.695 333.212 68.385H333.222C335.802 68.045 338.162 67.245 340.302 66.005C343.472 64.165 344.952 62.125 344.572 59.915C344.242 57.725 341.942 55.475 337.922 53.145Z" fill="#0053A3"/>
<path d="M369.753 78.205C369.603 79.235 369.353 80.255 369.003 81.275C367.173 86.685 362.653 91.845 355.443 96.035C336.013 107.335 304.293 107.335 284.733 96.035C277.333 91.765 272.723 86.485 270.893 80.955C270.533 79.875 270.283 78.785 270.143 77.685V64.035C270.283 65.135 270.533 66.235 270.893 67.325C271.033 67.775 271.203 68.225 271.383 68.665C271.553 69.075 271.743 69.495 271.943 69.905C274.223 74.495 278.483 78.815 284.733 82.425C304.293 93.725 336.013 93.715 355.443 82.425C361.563 78.855 365.753 74.595 368.003 70.065C368.203 69.655 368.393 69.255 368.563 68.845C368.723 68.455 368.873 68.065 369.003 67.675C369.343 66.675 369.593 65.675 369.753 64.665V73.085C370.013 74.795 370.013 76.505 369.753 78.205Z" fill="#CDE7F7"/>
<defs>
<clipPath id="clip0_8_2624">
<rect width="126" height="126" fill="white"/>
</clipPath>
</defs>
</svg>
